<?xml version="1.0" standalone="no"?>
<!DOCTYPE svg PUBLIC "-//W3C//DTD SVG 1.1//EN" "http://www.w3.org/Graphics/SVG/1.1/DTD/svg11.dtd" >
<svg>
<metadata>
Created by FontForge 20090914 at Sun Nov  6 19:52:57 2016
 By www-data
&#194;&#169; 1997 Ray Larabie. This font is freeware. Read attached text file for details. Info &#38; updates visit www.larabiefonts.com. Donations gratefully accepted at www.larabiefonts.com/donation.html. Also visit my commercial type foundry at www.typodermic.com. This font was updated in 2004.
</metadata>
<defs>
<font id="Axaxax" horiz-adv-x="627" >
  <font-face 
    font-family="Axaxax"
    font-weight="400"
    font-stretch="normal"
    units-per-em="1024"
    panose-1="2 11 6 3 5 3 2 2 2 4"
    ascent="819"
    descent="-205"
    x-height="448"
    cap-height="593"
    bbox="-63.001 -221 1531 848.001"
    underline-thickness="0"
    underline-position="0"
    unicode-range="U+0020-U+2122"
  />
<missing-glyph horiz-adv-x="322" 
 />
    <glyph glyph-name=".notdef" horiz-adv-x="322" 
 />
    <glyph glyph-name="space" unicode=" " horiz-adv-x="322" 
 />
    <glyph glyph-name="exclam" unicode="!" horiz-adv-x="279" 
d="M189 249c0 -18 -6.83301 -32 -20.5 -42s-30.167 -15 -49.5 -15c-18.667 0 -35 5 -49 15s-21 24 -21 42v288c0 17.333 7 31 21 41s30.333 15 49 15c19.333 0 35.833 -5 49.5 -15s20.5 -23.667 20.5 -41v-288zM189 71c0 -17.333 -6.83301 -31 -20.5 -41
s-30.167 -15 -49.5 -15c-18.667 0 -35 5 -49 15s-21 23.667 -21 41v59c0 17.333 7 30.833 21 40.5s30.333 14.5 49 14.5c19.333 0 35.833 -4.83301 49.5 -14.5s20.5 -23.167 20.5 -40.5v-59z" />
    <glyph glyph-name="quotedbl" unicode="&#x22;" horiz-adv-x="285" 
d="M259 458c0 -12.667 -4.66699 -22.5 -14 -29.5s-20.666 -10.5 -33.999 -10.5s-24.833 3.5 -34.5 10.5s-14.5 16.833 -14.5 29.5v97c0 12 4.83301 21.5 14.5 28.5s21.167 10.5 34.5 10.5s24.666 -3.5 33.999 -10.5s14 -16.5 14 -28.5v-97zM129 458
c0 -12.667 -4.66699 -22.5 -14 -29.5s-20.666 -10.5 -33.999 -10.5s-24.833 3.5 -34.5 10.5s-14.5 16.833 -14.5 29.5v97c0 12 4.83301 21.5 14.5 28.5s21.167 10.5 34.5 10.5s24.666 -3.5 33.999 -10.5s14 -16.5 14 -28.5v-97z" />
    <glyph glyph-name="numbersign" unicode="#" horiz-adv-x="506" 
d="M182 206h114l34 159h-116zM345 207h95v-65h-106l-31 -142h-48l29 142h-114l-30 -142h-49l29 142h-91v65h104l31 157h-97v64h111l26 139h51l-27 -139h113l29 139h49l-28 -139h86v-64h-99z" />
    <glyph glyph-name="dollar" unicode="$" horiz-adv-x="556" 
d="M507 167c0.666992 -30 -12.0029 -56.999 -38.0029 -80.999c-32 -30 -79.333 -49.333 -142 -58v-29c0 -18 -6.83301 -32 -20.5 -42s-30.167 -15 -49.5 -15c-18.667 0 -35 5 -49 15s-21 24 -21 42v29c-50.667 8 -92 23.667 -124 47s-50 52 -54 86v22
c0 17.333 7.33301 31.333 22 42c12.667 9.33301 28.667 14 48 14c18.667 0 35 -5 49 -15s21 -23.667 21 -41v-16c6.66699 -22.667 42.334 -33.667 107.001 -33c74 0.666992 111 11.667 111 33v22c-3.33301 28.667 -39.333 43 -108 43s-126.5 12.167 -173.5 36.5
s-72.5 55.5 -76.5 93.5v25c0 30.667 13.333 58.334 40 83.001c32 28 78 46.333 138 55v64c0 18 7 32 21 42s30.333 15 49 15c19.333 0 35.833 -5 49.5 -15s20.5 -24 20.5 -42v-64c50.667 -8 92.834 -24.333 126.501 -49s51.167 -54 52.5 -88l1 -20
c0.666992 -18 -5.83301 -32 -19.5 -42s-30.167 -15 -49.5 -15s-36 5 -50 15s-21 24 -21 42v15c-2 25.333 -38 37.666 -108 36.999c-40.667 -0.666992 -68.667 -3 -84 -7c-17.333 -4.66699 -26 -13.334 -26 -26.001v-23c6 -22 42.5 -33 109.5 -33s122.833 -10 167.5 -30
c48.667 -22 75.334 -53.667 80.001 -95z" />
    <glyph glyph-name="percent" unicode="%" horiz-adv-x="672" 
d="M260 517c0 -18 -9.99902 -34.001 -29.999 -48.001c-24 -16.667 -58 -25 -102 -25c-32 -0.666992 -61.833 5.83301 -89.5 19.5s-42.5 30.5 -44.5 50.5c0 17.333 10 33 30 47c25.333 16.667 59.666 25.334 102.999 26.001c32.667 0 62.5 -6.5 89.5 -19.5
s41.5 -29.833 43.5 -50.5zM191.001 513.999c-2 12 -22.999 17.667 -62.999 17c-42.667 -0.666992 -64 -5.33398 -64 -14.001c1.33301 -12 22.333 -17.667 63 -17c41.333 0.666992 62.666 5.33398 63.999 14.001zM607.002 420.999
c-0.666992 -2 -1.16797 -4.16797 -1.50098 -6.50098s-0.5 -4.16602 -0.5 -5.49902c-7.33301 -26.667 -25 -46 -53 -58l-315 -141c-14.667 -6 -22 -10.333 -22 -13v-126c0 -18 -6.83301 -31.833 -20.5 -41.5s-30.167 -14.5 -49.5 -14.5c-18.667 0 -35 4.83301 -49 14.5
s-21 23.5 -21 41.5v126c0 45.333 31 82 93 110l299 134v96c0 17.333 7 31 21 41s30.667 14.667 50 14c18.667 0 34.834 -4.83301 48.501 -14.5s20.5 -23.167 20.5 -40.5v-116zM639.001 85.998c0 -18 -10.332 -33.666 -30.999 -46.999
c-24.667 -16.667 -58.667 -25.334 -102 -26.001c-32.667 0 -62.334 6.66699 -89.001 20s-41 30.666 -43 51.999c0 17.333 9.66699 32.666 29 45.999c24.667 16.667 58.667 25.334 102 26.001c32.667 0 62 -6.33301 88 -19c28.667 -13.333 44 -30.666 46 -51.999z
M569.002 83.999c-2 12.667 -23 18.333 -63 17c-42 -0.666992 -63 -5.66699 -63 -15c0.666992 -11.333 21.334 -17 62.001 -17c41.333 0.666992 62.666 5.66699 63.999 15z" />
    <glyph glyph-name="ampersand" unicode="&#x26;" horiz-adv-x="481" 
d="M380 3h-34c-22 0 -39.667 6 -53 18c-11.333 10 -17 22.667 -17 38s6.16699 28.5 18.5 39.5s29.5 16.5 51.5 16.5h34c22 0 39.167 -5.5 51.5 -16.5s18.5 -24.167 18.5 -39.5s-6 -28 -18 -38c-12.667 -12 -30 -18 -52 -18zM254 207l-70.999 -0.00292969
c-34.667 0 -52 -14.333 -52 -43c0 -15.333 9.33301 -26 28 -32c2 -0.666992 18.667 -3 50 -7c35.333 -5.33301 53 -25.666 53 -60.999v-63c0 -17.333 -7 -31 -21 -41s-30.333 -15 -49 -15s-35 5 -49 15s-21 23.667 -21 41v21c-78 26 -121.333 65 -130 117v37
c0 32.667 17.667 61.334 53 86.001c-32.667 24.667 -50.334 53.334 -53.001 86.001v2c0 22.667 11.167 45.167 33.5 67.5s54.5 40.833 96.5 55.5v12c0 17.333 7 31 21 41s30.333 15 49 15s35 -5 49 -15s21 -23.667 21 -41v-52c0 -15.333 -4.66699 -28.333 -14 -39
s-22.333 -16 -39 -16c-52 0 -78 -8.66699 -78 -26c0 -22 20.333 -33 61 -33h62c5.33301 0 13 -0.333008 23 -1s20.5 -6.5 31.5 -17.5s16.5 -23.5 16.5 -37.5c0 -17.333 -7.16699 -31 -21.5 -41s-30.833 -15 -49.5 -15z" />
    <glyph glyph-name="quotesingle" unicode="'" horiz-adv-x="164" 
d="M129 458c0 -12.667 -4.66699 -22.5 -14 -29.5s-20.666 -10.5 -33.999 -10.5s-24.833 3.5 -34.5 10.5s-14.5 16.833 -14.5 29.5v97c0 12 4.83301 21.5 14.5 28.5s21.167 10.5 34.5 10.5s24.666 -3.5 33.999 -10.5s14 -16.5 14 -28.5v-97z" />
    <glyph glyph-name="parenleft" unicode="(" horiz-adv-x="385" 
d="M269 -72c-64 0 -122.999 14 -176.999 42s-83 61.333 -87 100v467c0 36 20.667 67.333 62 94c48.667 32.667 116 49 202 49c22.667 0 40.167 -5.5 52.5 -16.5s18.5 -24.167 18.5 -39.5s-6.16699 -28.5 -18.5 -39.5s-29.833 -16.5 -52.5 -16.5
c-36.667 0 -66.5 -5 -89.5 -15s-34.5 -21.667 -34.5 -35v-427c4.66699 -14 20 -26 46 -36s52 -15 78 -15c22.667 0 40.167 -5.5 52.5 -16.5s18.5 -24.167 18.5 -39.5s-6 -28 -18 -38c-12.667 -12 -30.334 -18 -53.001 -18z" />
    <glyph glyph-name="parenright" unicode=")" horiz-adv-x="418" 
d="M357 71c0 -34 -20.667 -64.668 -62 -92.001c-49.333 -32 -117 -48.667 -203 -50c-22 -0.666992 -39.333 4.66602 -52 15.999s-19 24.666 -19 39.999c0 14.667 6 27.334 18 38.001s28.667 16.334 50 17.001c38 0.666992 69.333 6.33398 94 17.001
c22.667 10 34 21.333 34 34v423c-1.33301 16.667 -16 30 -44 40c-24.667 9.33301 -52 14 -82 14c-22 0 -39.667 6 -53 18c-11.333 10 -17 22.667 -17 38s6.16699 28.5 18.5 39.5s29.5 16.5 51.5 16.5c66.667 0 126 -13 178 -39c54.667 -27.333 83.667 -61 87 -101z" />
    <glyph glyph-name="asterisk" unicode="*" horiz-adv-x="559" 
d="M462 400l-62 -9c-5.33301 -0.666992 -10.333 -1 -15 -1c-20.667 0 -37.167 6 -49.5 18s-18.5 25.667 -18.5 41c0 30 19 47.667 57 53l62 8c24.667 2.66699 44.667 -2 60 -14s23 -26.333 23 -43c0 -30 -19 -47.667 -57 -53zM336 511c0 -17.333 -7 -31 -21 -41
s-30.333 -15 -49 -15c-19.333 0 -35.833 5 -49.5 15s-20.5 23.667 -20.5 41v50c0 18 6.83301 31.833 20.5 41.5s30.167 14.5 49.5 14.5c18.667 0 35 -4.83301 49 -14.5s21 -23.5 21 -41.5v-50zM455 339c17.333 -12 26 -26.667 26 -44c0 -15.333 -6.66699 -29 -20 -41
s-29 -18 -47 -18c-15.333 0 -30 4.66699 -44 14l-55 40c-18 12 -27 26.667 -27 44c0 15.333 6.66699 28.833 20 40.5s29 17.5 47 17.5c16 0 31 -4.66699 45 -14zM175 483c37.333 -7.33301 56.002 -26.333 56.002 -57c0 -15.333 -5.66699 -28.5 -17 -39.5
s-26.333 -16.5 -45 -16.5c-6.66699 0 -13.334 0.666992 -20.001 2l-93 19c-37.333 8 -56 27.333 -56 58c0 14.667 5.66699 27.5 17 38.5s26.666 16.5 45.999 16.5c6 0 12.333 -0.666992 19 -2zM252.002 273l-55.999 -36.001c-14 -8.66699 -28.667 -13 -44 -13
c-18.667 0 -34.834 5.83301 -48.501 17.5s-20.5 24.834 -20.5 39.501c0 17.333 9.33301 32 28 44l56 37c13.333 8.66699 27.666 13 42.999 13c18.667 0 34.834 -6 48.501 -18s20.5 -25.667 20.5 -41c0 -16.667 -9 -31 -27 -43z" />
    <glyph glyph-name="plus" unicode="+" horiz-adv-x="390" 
d="M270 297h-27v-20c0 -17.333 -7 -30.833 -21 -40.5s-30.333 -14.5 -49 -14.5c-19.333 0 -35.833 4.83301 -49.5 14.5s-20.5 23.167 -20.5 40.5v20h-23c-22 0 -39.167 5.5 -51.5 16.5s-18.5 24.167 -18.5 39.5c0 14.667 6.16699 27.667 18.5 39s29.5 17 51.5 17h23v16
c0 17.333 6.83301 30.833 20.5 40.5s30.167 14.5 49.5 14.5c18.667 0 35 -4.83301 49 -14.5s21 -23.167 21 -40.5v-16h27c22 0 39.167 -5.66699 51.5 -17s18.5 -24.333 18.5 -39c0 -15.333 -6.16699 -28.5 -18.5 -39.5s-29.5 -16.5 -51.5 -16.5z" />
    <glyph glyph-name="comma" unicode="," horiz-adv-x="333" 
d="M282 14c0 -27.333 -12.666 -50.998 -37.999 -70.998c-34.667 -27.333 -88.334 -42 -161.001 -44c-22 0 -39.5 5.66699 -52.5 17s-19.5 24.666 -19.5 39.999c0 14.667 6 27.5 18 38.5s28.667 16.5 50 16.5c42 1.33301 63 8.66602 63 21.999v38c0 18 7.33301 32 22 42
c12.667 9.33301 28.667 14 48 14c18.667 0 35 -4.83301 49 -14.5s21 -23.5 21 -41.5v-57z" />
    <glyph glyph-name="hyphen" unicode="-" horiz-adv-x="616" 
d="M484 188h-392c-22 0 -39.333 6 -52 18c-12 10 -18 22.667 -18 38s6.16699 28.5 18.5 39.5s29.5 16.5 51.5 16.5h392c22 0 39.167 -5.5 51.5 -16.5s18.5 -24.167 18.5 -39.5s-6 -28 -18 -38c-12.667 -12 -30 -18 -52 -18z" />
    <glyph glyph-name="period" unicode="." horiz-adv-x="206" 
d="M153 20c0 -17.333 -6.83301 -31 -20.5 -41s-30.167 -15 -49.5 -15c-18.667 0 -35 5 -49 15s-21 23.667 -21 41v59c0 17.333 7 30.833 21 40.5s30.333 14.5 49 14.5c19.333 0 35.833 -4.83301 49.5 -14.5s20.5 -23.167 20.5 -40.5v-59z" />
    <glyph glyph-name="slash" unicode="/" horiz-adv-x="533" 
d="M512 479c0 1.33301 -1.00098 -3 -3.00098 -13c-4 -13.333 -15.667 -28 -35 -44l-315 -269c-3.33301 -2 -6.66602 -4.33301 -9.99902 -7c-18.667 -12 -28 -24 -28 -36v-39c0 -17.333 -7 -31 -21 -41s-30.333 -15 -49 -15c-19.333 0 -35.333 4.66699 -48 14
c-14.667 10.667 -22 24.667 -22 42v59c0 36 26.333 70.333 79 103l312 261c0.666992 0.666992 0.666992 15 0 43c0 17.333 7.33301 31.333 22 42c12.667 9.33301 28.667 14 48 14c18.667 0 35 -5 49 -15s21 -23.667 21 -41v-58z" />
    <glyph glyph-name="zero" unicode="0" horiz-adv-x="607" 
d="M549 155c0 -35.333 -20.668 -66.668 -62.001 -94.001c-49.333 -31.333 -117.333 -47.666 -204 -48.999c-64.667 -0.666992 -123 11.666 -175 36.999c-56 27.333 -86 62 -90 104v302c0 34 20 64.667 60 92c49.333 32.667 117.333 49.667 204 51
c64.667 0.666992 123.334 -12 176.001 -38c56.667 -27.333 86.667 -61.666 90 -102.999zM408.999 166.998l-0.00195312 270.999c0 16.667 -14.667 29.334 -44 38.001c-23.333 6.66699 -50.666 10 -81.999 10c-38.667 -0.666992 -69.167 -5.16699 -91.5 -13.5
s-33.5 -18.5 -33.5 -30.5v-275c4 -14.667 19.667 -26 47 -34c22.667 -6.66699 48.334 -10 77.001 -10c84.667 1.33301 127 16 127 44z" />
    <glyph glyph-name="one" unicode="1" horiz-adv-x="355" 
d="M298 72c0 -18 -7 -32 -21 -42s-30.333 -15 -49 -15c-19.333 0 -35.333 4.66699 -48 14c-14.667 10.667 -22 25 -22 43v414h-70c-22 0 -39.667 6 -53 18c-11.333 10 -17 22.667 -17 38s6.16699 28.5 18.5 39.5s29.5 16.5 51.5 16.5h139c47.333 0 71 -18.667 71 -56v-470z
" />
    <glyph glyph-name="two" unicode="2" horiz-adv-x="586" 
d="M538 413c1.33301 -46.667 -30.333 -83.998 -95 -111.998c-48.667 -21.333 -105.667 -32 -171 -32c-38.667 0 -69.167 -4.16699 -91.5 -12.5s-33.5 -18.833 -33.5 -31.5v-97h321c22 0 39.667 -6 53 -18c11.333 -10 17 -22.667 17 -38s-5.66699 -28.333 -17 -39
c-13.333 -11.333 -31 -17 -53 -17h-391c-46.667 0 -70 18.667 -70 56v166c0 34.667 20.333 65.667 61 93c48.667 33.333 116.667 50 204 50c44 0 79 6.33301 105 19c14 5.33301 21 9.66602 21 12.999v37c-2.66699 25.333 -44.334 37.333 -125.001 36
c-84 -0.666992 -126 -11 -126 -31v-2c0 -17.333 -6.83301 -31 -20.5 -41s-30.167 -15 -49.5 -15c-18.667 0 -35 5 -49 15s-21 23.667 -21 41v2c0 34 20 64.667 60 92c48.667 32.667 116.334 49.667 203.001 51c68 1.33301 127.667 -10.667 179 -36
c54 -26.667 83.667 -60.334 89 -101.001v-48z" />
    <glyph glyph-name="three" unicode="3" horiz-adv-x="604" 
d="M548 415c0.666992 -32 -17.665 -60.6699 -54.998 -86.0029c32.667 -24 50.667 -52.333 54 -85v-91c0 -35.333 -20 -66 -60 -92c-48 -31.333 -116 -47.666 -204 -48.999c-65.333 -0.666992 -124 11.666 -176 36.999c-56.667 27.333 -86.667 62 -90 104v103
c0 18 6.83301 32 20.5 42s30.167 15 49.5 15c18.667 0 35 -5 49 -15s20.667 -24 20 -42v-87c2.66699 -31.333 44.334 -46.666 125.001 -45.999c84.667 1.33301 127 16 127 44v57c-2.66699 20 -25.334 34.667 -68.001 44c-14.667 3.33301 -33.334 5 -56.001 5
s-40.667 6 -54 18c-12 10 -18 22.667 -18 38c0 36 23.333 54.667 70 56c24.667 0.666992 45 2.66699 61 6c43.333 8.66699 65 21 65 37v10c0 16.667 -14.667 29.334 -44 38.001c-22.667 6.66699 -49.667 10 -81 10c-38.667 -0.666992 -69.5 -5 -92.5 -13
s-34.5 -18 -34.5 -30v-22c0 -18 -6.83301 -31.833 -20.5 -41.5s-29.834 -14.5 -48.501 -14.5c-19.333 0 -35.833 4.83301 -49.5 14.5s-20.5 23.5 -20.5 41.5v34c0 34.667 20.333 65.667 61 93c49.333 32 117 48.667 203 50c66 0.666992 125.333 -12 178 -38
c58 -27.333 87.333 -61.666 88 -102.999z" />
    <glyph glyph-name="four" unicode="4" horiz-adv-x="608" 
d="M550 71c0 -17.333 -6.83301 -31 -20.5 -41s-30.167 -15 -49.5 -15c-18.667 0 -35 5 -49 15s-21 23.667 -21 41v466c0 17.333 7 31 21 41s30.333 15 49 15c19.333 0 35.833 -5 49.5 -15s20.5 -23.667 20.5 -41v-466zM334 141h-247c-46 0 -69 19 -69 57v339
c0 17.333 6.83301 31 20.5 41s30.167 15 49.5 15c18.667 0 35 -5 49 -15s21 -23.667 21 -41v-284h176c22 0 39.167 -5.5 51.5 -16.5s18.5 -24.167 18.5 -39.5s-6.16699 -28.5 -18.5 -39.5s-29.5 -16.5 -51.5 -16.5z" />
    <glyph glyph-name="five" unicode="5" horiz-adv-x="596" 
d="M543 154c0.666992 -35.333 -20 -66.3311 -62 -92.998c-49.333 -32 -117 -48.333 -203 -49c-65.333 -0.666992 -124 11.333 -176 36c-55.333 27.333 -85.333 62 -90 104v46c0 18 7 31.833 21 41.5s30.333 14.5 49 14.5c19.333 0 35.833 -4.83301 49.5 -14.5
s20.5 -23.5 20.5 -41.5v-31c4 -15.333 19.667 -27 47 -35c22.667 -6.66699 48.334 -9.66699 77.001 -9c84.667 0.666992 127 11 127 31v126c-0.666992 10 -8 20 -22 30s-29 16.333 -45 19c-12.667 2.66699 -33 4.66699 -61 6l-193 -1c-46.667 0 -70 18.667 -70 56v146
c0 37.333 23.333 56 70 56h391c22 0 39.667 -5.66699 53 -17c11.333 -10.667 17 -23.667 17 -39c0 -14.667 -5.66699 -27.334 -17 -38.001c-13.333 -12 -31 -18 -53 -18h-321v-34h126c27.333 -2 58 -4.66699 92 -8c49.333 -10 89.666 -26.333 120.999 -49
c34 -24.667 51.333 -52.334 52 -83.001v-152z" />
    <glyph glyph-name="six" unicode="6" horiz-adv-x="604" 
d="M548 155c0 -35.333 -20.6689 -66.667 -62.002 -94c-49.333 -31.333 -117.333 -47.666 -204 -48.999c-65.333 -0.666992 -123.666 11.666 -174.999 36.999c-56 27.333 -86 62 -90 104v302c0 34 20 64.667 60 92c48.667 32.667 116.667 49.667 204 51
c66 0.666992 125.333 -11.333 178 -36c58.667 -27.333 88 -61.666 88 -102.999c0 -18.667 -7.16699 -33.334 -21.5 -44.001s-31.166 -16 -50.499 -16c-42 0 -64.333 17.333 -67 52c-2 24 -44 35.667 -126 35c-83.333 -1.33301 -125 -14 -125 -38v-287
c6.66699 -26 48 -38.667 124 -38c84.667 1.33301 127 16 127 44v69c-4 35.333 -45 53 -123 53c-12 0 -23.333 -0.666992 -34 -2c-24 -2.66699 -43.333 2 -58 14s-22 26.333 -22 43c0 30.667 19.667 48.667 59 54c16.667 2 34.667 3 54 3c63.333 0 118.333 -10 165 -30
c58 -24 90.667 -59.333 98 -106z" />
    <glyph glyph-name="seven" unicode="7" horiz-adv-x="560" 
d="M525 471c0 -8.66699 -2.66602 -17 -7.99902 -25l-256 -400c-12.667 -20.667 -32.334 -31 -59.001 -31c-19.333 0 -36.5 5.33301 -51.5 16s-22.5 23.667 -22.5 39c0 8.66699 3 17.667 9 27l248 384h-250v-60c0 -18 -6.83301 -31.833 -20.5 -41.5
s-30.167 -14.5 -49.5 -14.5c-18.667 0 -35 4.83301 -49 14.5s-21 23.5 -21 41.5v116c0 37.333 23.333 56 70 56h390c46.667 0 70 -18.667 70 -56v-66z" />
    <glyph glyph-name="eight" unicode="8" horiz-adv-x="606" 
d="M548 155c0 -34.667 -20.335 -65.6699 -61.002 -93.0029c-49.333 -32 -117 -48.667 -203 -50c-68.667 -0.666992 -128.667 12 -180 38c-53.333 26.667 -82 61 -86 103v104c0 28.667 10.667 53.334 32 74.001c-17.333 18 -28 39.667 -32 65v59c0 34 20.333 64.667 61 92
c50 32.667 117.667 49.667 203 51c66.667 0.666992 126.334 -11.666 179.001 -36.999c56.667 -28 85.334 -62.667 86.001 -104l1 -54c0.666992 -30 -9.33301 -55.333 -30 -76c20 -21.333 30 -42.666 30 -63.999v-108zM407.998 154.997l-0.000976562 96
c-0.666992 7.33301 -8 13.333 -22 18c-11.333 3.33301 -22.666 6.33301 -33.999 9c-38.667 11.333 -58 29 -58 53c0 24.667 20 42 60 52c36 9.33301 54 16 54 20v48c0 24 -41.333 35.667 -124 35c-84 -1.33301 -126 -11.666 -126 -30.999v-49c2 -6 21 -13.667 57 -23
c39.333 -10.667 59 -28.334 59 -53.001c0 -24 -19.333 -41.333 -58 -52c-12.667 -3.33301 -25.5 -6.5 -38.5 -9.5s-19.5 -6.83301 -19.5 -11.5l-1 -101c1.33301 -15.333 15.333 -25.333 42 -30c15.333 -2 43 -3 83 -3c84 1.33301 126 12 126 32z" />
    <glyph glyph-name="nine" unicode="9" horiz-adv-x="599" 
d="M545 160c0 -36 -20 -67.668 -60 -95.001c-48.667 -32.667 -116.667 -49 -204 -49h-67c-22 0 -39.167 5.5 -51.5 16.5s-18.5 24.167 -18.5 39.5s6.16699 28.5 18.5 39.5s29.5 16.5 51.5 16.5h64c38.667 0 69.5 4.16699 92.5 12.5s34.5 19.166 34.5 32.499v265
c0 16.667 -14.333 29.334 -43 38.001c-23.333 7.33301 -50.333 10.666 -81 9.99902c-39.333 -0.666992 -70.333 -5 -93 -13s-34 -18.333 -34 -31l-1 -112c3.33301 -31.333 36.333 -46.666 99 -45.999c15.333 0 34.333 1.33301 57 4c24.667 2.66699 45 -2 61 -14
c14 -11.333 21 -25.333 21 -42c0 -30 -19.667 -48 -59 -54c-24.667 -3.33301 -49.667 -5 -75 -5c-64 -0.666992 -119 11.666 -165 36.999c-48 26.667 -74 61 -78 103v142c0 34.667 20 65.334 60 92.001c48.667 33.333 117 50.333 205 51
c64.667 0.666992 123 -11.666 175 -36.999c56 -27.333 86 -62 90 -104z" />
    <glyph glyph-name="colon" unicode=":" horiz-adv-x="260" 
d="M180 224c0 -18 -7 -32 -21 -42s-30.333 -15 -49 -15s-35 5 -49 15s-21 24 -21 42v57c0 18 7 32 21 42s30.333 15 49 15s35 -5 49 -15s21 -24 21 -42v-57zM180 43c0 -18 -7 -32 -21 -42s-30.333 -15 -49 -15s-35 5 -49 15s-21 24 -21 42v58c0 18 7 31.833 21 41.5
s30.333 14.5 49 14.5s35 -4.83301 49 -14.5s21 -23.5 21 -41.5v-58z" />
    <glyph glyph-name="semicolon" unicode=";" horiz-adv-x="335" 
d="M283 213c0 -17.333 -7 -31 -21 -41s-30.333 -15 -49 -15c-19.333 0 -35.333 4.66699 -48 14c-14.667 10.667 -22 24.667 -22 42v58c0 18 7.33301 32.333 22 43c12.667 9.33301 28.667 14 48 14c18.667 0 35 -5 49 -15s21 -24 21 -42v-58zM283 36
c0 -27.333 -12.666 -50.999 -37.999 -70.999c-34.667 -27.333 -88.334 -41.666 -161.001 -42.999c-22 -0.666992 -39.5 4.66602 -52.5 15.999s-19.5 24.666 -19.5 39.999c0 14.667 5.83301 27.5 17.5 38.5s28.167 16.833 49.5 17.5c42.667 1.33301 64 8.33301 64 21v39
c0 17.333 7.33301 31.333 22 42c12.667 9.33301 28.667 14 48 14c18.667 0 35 -5 49 -15s21 -23.667 21 -41v-58z" />
    <glyph glyph-name="less" unicode="&#x3c;" horiz-adv-x="577" 
d="M485 126c32.667 -8.66699 49 -26 49 -52c0 -15.333 -6.33301 -28.833 -19 -40.5s-29 -17.5 -49 -17.5c-8 0 -16 1 -24 3l-391 102c-32 8 -48 25.333 -48 52v68c0 27.333 16 45 48 53l391 102c8 2 16 3 24 3c20 0 36.333 -5.83301 49 -17.5s19 -25.167 19 -40.5
c0 -26 -16.333 -43.333 -49 -52l-318 -82z" />
    <glyph glyph-name="equal" unicode="=" horiz-adv-x="616" 
d="M483 250h-391c-22 0 -39.167 5.66699 -51.5 17s-18.5 24.333 -18.5 39c0 15.333 6.16699 28.5 18.5 39.5s29.5 16.5 51.5 16.5h391c22.667 0 40.167 -5.5 52.5 -16.5s18.5 -24.167 18.5 -39.5c0 -14.667 -6.16699 -27.667 -18.5 -39s-29.833 -17 -52.5 -17zM483 125h-391
c-22 0 -39.167 5.5 -51.5 16.5s-18.5 24.167 -18.5 39.5c0 14.667 6.16699 27.667 18.5 39s29.5 17 51.5 17h391c22.667 0 40.167 -5.66699 52.5 -17s18.5 -24.333 18.5 -39c0 -15.333 -6.16699 -28.5 -18.5 -39.5s-29.833 -16.5 -52.5 -16.5z" />
    <glyph glyph-name="greater" unicode="&#x3e;" horiz-adv-x="570" 
d="M531 173c0 -26.667 -16.333 -44 -49 -52l-391 -102c-8.66699 -2 -17 -3 -25 -3c-19.333 0 -35.333 5.83301 -48 17.5s-19 25.167 -19 40.5c0 26 16.333 43.333 49 52l316 81l-316 82c-32.667 8.66699 -49 26 -49 52c0 15.333 6.33301 28.833 19 40.5s29 17.5 49 17.5
c7.33301 0 15.333 -1 24 -3l391 -102c32.667 -8 49 -25.667 49 -53v-68z" />
    <glyph glyph-name="question" unicode="?" horiz-adv-x="564" 
d="M528 407c0 -32.667 -15.335 -58.333 -46.002 -77c-15.333 -10 -57.666 -27.333 -126.999 -52l-29 -11v-15c0 -17.333 -6.83301 -31 -20.5 -41s-30.167 -15 -49.5 -15c-18.667 0 -35 5 -49 15s-21 23.667 -21 41v37c0 31.333 19 55 57 71l129 55
c11.333 4 17 7.66699 17 11c-1.33301 9.33301 -2 14.333 -2 15c0 13.333 -15 24.666 -45 33.999c-26 7.33301 -52.667 11 -80 11c-39.333 -0.666992 -70.166 -5.16699 -92.499 -13.5s-33.5 -18.5 -33.5 -30.5v-21c0 -18 -7 -31.833 -21 -41.5s-30.333 -14.5 -49 -14.5
c-19.333 0 -35.333 4.66699 -48 14c-14.667 10 -22 24 -22 42v34c0 34 20 64.667 60 92c48.667 32.667 117 49.667 205 51c45.333 0.666992 89.333 -5.66602 132 -18.999c45.333 -13.333 80 -32 104 -56c20.667 -20.667 31 -41.667 31 -63v-53zM325.998 69.001
c0 -18 -6.83301 -31.833 -20.5 -41.5s-30.167 -14.5 -49.5 -14.5c-18.667 0 -35 4.83301 -49 14.5s-21 23.5 -21 41.5v58c0 18 7 31.833 21 41.5s30.333 14.5 49 14.5c19.333 0 35.833 -4.83301 49.5 -14.5s20.5 -23.5 20.5 -41.5v-58z" />
    <glyph glyph-name="at" unicode="@" horiz-adv-x="631" 
d="M454 198c0 -18.667 -11.668 -27.999 -35.001 -27.999h-98c-32.667 0 -62 6.66699 -88 20c-28 13.333 -42.667 30.333 -44 51v13c0 17.333 8.66699 32.666 26 45.999c22 16.667 54.667 25.334 98 26.001h32c24 0 36 -9.33301 36 -28s-12 -28 -36 -28h-12.5h-19.5
c-36.667 0 -55 -7.33301 -55 -22v-3c2.66699 -12 23.667 -18 63 -18h63v95c0 15.333 -21 23 -63 23h-98c-23.333 0 -35 9.33301 -35 28c0 19.333 11.667 29 35 29h98c32.667 0 62.834 -6.83301 90.501 -20.5s41.5 -30.834 41.5 -51.501zM592.999 439.001
c0 -18 -6.83301 -31.833 -20.5 -41.5s-30.167 -14.5 -49.5 -14.5c-18.667 0 -35 4.83301 -49 14.5s-21 23.5 -21 41.5c0 22.667 -49.667 33 -149 31c-110.667 -2 -166 -12.667 -166 -32v-286c6 -20 47.667 -30 125 -30c22 0 39.667 -6 53 -18
c11.333 -10.667 17 -23.334 17 -38.001c0 -15.333 -5.66699 -28.333 -17 -39c-13.333 -11.333 -31 -17 -53 -17c-65.333 0 -123.666 12.667 -174.999 38c-56 26.667 -86 60.667 -90 102v288c0 40.667 27.167 74.334 81.5 101.001s128.166 41 221.499 43
c194.667 2.66699 292 -45 292 -143z" />
    <glyph glyph-name="A" unicode="A" horiz-adv-x="612" 
d="M329 305l-92 0.000976562c-22 0 -39.167 5.66699 -51.5 17s-18.5 24.333 -18.5 39c0 15.333 6.16699 28.5 18.5 39.5s29.5 16.5 51.5 16.5h92c22 0 39.667 -5.66699 53 -17c11.333 -10.667 17 -23.667 17 -39c0 -14.667 -5.66699 -27.334 -17 -38.001
c-13.333 -12 -31 -18 -53 -18zM551 72.001c0 -18 -6.83301 -32.001 -20.5 -42.001s-29.834 -15 -48.501 -15c-19.333 0 -36 5 -50 15s-21 24 -21 42v379c0 24.667 -41.333 36.334 -124 35.001c-84.667 -0.666992 -127 -11 -127 -31l2 -383c0 -18 -6.83301 -32 -20.5 -42
s-30.167 -15 -49.5 -15c-18.667 0 -35 5 -49 15s-21 24 -21 42l-2 383c0 34 20 64.667 60 92c48.667 32.667 116.667 49.667 204 51c64.667 1.33301 123.334 -11 176.001 -37c56.667 -28 87 -62.667 91 -104v-385z" />
    <glyph glyph-name="B" unicode="B" horiz-adv-x="608" 
d="M548 171c0.666992 -34 -19.667 -66.665 -61 -97.998c-51.333 -38.667 -119 -58 -203 -58h-197c-46.667 0 -70 18.667 -70 56v466c0 37.333 23.333 56 70 56h196c64.667 0 122.334 -11.333 173.001 -34c55.333 -24.667 85.666 -56.334 90.999 -95.001v4
c2.66699 -7.33301 4 -16 4 -26c0 -32.667 -17 -62 -51 -88c28.667 -22.667 44.667 -48.334 48 -77.001v-106zM408.999 445.002l-0.999023 6c-1.33301 15.333 -16.333 24.666 -45 27.999c-8.66699 1.33301 -35.334 2 -80.001 2h-126v-354h123c38 0 69.333 7.33301 94 22
c22.667 13.333 34 29.333 34 48v63c-2 20.667 -19 33.334 -51 38.001c-13.333 3.33301 -53.666 5 -120.999 5c-22 0 -39.667 6 -53 18c-12 10 -18 22.667 -18 38c0 14.667 6.16699 27.5 18.5 38.5s29.5 16.833 51.5 17.5c34 -0.666992 74.667 -0.666992 122 0
c39.333 5.33301 56.666 15.333 51.999 30z" />
    <glyph glyph-name="C" unicode="C" horiz-adv-x="600" 
d="M545 156c0 -34 -20 -64.6689 -60 -92.002c-49.333 -33.333 -117.666 -50.666 -204.999 -51.999c-64.667 -0.666992 -124 12.5 -178 39.5s-83.333 60.167 -88 99.5v303c0 36 20 67.333 60 94c48 32 116 48.667 204 50c65.333 0.666992 124.666 -12 177.999 -38
c58 -28 87.667 -63 89 -105v-34c0.666992 -18 -5.83301 -31.833 -19.5 -41.5s-30.167 -14.5 -49.5 -14.5s-35.333 4.66699 -48 14c-15.333 10 -23 24 -23 42v16c0 16.667 -14.333 29.334 -43 38.001c-24 7.33301 -51.333 11 -82 11
c-38.667 -0.666992 -69.334 -6 -92.001 -16s-34 -21.667 -34 -35v-259c4.66699 -14 19.834 -26.333 45.501 -37s51.5 -16 77.5 -16c38 0.666992 69.667 6.66699 95 18c22 10 33 21.333 33 34v81c0 18 7 32 21 42s30.333 15 49 15c19.333 0 35.833 -5 49.5 -15
s20.5 -24 20.5 -42v-100z" />
    <glyph glyph-name="D" unicode="D" horiz-adv-x="607" 
d="M549 158c0 -32.667 -20.999 -63.333 -62.999 -92c-50.667 -34 -118 -51 -202 -51h-196c-46.667 0 -70 18.667 -70 56v466c0 37.333 23.333 56 70 56h196c65.333 0 123.666 -12.667 174.999 -38c55.333 -26.667 85 -60.667 89 -102zM409.001 171.001v262
c-3.33301 32 -45 48 -125 48h-126v-354h124c36.667 0 67 4.33301 91 13s36 19 36 31z" />
    <glyph glyph-name="E" unicode="E" horiz-adv-x="557" 
d="M339 306h-130c-22 0 -39.167 5.66699 -51.5 17s-18.5 24.333 -18.5 39c0 15.333 6.16699 28.5 18.5 39.5s29.5 16.5 51.5 16.5h130c22.667 0 40.167 -5.5 52.5 -16.5s18.5 -24.167 18.5 -39.5c0 -14.667 -6.16699 -27.667 -18.5 -39s-29.833 -17 -52.5 -17zM454 15
l-196 0.00195312c-65.333 0 -123.666 12.667 -174.999 38c-56 27.333 -86 61.666 -90 102.999v294c0 35.333 20 66.333 60 93c49.333 33.333 117.333 50 204 50h197c22 0 39.667 -6 53 -18c11.333 -10.667 17 -23.334 17 -38.001c0 -15.333 -5.66699 -28.333 -17 -39
c-13.333 -11.333 -31 -17 -53 -17l-195 1c-38.667 0 -69.334 -4.33301 -92.001 -13s-34 -19 -34 -31v-267c4 -14 19.667 -25 47 -33c23.333 -7.33301 49.333 -11 78 -11h196c22 0 39.667 -5.66699 53 -17c11.333 -10.667 17 -23.667 17 -39s-5.66699 -28 -17 -38
c-13.333 -12 -31 -18 -53 -18z" />
    <glyph glyph-name="F" unicode="F" horiz-adv-x="533" 
d="M334 306h-130c-22 0 -39.167 5.66699 -51.5 17s-18.5 24.333 -18.5 39c0 15.333 6.16699 28.5 18.5 39.5s29.5 16.5 51.5 16.5h130c22.667 0 40.167 -5.5 52.5 -16.5s18.5 -24.167 18.5 -39.5c0 -14.667 -6.16699 -27.667 -18.5 -39s-29.833 -17 -52.5 -17zM449 481
l-194.998 1.00098c-38.667 0 -69.334 -4.33301 -92.001 -13s-34 -19 -34 -31v-367c0 -17.333 -6.83301 -31 -20.5 -41s-30.167 -15 -49.5 -15c-18.667 0 -35 5 -49 15s-21 23.667 -21 41v379c0 34.667 20 65.667 60 93c49.333 33.333 117.666 50 204.999 50h196
c22 0 39.667 -6 53 -18c11.333 -10.667 17 -23.334 17 -38.001c0 -15.333 -5.66699 -28.333 -17 -39c-13.333 -11.333 -31 -17 -53 -17z" />
    <glyph glyph-name="G" unicode="G" horiz-adv-x="593" 
d="M542 155c0 -36 -20.333 -67.332 -61 -93.999c-48.667 -32 -116.667 -48.333 -204 -49c-66 -0.666992 -124.667 11.333 -176 36c-56 27.333 -86 62 -90 104v296c0 36.667 20.333 68.667 61 96c48 32 115.667 48 203 48h130c22 0 39.167 -5.5 51.5 -16.5
s18.5 -24.167 18.5 -39.5s-6 -28 -18 -38c-12.667 -12 -30 -18 -52 -18l-128 1c-84 0.666992 -126 -10.333 -126 -33v-293c6 -22.667 47.333 -33.334 124 -32.001c84.667 0.666992 127 11.334 127 32.001v109c0 15.333 -13.333 26.666 -40 33.999
c-18.667 5.33301 -39 8 -61 8h-65c-22 0 -39.167 5.5 -51.5 16.5s-18.5 24.167 -18.5 39.5s6.16699 28.5 18.5 39.5s29.5 16.5 51.5 16.5h65c58.667 0 109.667 -8 153 -24c58 -20.667 87 -52.667 87 -96z" />
    <glyph glyph-name="H" unicode="H" horiz-adv-x="617" 
d="M554 71c0 -17.333 -7 -31 -21 -41s-30.333 -15 -49 -15c-19.333 0 -35.333 4.66699 -48 14c-14.667 10.667 -22 24.667 -22 42v466c0 17.333 7.33301 31.333 22 42c12.667 9.33301 28.667 14 48 14c18.667 0 35 -5 49 -15s21 -23.667 21 -41v-466zM339 306h-100
c-22 0 -39.167 5.66699 -51.5 17s-18.5 24.333 -18.5 39c0 15.333 6.16699 28.5 18.5 39.5s29.5 16.5 51.5 16.5h100c22 0 39.167 -5.5 51.5 -16.5s18.5 -24.167 18.5 -39.5c0 -14.667 -6.16699 -27.667 -18.5 -39s-29.5 -17 -51.5 -17zM163 71c0 -17.333 -7 -31 -21 -41
s-30.333 -15 -49 -15c-19.333 0 -35.333 4.66699 -48 14c-14.667 10.667 -22 24.667 -22 42v466c0 17.333 7.33301 31.333 22 42c12.667 9.33301 28.667 14 48 14c18.667 0 35 -5 49 -15s21 -23.667 21 -41v-466z" />
    <glyph glyph-name="I" unicode="I" horiz-adv-x="270" 
d="M185 71c0 -19.333 -7.16797 -34.5 -21.501 -45.5s-30.833 -16.5 -49.5 -16.5c-19.333 0 -35.666 5.33301 -48.999 16s-20 26 -20 46v465c0 18 7 32 21 42s30.333 15 49 15c19.333 0 35.833 -5 49.5 -15s20.5 -24 20.5 -42v-465z" />
    <glyph glyph-name="J" unicode="J" horiz-adv-x="602" 
d="M548 155c0 -34 -20.998 -64.6641 -62.998 -91.9971c-50 -33.333 -118 -50.333 -204 -51c-66 -0.666992 -125 11.666 -177 36.999c-56 27.333 -85.667 61.666 -89 102.999v58c3.33301 42.667 27.666 64 72.999 64c41.333 0 63.666 -21.333 66.999 -64
c-0.666992 -8.66699 -1 -20 -1 -34c1.33301 -16.667 16 -30.334 44 -41.001c24.667 -8.66699 52 -12.667 82 -12c38 0 69.333 5.66699 94 17c22.667 10 34 21.333 34 34v306h-192c-22 0 -39.167 5.66699 -51.5 17s-18.5 24.333 -18.5 39c0 15.333 6.16699 28.5 18.5 39.5
s29.5 16.5 51.5 16.5h261c47.333 0 71 -18.667 71 -56v-381z" />
    <glyph glyph-name="K" unicode="K" horiz-adv-x="567" 
d="M505 71c0 -17.333 -6.83301 -31.001 -20.5 -41.001s-30.167 -15 -49.5 -15c-18.667 0 -35 5 -49 15s-21 23.667 -21 41v194c0 30 -41.333 45 -124 45c-22 0 -39.333 5.5 -52 16.5s-19 24.167 -19 39.5c0 14.667 6 27.5 18 38.5s29 16.833 51 17.5c84 2 126 16.333 126 43
v72c0 17.333 7 31 21 41s30.333 15 49 15c19.333 0 35.833 -5 49.5 -15s20.5 -23.667 20.5 -41v-85c0 -33.333 -18 -62.666 -54 -87.999c36 -25.333 54 -54 54 -86v-207zM162 70.999c0 -17.333 -6.83301 -31 -20.5 -41s-30.167 -15 -49.5 -15c-18.667 0 -35 5 -49 15
s-21 23.667 -21 41v466c0 17.333 7 31 21 41s30.333 15 49 15c19.333 0 35.833 -5 49.5 -15s20.5 -23.667 20.5 -41v-466z" />
    <glyph glyph-name="L" unicode="L" horiz-adv-x="527" 
d="M449 15h-195c-88.667 0 -153 9 -193 27c-48 21.333 -72 59.333 -72 114v381c0 17.333 7.33301 31.333 22 42c12.667 9.33301 28.667 14 48 14c18.667 0 35 -4.83301 49 -14.5s21 -23.5 21 -41.5l-1 -364c2.66699 -30.667 44.667 -46 126 -46h195
c22.667 0 40.167 -5.5 52.5 -16.5s18.5 -24.167 18.5 -39.5c0 -14.667 -6.16699 -27.667 -18.5 -39s-29.833 -17 -52.5 -17z" />
    <glyph glyph-name="M" unicode="M" horiz-adv-x="740" 
d="M679 66c0 -18 -6.83203 -31.833 -20.499 -41.5s-30.167 -14.5 -49.5 -14.5c-18.667 0 -35 4.83301 -49 14.5s-21 23.5 -21 41.5v401l-124 -216c-16 -28 -37 -42 -63 -42c-26.667 0 -48.334 14 -65.001 42l-126 218v-398c0 -18 -7 -32 -21 -42s-30.333 -15 -49 -15
s-35 5 -49 15s-21 24 -21 42v465c0 37.333 23.333 56 70 56h112c30.667 0 52 -11 64 -33l84 -148l80 144c12 21.333 33.333 32 64 32h114c46.667 0 70 -18.333 70 -55v-466z" />
    <glyph glyph-name="N" unicode="N" horiz-adv-x="633" 
d="M570 71c0 -17.333 -7 -31 -21 -41s-30.333 -15 -49 -15s-35 5 -49 15s-21 23.667 -21 41v466c0 17.333 7 31 21 41s30.333 15 49 15s35 -5 49 -15s21 -23.667 21 -41v-466zM417 302c4.66699 -8.66699 7 -17.334 7 -26.001c0 -15.333 -7.33301 -28.166 -22 -38.499
s-31.667 -15.5 -51 -15.5c-28 0 -48.667 11 -62 33l-126 215v-399c0 -17.333 -7 -31 -21 -41s-30.333 -15 -49 -15c-19.333 0 -35.333 4.66699 -48 14c-14.667 10.667 -22 24.667 -22 42v466c0 37.333 23 56 69 56h113c30 0 51.333 -11 64 -33z" />
    <glyph glyph-name="O" unicode="O" horiz-adv-x="592" 
d="M549 156c0 -35.333 -20.333 -66.667 -61 -94c-48.667 -32 -117 -48.667 -205 -50c-65.333 -0.666992 -123.666 11.666 -174.999 36.999c-56 27.333 -86 62.333 -90 105v299c0 37.333 20 69.333 60 96c48 31.333 115.667 47.666 203 48.999
c65.333 0.666992 125.166 -12.666 179.499 -39.999s83.5 -61.666 87.5 -102.999zM409 168.999v267.001c-1.33301 16.667 -16 29.667 -44 39c-24 7.33301 -51.333 11 -82 11c-83.333 -1.33301 -125 -16.666 -125 -45.999v-271c4 -14.667 19.333 -26.334 46 -35.001
c23.333 -7.33301 49 -11 77 -11c39.333 0.666992 70.5 5.16699 93.5 13.5s34.5 19.166 34.5 32.499z" />
    <glyph glyph-name="P" unicode="P" horiz-adv-x="581" 
d="M536 284c0 -34 -17.998 -63.999 -53.998 -89.999c-45.333 -34 -110.333 -51.333 -195 -52l-66 -1c-22 -0.666992 -39.667 5 -53 17c-11.333 10 -17 22.667 -17 38s6.16699 28.666 18.5 39.999s29.5 17 51.5 17h63c74.667 0 112 14.667 112 44v148
c-1.33301 16 -16.333 26.667 -45 32c-14.667 2.66699 -41.334 4 -80.001 4h-126v-410c0 -17.333 -7 -31 -21 -41s-30.333 -15 -49 -15s-35 5 -49 15s-21 23.667 -21 41v466c0 37.333 23.333 56 70 56h196c65.333 0 123.666 -12.333 174.999 -37
c55.333 -27.333 85 -62 89 -104z" />
    <glyph glyph-name="Q" unicode="Q" horiz-adv-x="620" 
d="M591 16l-326 0.000976562c-68.667 0 -130 14 -184 42s-81 59.667 -81 95v301c0 28.667 12.667 54.667 38 78c30 26.667 74.667 45.667 134 57c29.333 6 60 9 92 9c64.667 0.666992 123 -11.333 175 -36c56 -26.667 86.333 -60.334 91 -101.001l1 -273
c0 -18 -6.83301 -32 -20.5 -42s-30.167 -15 -49.5 -15c-18.667 0 -35 5 -49 15s-21 24 -21 42l-1 241c0 18.667 -15.333 33.334 -46 44.001c-24.667 9.33301 -50.667 13.666 -78 12.999c-83.333 -1.33301 -125 -20.333 -125 -57v-245c0 -16.667 14.667 -30.667 44 -42
c26 -9.33301 52.667 -14 80 -14h326c22 0 39.667 -6 53 -18c11.333 -10 17 -22.667 17 -38s-5.66699 -28.333 -17 -39c-13.333 -11.333 -31 -17 -53 -17z" />
    <glyph glyph-name="R" unicode="R" horiz-adv-x="610" 
d="M551 71c0 -17.333 -6.99902 -31.001 -20.999 -41.001s-30.333 -15 -49 -15c-19.333 0 -35.833 5 -49.5 15s-20.5 23.667 -20.5 41v155c0 9.33301 -7.33301 18.666 -22 27.999s-29.667 15 -45 17c-15.333 4.66699 -50.333 7 -105 7c-22.667 0 -40.334 5.5 -53.001 16.5
s-19 23.833 -19 38.5c0 17.333 7.66699 31.333 23 42c13.333 10 29 15 47 15c50.667 0 87.334 1.66699 110.001 5c42.667 0 64 8 64 24v26c0 24 -42 36 -126 36h-126v-410c0 -17.333 -6.83301 -31 -20.5 -41s-30.167 -15 -49.5 -15c-18.667 0 -35 5 -49 15
s-21 23.667 -21 41v466c0 37.333 23.333 56 70 56h196c64 0 122 -12.667 174 -38c54 -27.333 84.333 -60.666 91 -99.999l1 -36c0.666992 -31.333 -17 -59.666 -53 -84.999c31.333 -24 48.666 -51.667 51.999 -83z" />
    <glyph glyph-name="S" unicode="S" horiz-adv-x="602" 
d="M546 156c0.666992 -34.667 -19.332 -65.6641 -59.999 -92.9971c-48.667 -32.667 -116.667 -49.667 -204 -51c-69.333 -0.666992 -129.333 11.666 -180 36.999c-52.667 26 -81.334 60 -86.001 102v47c0 17.333 7.33301 31.333 22 42c12.667 9.33301 28.667 14 48 14
c18.667 0 35 -5 49 -15s21 -23.667 21 -41v-42c6.66699 -22.667 47.667 -33.667 123 -33c84.667 1.33301 127 12.333 127 33v80c-2.66699 24 -44.334 36 -125.001 36c-67.333 0 -127.333 14.333 -180 43s-81 62 -85 100v38c0 36.667 21 68.667 63 96
c49.333 31.333 116.666 47.666 201.999 48.999c66.667 0.666992 126.334 -12.333 179.001 -39c56 -28 84.333 -62.667 85 -104l1 -34c0.666992 -18 -6 -31.833 -20 -41.5s-30.333 -14.5 -49 -14.5c-19.333 0 -36 4.83301 -50 14.5s-21 23.5 -21 41.5v28
c-2 25.333 -43.333 37.666 -124 36.999c-84 -1.33301 -126 -12.333 -126 -33v-35c6 -22.667 47.667 -34 125 -34c66.667 0 125.334 -12 176.001 -36c54 -26 83.333 -59.667 88 -101z" />
    <glyph glyph-name="T" unicode="T" horiz-adv-x="543" 
d="M448 480l-393 0.000976562c-22 0 -39.167 5.66699 -51.5 17s-18.5 24.333 -18.5 39c0 15.333 6.16699 28.5 18.5 39.5s29.5 16.5 51.5 16.5h393c22 0 39.667 -5.66699 53 -17c11.333 -10.667 17 -23.667 17 -39c0 -14.667 -5.66699 -27.334 -17 -38.001
c-13.333 -12 -31 -18 -53 -18zM318 11.001c-47.333 0 -90.667 9.66699 -130 29c-42.667 20.667 -66 46.667 -70 78v300c0 18 7.33301 32 22 42c12.667 9.33301 28.667 14 48 14c18.667 0 35 -4.83301 49 -14.5s21 -23.5 21 -41.5v-272c2.66699 -6 10.5 -11.333 23.5 -16
s25.167 -7 36.5 -7c22 0 39.167 -5.66699 51.5 -17s18.5 -24.333 18.5 -39c0 -15.333 -6.16699 -28.5 -18.5 -39.5s-29.5 -16.5 -51.5 -16.5z" />
    <glyph glyph-name="U" unicode="U" horiz-adv-x="611" 
d="M551 155c0 -35.333 -19.667 -66.3311 -59 -92.998c-48.667 -32.667 -117.334 -49.334 -206.001 -50.001c-65.333 -1.33301 -124.333 11 -177 37c-55.333 27.333 -85 61.666 -89 102.999v384c0 18 7 32 21 42s30.333 15 49 15c19.333 0 35.833 -5 49.5 -15
s20.5 -24 20.5 -42l-1 -367c2.66699 -32 44.334 -47.333 125.001 -46c84.667 0.666992 127 15.667 127 45v368c0 18 7 32 21 42s30.333 15 49 15c19.333 0 35.833 -5 49.5 -15s20.5 -24 20.5 -42v-381z" />
    <glyph glyph-name="V" unicode="V" horiz-adv-x="608" 
d="M550 254c0 -48.667 -21.333 -97.668 -64 -147.001c-52 -61.333 -119 -92 -201 -92h-197c-46.667 0 -70 18.667 -70 56v466c0 17.333 7 31 21 41s30.333 15 49 15c19.333 0 35.833 -5 49.5 -15s20.5 -23.667 20.5 -41v-410h124c36 0 67 15 93 45
c23.333 26.667 35 56.334 35 89.001v276c0 17.333 7.33301 31.333 22 42c12.667 9.33301 28.667 14 48 14c18.667 0 35 -5 49 -15s21 -23.667 21 -41v-283z" />
    <glyph glyph-name="W" unicode="W" horiz-adv-x="739" 
d="M679 73c0 -37.333 -23.667 -56 -71 -56h-113c-30 0 -51.333 11 -64 33l-80 144l-84 -149c-12 -22 -33.333 -33 -64 -33h-113c-46.667 0 -70 19 -70 57v465c0 18 7 32 21 42s30.333 15 49 15c19.333 0 35.833 -5 49.5 -15s20.5 -24 20.5 -42v-405l127 225
c16 28.667 37.333 43 64 43s48 -14.333 64 -43l124 -221v406c0 17.333 7.33301 31.333 22 42c12.667 9.33301 28.667 14 48 14c18.667 0 35 -5 49 -15s21 -23.667 21 -41v-466z" />
    <glyph glyph-name="X" unicode="X" horiz-adv-x="585" 
d="M523 71c0 -17.333 -6.83301 -31.001 -20.5 -41.001s-30.167 -15 -49.5 -15c-18.667 0 -35 5 -49 15s-21 23.667 -21 41v175c0 12.667 -12.333 23.334 -37 32.001c-21.333 0 -38 5.33301 -50 16s-18 23.667 -18 39s6.33301 28.666 19 39.999s30 17 52 17
c22.667 8.66699 34 19.334 34 32.001v115c0 17.333 7 31 21 41s30.333 15 49 15c19.333 0 35.833 -5 49.5 -15s20.5 -23.667 20.5 -41v-128c0 -30 -11.333 -55.667 -34 -77c22.667 -20.667 34 -45 34 -73v-188zM205 386.999c21.333 -0.666992 37.833 -6.33105 49.5 -16.998
s17.5 -23.334 17.5 -38.001s-6 -27.167 -18 -37.5s-28.667 -15.5 -50 -15.5c-28 -8.66699 -42 -19.667 -42 -33v-175c0 -17.333 -6.83301 -31 -20.5 -41s-30.167 -15 -49.5 -15c-18.667 0 -35 5 -49 15s-21 23.667 -21 41v188c0 28 13.333 53 40 75
c-26.667 22.667 -40 47.667 -40 75v128c0 17.333 7 31 21 41s30.333 15 49 15c19.333 0 35.833 -5 49.5 -15s20.5 -23.667 20.5 -41v-115c0 -12.667 14.333 -24.334 43 -35.001z" />
    <glyph glyph-name="Y" unicode="Y" horiz-adv-x="622" 
d="M565 72c0 -18 -6.83301 -31.833 -20.5 -41.5s-30.167 -14.5 -49.5 -14.5c-18.667 0 -35 4.83301 -49 14.5s-21 23.5 -21 41.5v465c0 18 7 31.833 21 41.5s30.333 14.5 49 14.5c19.333 0 35.833 -4.83301 49.5 -14.5s20.5 -23.5 20.5 -41.5v-465zM349 131h-67.001
c-65.333 0 -124.333 13.333 -177 40c-55.333 28 -84.666 61.333 -87.999 100v266c0 18 6.83301 31.833 20.5 41.5s30.167 14.5 49.5 14.5c18.667 0 35 -4.83301 49 -14.5s21 -23.5 21 -41.5v-250c4 -14 19.667 -25 47 -33c23.333 -7.33301 49.333 -11 78 -11h67
c22 0 39.167 -5.5 51.5 -16.5s18.5 -24.167 18.5 -39.5c0 -14.667 -6.16699 -27.667 -18.5 -39s-29.5 -17 -51.5 -17z" />
    <glyph glyph-name="Z" unicode="Z" horiz-adv-x="576" 
d="M534 447c0 -24 -10.333 -46.667 -31 -68c-10 -10.667 -18.333 -18.334 -25 -23.001c-11.333 -8.66699 -24.333 -15.667 -39 -21l-273 -134c-15.333 -7.33301 -23 -17 -23 -29v-45h320c22 0 39.667 -5.66699 53 -17c11.333 -10.667 17 -23.667 17 -39
s-5.66699 -28 -17 -38c-13.333 -12 -31 -18 -53 -18h-390c-46.667 0 -70 18.667 -70 56v117c0 10.667 2.33301 21.334 7 32.001c4 8 11.333 19.667 22 35c5.33301 6 14.333 13.667 27 23c9.33301 6 21 12.667 35 20l300 150v33h-321c-22 0 -39.167 5.5 -51.5 16.5
s-18.5 24.167 -18.5 39.5s6.16699 28.5 18.5 39.5s29.5 16.5 51.5 16.5h390c47.333 0 71 -18.667 71 -56v-90z" />
    <glyph glyph-name="bracketleft" unicode="[" horiz-adv-x="450" 
d="M335 -72h-261c-46 0 -69 18.667 -69 56v640c0 37.333 23 56 69 56h261c22 0 39.667 -6 53 -18c11.333 -10 17 -22.667 17 -38s-5.66699 -28.333 -17 -39c-13.333 -11.333 -31 -17 -53 -17h-190v-528h190c22 0 39.667 -5.66699 53 -17c11.333 -10.667 17 -23.667 17 -39
s-5.66699 -28 -17 -38c-13.333 -12 -31 -18 -53 -18z" />
    <glyph glyph-name="backslash" unicode="\" horiz-adv-x="541" 
d="M517 71c0 -17.333 -6.83301 -31 -20.5 -41s-30.167 -15 -49.5 -15c-18.667 0 -35 5 -49 15s-21 23.667 -21 41v39l-317 269c-2.66699 2.66699 -21.334 19 -56.001 49l-9 13.5c-3.33301 5 -6.66602 13.833 -9.99902 26.5l-1 69c0 17.333 7.33301 31.333 22 42
c12.667 9.33301 28.667 14 48 14s35.833 -5 49.5 -15s20.5 -23.667 20.5 -41c-1.33301 -32.667 -1.33301 -49.667 0 -51l360 -303c22 -14 33 -31.667 33 -53v-59z" />
    <glyph glyph-name="bracketright" unicode="]" horiz-adv-x="487" 
d="M424 -16c0 -37.333 -23.333 -56 -70 -56h-261c-22 0 -39.667 6 -53 18c-11.333 10 -17 22.667 -17 38s6.16699 28.5 18.5 39.5s29.5 16.5 51.5 16.5h191v528h-191c-22 0 -39.167 5.5 -51.5 16.5s-18.5 24.167 -18.5 39.5s6.16699 28.5 18.5 39.5s29.5 16.5 51.5 16.5h261
c46.667 0 70 -18.667 70 -56v-640z" />
    <glyph glyph-name="asciicircum" unicode="^" horiz-adv-x="585" 
d="M502 581c24.667 -10.667 36.999 -26 36.999 -46c0 -15.333 -6.83301 -29 -20.5 -41s-30.167 -18 -49.5 -18c-12 0 -23.667 2.66699 -35 8l-161 71l-163 -72c-11.333 -5.33301 -23 -8 -35 -8c-19.333 0 -35.666 6 -48.999 18s-20 25.667 -20 41
c0 20.667 12.333 36.667 37 48l196 87c22 10 44.667 9.66699 68 -1z" />
    <glyph glyph-name="underscore" unicode="_" horiz-adv-x="905" 
d="M786 -79h-707c-22 0 -39.333 6 -52 18c-12 10 -18 22.667 -18 38s6.16699 28.5 18.5 39.5s29.5 16.5 51.5 16.5h707c22 0 39.167 -5.5 51.5 -16.5s18.5 -24.167 18.5 -39.5s-6 -28 -18 -38c-12.667 -12 -30 -18 -52 -18z" />
    <glyph glyph-name="grave" unicode="`" horiz-adv-x="253" 
d="M24 695h112l53 -172h-18z" />
    <glyph glyph-name="a" unicode="a" horiz-adv-x="607" 
d="M549 57c0 -37.333 -23.334 -55.999 -70.001 -55.999h-196c-65.333 0 -124 12.667 -176 38c-55.333 27.333 -85 61.666 -89 102.999v26c0 35.333 17.333 66 52 92c44.667 32.667 110 49.667 196 51h65h1c22.667 0 40.167 -5.5 52.5 -16.5s18.5 -24.167 18.5 -39.5
s-6 -28 -18 -38c-12.667 -12 -30.334 -18 -53.001 -18h-1c-2 0 -10 0.333008 -24 1h-39c-42.667 -0.666992 -71 -3.33398 -85 -8.00098c-16.667 -6 -25 -17.667 -25 -35v-7c4.66699 -24.667 46.334 -37 125.001 -37h126v188c0 16.667 -14.667 29.334 -44 38.001
c-23.333 6.66699 -50.666 10 -81.999 10h-195c-22.667 0 -40.167 5.66699 -52.5 17s-18.5 24.333 -18.5 39c0 15.333 6.16699 28.5 18.5 39.5s29.833 16.5 52.5 16.5h195c64.667 0 123 -12.667 175 -38c56.667 -27.333 86.667 -61.333 90 -102z" />
    <glyph glyph-name="b" unicode="b" horiz-adv-x="587" 
d="M539 158c0 -32.667 -21.001 -63.333 -63.001 -92c-51.333 -34 -118.666 -51 -201.999 -51h-197c-46 0 -69 18.667 -69 56v466c0 17.333 7.33301 31.333 22 42c12.667 9.33301 28.667 14 48 14c18.667 0 35 -5 49 -15s21 -23.667 21 -41v-410h124
c36 0 66.667 6.33301 92 19c23.333 11.333 35 24 35 38v132c-3.33301 32 -37.333 48 -102 48h-65c-22 0 -39.667 6 -53 18c-11.333 10 -17 22.667 -17 38s6.16699 28.5 18.5 39.5s29.5 16.5 51.5 16.5h65c64 0 119.167 -12.667 165.5 -38s71.5 -59.333 75.5 -102z" />
    <glyph glyph-name="c" unicode="c" horiz-adv-x="592" 
d="M542 142c0 -34.667 -20 -65.668 -60 -93.001c-49.333 -33.333 -118 -50.333 -206 -51c-64.667 -0.666992 -123.334 12 -176.001 38c-55.333 27.333 -85 60.666 -89 99.999v186c0 36.667 19.667 68.334 59 95.001c48 32 116 48.333 204 49
c64.667 0.666992 123.334 -11.666 176.001 -36.999c56.667 -28 87 -63 91 -105l1 -9c0 -18 -7.5 -32.333 -22.5 -43s-32.5 -16 -52.5 -16c-18 0 -33.333 4.66699 -46 14s-19 22.333 -19 39v3c0 30 -42 44.333 -126 43c-83.333 -1.33301 -125 -16.333 -125 -45v-155
c4 -14 19.333 -25.333 46 -34c24 -8.66699 49.667 -12.667 77 -12c85.333 0.666992 128 11.667 128 33v22c0 17.333 6.33301 30.5 19 39.5s28 13.5 46 13.5c20 0 37.5 -5.33301 52.5 -16s22.5 -25 22.5 -43v-16z" />
    <glyph glyph-name="d" unicode="d" horiz-adv-x="599" 
d="M545 71c0 -37.333 -23.332 -56 -69.999 -56h-196c-65.333 0 -124 12.667 -176 38c-55.333 27.333 -85 61.666 -89 102.999v178c0 34.667 20 65.334 60 92.001c49.333 33.333 117.333 50 204 50h50c22.667 0 40.167 -5.66699 52.5 -17s18.5 -24.666 18.5 -39.999
c0 -14.667 -6.16699 -27.5 -18.5 -38.5s-29.833 -16.5 -52.5 -16.5l-48 1c-38.667 0.666992 -69.334 -3.33301 -92.001 -12s-34 -19.334 -34 -32.001v-150c4 -14 19.667 -25 47 -33c23.333 -7.33301 49.333 -11 78 -11h126v410c0 17.333 7 31 21 41s30.333 15 49 15
c19.333 0 35.833 -5 49.5 -15s20.5 -23.667 20.5 -41v-466z" />
    <glyph glyph-name="e" unicode="e" horiz-adv-x="601" 
d="M546 129c0 -36 -19.999 -65.6689 -59.999 -89.002c-47.333 -27.333 -116 -41.333 -206 -42c-64.667 -0.666992 -123.334 12 -176.001 38c-55.333 27.333 -85 60.666 -89 99.999v186c0 36.667 19.667 68.334 59 95.001c48 32 116.333 48.333 205 49
c65.333 0.666992 124.666 -11.666 177.999 -36.999c58 -28 87.333 -63 88 -105l1 -67c0.666992 -37.333 -22.666 -56 -69.999 -56h-245c-22 0 -39.167 5.5 -51.5 16.5s-18.5 24.167 -18.5 39.5s6.16699 28.5 18.5 39.5s29.5 16.5 51.5 16.5h175c0 29.333 -42 43.333 -126 42
c-83.333 -1.33301 -125 -12.333 -125 -33v-180c6.66699 -23.333 47.667 -34.333 123 -33c85.333 0.666992 128 7.33398 128 20.001v6c0 18 7 31.833 21 41.5s30.333 14.5 49 14.5s35 -4.83301 49 -14.5s21 -23.5 21 -41.5v-6z" />
    <glyph glyph-name="f" unicode="f" horiz-adv-x="437" 
d="M309 193h-87c-22 0 -39.167 5.66699 -51.5 17s-18.5 24.333 -18.5 39c0 15.333 6.16699 28.5 18.5 39.5s29.5 16.5 51.5 16.5h87c22 0 39.167 -5.5 51.5 -16.5s18.5 -24.167 18.5 -39.5c0 -14.667 -6.16699 -27.667 -18.5 -39s-29.5 -17 -51.5 -17zM329 401
l-65.001 -0.000976562c-39.333 0.666992 -70.166 -4.33301 -92.499 -15s-33.5 -25 -33.5 -43v-334c5.33301 -13.333 17.333 -20 36 -20c22 0 39.667 -5.66699 53 -17c11.333 -10.667 17 -23.667 17 -39c0 -14.667 -5.66699 -27.334 -17 -38.001c-13.333 -12 -31 -18 -53 -18
c-44 0 -83 9.83301 -117 29.5s-53.667 45.834 -59 78.501v385c0 35.333 20 66.333 60 93c48 33.333 116 50 204 50h67c22 0 39.167 -5.66699 51.5 -17s18.5 -24.666 18.5 -39.999s-6 -28 -18 -38c-12.667 -12 -30 -17.667 -52 -17z" />
    <glyph glyph-name="g" unicode="g" horiz-adv-x="611" 
d="M551 14c0 -34 -20.6641 -65 -61.9971 -93c-50 -33.333 -117.667 -50 -203 -50l-196 -1c-22.667 0 -40.167 5.5 -52.5 16.5s-18.5 24.167 -18.5 39.5s6.16699 28.5 18.5 39.5s29.833 16.5 52.5 16.5h193c38.667 0 69.667 4.33301 93 13s35 19.334 35 32.001v308l-125 1
c-38.667 0 -69.334 -4.16699 -92.001 -12.5s-34 -18.833 -34 -31.5v-124c7.33301 -25.333 41 -38 101 -38h65c22.667 0 40.167 -5.5 52.5 -16.5s18.5 -24.167 18.5 -39.5s-6 -28 -18 -38c-12.667 -12 -30.334 -18 -53.001 -18h-65c-64.667 0 -119.334 11.667 -164.001 35
c-47.333 25.333 -73 58.666 -77 99.999v151c0 35.333 20 66.333 60 93c49.333 33.333 117.333 50 204 50h197c46.667 0 70 -18.333 70 -55v-378z" />
    <glyph glyph-name="h" unicode="h" horiz-adv-x="593" 
d="M542 71c0 -17.333 -6.99902 -31 -20.999 -41s-30.333 -15 -49 -15c-19.333 0 -35.333 4.66699 -48 14c-14.667 10.667 -22 24.667 -22 42v246c-4 31.333 -41 47.333 -111 48l-65 1c-22 0 -39 5.5 -51 16.5s-18 23.833 -18 38.5c0 15.333 6.16699 28.5 18.5 39.5
s29.5 16.5 51.5 16.5l65 -1c63.333 -0.666992 119.666 -14 168.999 -40s76 -58 80 -96zM151.001 71c0 -17.333 -7 -31 -21 -41s-30.333 -15 -49 -15c-19.333 0 -35.333 4.66699 -48 14c-14.667 10.667 -22 24.667 -22 42v466c0 17.333 7.33301 31.333 22 42
c12.667 9.33301 28.667 14 48 14c18.667 0 35 -5 49 -15s21 -23.667 21 -41v-466z" />
    <glyph glyph-name="i" unicode="i" horiz-adv-x="265" 
d="M183 479c0 -18 -7 -31.833 -21 -41.5s-30.333 -14.5 -49 -14.5c-19.333 0 -35.333 4.66699 -48 14c-14.667 10 -22 24 -22 42v58c0 17.333 7.33301 31.333 22 42c12.667 9.33301 28.667 14 48 14c18.667 0 35 -5 49 -15s21 -23.667 21 -41v-58zM183 69
c0 -17.333 -7 -31 -21 -41s-30.333 -15 -49 -15c-19.333 0 -35.333 4.66699 -48 14c-14.667 10.667 -22 24.667 -22 42v282c0 18 7.33301 32 22 42c12.667 9.33301 28.667 14 48 14c18.667 0 35 -4.83301 49 -14.5s21 -23.5 21 -41.5v-282z" />
    <glyph glyph-name="j" unicode="j" horiz-adv-x="459" 
d="M411 465c0 -18 -7 -32 -21 -42s-30.333 -15 -49 -15c-19.333 0 -35.333 4.66699 -48 14c-14.667 10.667 -22 25 -22 43v57c0 18 7.33301 32.333 22 43c12.667 9.33301 28.667 14 48 14c18.667 0 35 -5 49 -15s21 -24 21 -42v-57zM411 28
c0 -34.667 -20.332 -65.3311 -60.999 -91.998c-49.333 -32.667 -118 -49.334 -206 -50.001l-66 -1c-22 -0.666992 -39.667 5 -53 17c-11.333 10 -17 22.667 -17 38s6.16699 28.666 18.5 39.999s29.5 17 51.5 17h64c39.333 0 70.666 4.16699 93.999 12.5s35 18.833 35 31.5
v301c0 18 7.33301 32 22 42c12.667 9.33301 28.667 14 48 14c18.667 0 35 -4.83301 49 -14.5s21 -23.5 21 -41.5v-314z" />
    <glyph glyph-name="k" unicode="k" horiz-adv-x="549" 
d="M496 71c0 -17.333 -6.83301 -31 -20.5 -41s-30.167 -15 -49.5 -15c-18.667 0 -35 5 -49 15s-21 23.667 -21 41v50c-2.66699 20.667 -25 35.667 -67 45c-14.667 2.66699 -33.5 4 -56.5 4s-40.667 5.66699 -53 17s-18.5 24.666 -18.5 39.999c0 36 23 54.333 69 55
c25.333 0.666992 46.333 2.66699 63 6c42 8 63 20.667 63 38v95c0 17.333 7 31 21 41s30.333 15 49 15s35 -5 49 -15s21 -23.667 21 -41v-108c0 -32.667 -17.667 -61.667 -53 -87c32 -23.333 49.333 -50.666 52 -81.999zM153 71c0 -17.333 -7 -31 -21 -41
s-30.333 -15 -49 -15c-19.333 0 -35.333 4.66699 -48 14c-14.667 10.667 -22 24.667 -22 42v466c0 17.333 7.33301 31.333 22 42c12.667 9.33301 28.667 14 48 14c18.667 0 35 -5 49 -15s21 -23.667 21 -41v-466z" />
    <glyph glyph-name="l" unicode="l" horiz-adv-x="308" 
d="M191 11c-48 0 -89.667 9.83301 -125 29.5s-55 45.5 -59 77.5v418c0 18 7.33301 32.333 22 43c12.667 9.33301 28.667 14 48 14c18.667 0 35 -5 49 -15s21 -24 21 -42v-388c7.33301 -16.667 22 -25 44 -25s39.167 -5.5 51.5 -16.5s18.5 -24.167 18.5 -39.5
s-6.16699 -28.5 -18.5 -39.5s-29.5 -16.5 -51.5 -16.5z" />
    <glyph glyph-name="m" unicode="m" horiz-adv-x="792" 
d="M729 57c0 -18 -6.83398 -32 -20.501 -42s-30.167 -15 -49.5 -15c-18.667 0 -35 5 -49 15s-21 24 -21 42v293l-157 -148c-18.667 -17.333 -37 -26 -55 -26c-17.333 0 -35 8.33301 -53 25l-161 150v-292c0 -17.333 -7 -31 -21 -41s-30.333 -15 -49 -15
c-19.333 0 -35.333 4.66699 -48 14c-14.667 10.667 -22 24.667 -22 42v348c0 37.333 23 56 69 56h106c22 0 40 -6.33301 54 -19l126 -120l122 118c12.667 13.333 30.334 20 53.001 20h106c46.667 0 70 -18.667 70 -56v-349z" />
    <glyph glyph-name="n" unicode="n" horiz-adv-x="612" 
d="M551 57c0 -18 -6.83203 -31.999 -20.499 -41.999s-30.167 -15 -49.5 -15c-18.667 0 -35 5 -49 15s-21 24 -21 42v244c-3.33301 32 -45 48 -125 48h-126v-292c0 -18 -6.83301 -32 -20.5 -42s-30.167 -15 -49.5 -15c-18.667 0 -35 5 -49 15s-21 24 -21 42v349
c0 36.667 23.333 55 70 55h196c65.333 0 123.666 -12.333 174.999 -37c55.333 -26.667 85.333 -61 90 -103v-143.5c0 -81.667 0 -121.834 0 -120.501z" />
    <glyph glyph-name="o" unicode="o" horiz-adv-x="600" 
d="M546 142c0 -34 -20.333 -64.668 -61 -92.001c-49.333 -34 -117.666 -51.333 -204.999 -52c-64.667 -1.33301 -123.334 11.334 -176.001 38.001c-55.333 27.333 -85 60.666 -89 99.999v186c0 36.667 19.667 68.334 59 95.001c48 32 116.333 48.333 205 49
c65.333 0.666992 124.333 -12 177 -38c55.333 -28 85 -62.667 89 -104zM406 141.999l-0.000976562 176c-2.66699 26 -44.667 38.333 -126 37c-83.333 -1.33301 -125 -12.333 -125 -33v-180c6.66699 -23.333 47.334 -34.333 122.001 -33c86 0.666992 129 11.667 129 33z" />
    <glyph glyph-name="p" unicode="p" horiz-adv-x="594" 
d="M542 129c0.666992 -35.333 -19.333 -65.999 -60 -91.999c-48 -30.667 -116.333 -46 -205 -46c-22 0 -39.167 5.5 -51.5 16.5s-18.5 24.167 -18.5 39.5s6.16699 28.5 18.5 39.5s29.5 16.5 51.5 16.5c38 0 68.333 4.16699 91 12.5s34 19.166 34 32.499v151
c0 16 -14.333 26.333 -43 31c-14 2 -41.333 3 -82 3h-126v-323c2.66699 -8 10.667 -16 24 -24s25.333 -12 36 -12c22 0 39.667 -6 53 -18c11.333 -11.333 17 -25 17 -41s-5.66699 -29.667 -17 -41c-13.333 -12 -31 -18 -53 -18c-50 0 -94.667 10.333 -134 31
c-44 24 -66 54.333 -66 91v412c0 36.667 23.333 55 70 55h196c66 0 125.333 -12.333 178 -37c57.333 -27.333 86.333 -62 87 -104v-175z" />
    <glyph glyph-name="q" unicode="q" horiz-adv-x="598" 
d="M544 -74c0 -17.333 -6.83301 -31 -20.5 -41s-30.167 -15 -49.5 -15c-18.667 0 -35 5 -49 15s-21 23.667 -21 41v409l-125 1c-38.667 0 -69.334 -4.16699 -92.001 -12.5s-34 -18.833 -34 -31.5v-145c4 -14.667 19.667 -26.667 47 -36c24.667 -8.66699 50.667 -13 78 -13
h50c22 0 39.167 -5.5 51.5 -16.5s18.5 -24.167 18.5 -39.5s-6 -28 -18 -38c-12.667 -12 -30 -18 -52 -18h-50c-65.333 0 -123.666 13 -174.999 39c-56 27.333 -86 61.666 -90 102.999v177c0 34.667 20 65.334 60 92.001c49.333 33.333 117.333 50 204 50h197
c46.667 0 70 -18.333 70 -55v-466z" />
    <glyph glyph-name="r" unicode="r" horiz-adv-x="435" 
d="M328 349l-64 1c-38.667 0.666992 -69.5 -3.33301 -92.5 -12s-34.5 -19.667 -34.5 -33v-248c0 -18 -6.83301 -32 -20.5 -42s-30.167 -15 -49.5 -15c-18.667 0 -35 5 -49 15s-21 24 -21 42v261c0 36 20.667 67.667 62 95c49.333 32 117 48 203 48h66
c22 0 39.167 -5.5 51.5 -16.5s18.5 -24.167 18.5 -39.5s-6.16699 -28.5 -18.5 -39.5s-29.5 -16.5 -51.5 -16.5z" />
    <glyph glyph-name="s" unicode="s" horiz-adv-x="596" 
d="M544 135c3.33301 -34.667 -16.333 -65.0049 -59 -91.0049c-48.667 -30 -117.667 -45.333 -207 -46c-68.667 -0.666992 -127.334 8.33301 -176.001 27c-55.333 22 -85.333 53.667 -90 95v6c0 18.667 7.33301 33 22 43s31.667 15 51 15c18 0 33.667 -4.5 47 -13.5
s20 -21.5 20 -37.5v-4c0 -6.66699 14.333 -12 43 -16c25.333 -3.33301 52.333 -4.66602 81 -3.99902c85.333 0.666992 128 12.334 128 35.001c0 16 -14 26.667 -42 32c-16 2.66699 -44.333 4 -85 4c-60 0 -114.333 9.33301 -163 28c-68 26 -102 64.667 -102 116v10
c0 36 19.667 65.667 59 89c46.667 28 115 42.333 205 43c69.333 0.666992 128.666 -8.66602 177.999 -27.999c55.333 -22.667 85 -54.334 89 -95.001l1 -9c1.33301 -17.333 -4.66699 -30.666 -18 -39.999s-30 -14 -50 -14c-19.333 0 -36.166 4.33301 -50.499 13
s-21.5 20.334 -21.5 35.001v2c0 6 -14.333 11.833 -43 17.5s-56.334 8.16699 -83.001 7.5c-84 -1.33301 -126 -11.666 -126 -30.999c0 -16 17 -26 51 -30c8.66699 -1.33301 33.334 -2 74.001 -2c80 0 143 -10.667 189 -32c54.667 -25.333 80.334 -64.333 77.001 -117z" />
    <glyph glyph-name="t" unicode="t" horiz-adv-x="425" 
d="M314 356h-98c-22 0 -39.167 5.66699 -51.5 17s-18.5 24.333 -18.5 39c0 15.333 6.16699 28.5 18.5 39.5s29.5 16.5 51.5 16.5h98c22.667 0 40.167 -5.5 52.5 -16.5s18.5 -24.167 18.5 -39.5c0 -14.667 -6.16699 -27.667 -18.5 -39s-29.833 -17 -52.5 -17zM200 3
c-49.333 0 -93.333 10.001 -132 30.001c-41.333 20.667 -64 46.667 -68 78v360c0 18 7 31.833 21 41.5s30.333 14.5 49 14.5c19.333 0 35.833 -4.83301 49.5 -14.5s20.5 -23.5 20.5 -41.5v-331c2.66699 -6 10.5 -11.667 23.5 -17s25.167 -8 36.5 -8
c22 0 39.667 -5.66699 53 -17c11.333 -10.667 17 -23.667 17 -39c0 -14.667 -5.66699 -27.334 -17 -38.001c-13.333 -12 -31 -18 -53 -18z" />
    <glyph glyph-name="u" unicode="u" horiz-adv-x="614" 
d="M553 57c0 -37.333 -23.667 -56 -71 -56h-195c-65.333 0 -124 12.667 -176 38c-56 27.333 -85.667 61.333 -89 102v265c0 18 7.33301 32 22 42c12.667 9.33301 28.667 14 48 14c18.667 0 35 -4.83301 49 -14.5s21 -23.5 21 -41.5l-1 -248c2.66699 -30 44.667 -45 126 -45
h126v293c0 18 7.33301 32 22 42c12.667 9.33301 28.667 14 48 14c18.667 0 35 -4.83301 49 -14.5s21 -23.5 21 -41.5v-349z" />
    <glyph glyph-name="v" unicode="v" horiz-adv-x="608" 
d="M549 144c0 -17.333 -8.33203 -31.667 -24.999 -43l-131 -88c-12.667 -8 -27.334 -12 -44.001 -12h-131c-16.667 0 -31.667 4 -45 12l-130 88c-16.667 10.667 -25 25 -25 43v262c0 18 7 31.833 21 41.5s30.333 14.5 49 14.5c19.333 0 35.833 -4.83301 49.5 -14.5
s20.5 -23.5 20.5 -41.5v-237l86 -56h79l86 57v236c0 18 7 31.833 21 41.5s30.333 14.5 49 14.5c19.333 0 35.833 -4.83301 49.5 -14.5s20.5 -23.5 20.5 -41.5v-262z" />
    <glyph glyph-name="w" unicode="w" horiz-adv-x="790" 
d="M728 62c0 -37.333 -23.667 -56 -71 -56h-104c-21.333 0 -39.333 6.66699 -54 20l-122 118l-126 -120c-13.333 -12.667 -31.333 -19 -54 -19h-105c-46.667 0 -70 18.667 -70 56v348c0 17.333 7 31 21 41s30.333 15 49 15c19.333 0 35.833 -5 49.5 -15
s20.5 -23.667 20.5 -41v-298l162 156c17.333 17.333 35 26 53 26s36 -8.66699 54 -26l157 -149v293c0 18 7.33301 32.333 22 43c12.667 9.33301 28.667 14 48 14c18.667 0 35 -5 49 -15s21 -24 21 -42v-349z" />
    <glyph glyph-name="x" unicode="x" horiz-adv-x="583" 
d="M521 57c0 -18 -7 -31.832 -21 -41.499s-30.333 -14.5 -49 -14.5s-35 4.83301 -49 14.5s-21 23.5 -21 41.5v116c-3.33301 5.33301 -9.33301 10.333 -18 15l-34 12c-35.333 12.667 -53 29.334 -53 50.001s17 37.667 51 51l35 14c5.33301 2 11 5.33301 17 10
c0.666992 0 1.16699 0.166992 1.5 0.5s0.5 27.166 0.5 80.499c0 18 7 31.833 21 41.5s30.333 14.5 49 14.5s35 -4.83301 49 -14.5s21 -23.5 21 -41.5v-80c0 -10.667 -2.33301 -21.667 -7 -33s-7.66699 -18.333 -9 -21c-5.33301 -8.66699 -12 -16.334 -20 -23.001
c24 -22.667 36 -47 36 -73v-119zM216 201.001l-37.002 -14.999c-7.33301 -2.66699 -12.666 -6 -15.999 -10v-119c0 -18 -6.83301 -31.833 -20.5 -41.5s-30.167 -14.5 -49.5 -14.5c-18.667 0 -35 4.83301 -49 14.5s-21 23.5 -21 41.5v119c0 15.333 3 28.666 9 39.999
c8.66699 16 17.667 28.333 27 37c-8.66699 9.33301 -16.334 18.333 -23.001 27c-0.666992 1.33301 -3.33398 7 -8.00098 17c-0.666992 3.33301 -1.66699 9 -3 17l-2 11l-1 80c-0.666992 18 6 32 20 42s30.333 15 49 15s34.834 -4.83301 48.501 -14.5
s20.834 -23.167 21.501 -40.5l2 -77c6.66699 -8 13.334 -13.333 20.001 -16l33 -13c34.667 -13.333 52 -30 52 -50s-17.333 -36.667 -52 -50zM162.998 175.002v1v-1z" />
    <glyph glyph-name="y" unicode="y" horiz-adv-x="615" 
d="M562 -74c0 -17.333 -7 -31 -21 -41s-30.333 -15 -49 -15s-35 5 -49 15s-21 23.667 -21 41v466c0 17.333 7 31 21 41s30.333 15 49 15s35 -5 49 -15s21 -23.667 21 -41v-466zM345 -14h-65.999c-66 0 -125.333 13.333 -178 40c-54.667 28 -84 61.333 -88 100v266
c0 17.333 7 31 21 41s30.333 15 49 15c19.333 0 35.833 -5 49.5 -15s20.5 -23.667 20.5 -41v-251c4 -14 19.667 -25 47 -33c23.333 -6.66699 49.666 -10 78.999 -10h66c22 0 39.667 -5.66699 53 -17c11.333 -10.667 17 -23.667 17 -39s-5.66699 -28 -17 -38
c-13.333 -12 -31 -18 -53 -18z" />
    <glyph glyph-name="z" unicode="z" horiz-adv-x="595" 
d="M543 311c0 -30 -9.33203 -53.333 -27.999 -70c-1.33301 -1.33301 -20.666 -13.333 -57.999 -36c-10.667 -7.33301 -66.334 -15.666 -167.001 -24.999c-92 -9.33301 -138 -20 -138 -32v-35h320c22.667 0 40.167 -5.66699 52.5 -17s18.5 -24.333 18.5 -39
c0 -15.333 -6.16699 -28.5 -18.5 -39.5s-29.833 -16.5 -52.5 -16.5h-390c-46.667 0 -70 18.667 -70 56v104c0 25.333 5 44.666 15 57.999c12.667 17.333 39 35 79 53c15.333 6.66699 71.666 14 168.999 22c85.333 7.33301 128 17.333 128 30v25h-321
c-22 0 -39.167 5.66699 -51.5 17s-18.5 24.333 -18.5 39c0 15.333 6.16699 28.5 18.5 39.5s29.5 16.5 51.5 16.5h390c47.333 0 71 -18.333 71 -55v-95z" />
    <glyph glyph-name="braceleft" unicode="{" horiz-adv-x="547" 
d="M449 -72l-130.999 -0.000976562c-48.667 0 -91.334 8.66699 -128.001 26c-42.667 20.667 -66 49.334 -70 86.001l-2 177c0 7.33301 -0.666992 12.333 -2 15c-2.66699 6 -8 10.167 -16 12.5s-22.667 3.83301 -44 4.5c-45.333 1.33301 -68 19.666 -68 54.999v58
c0 37.333 23.333 56 70 56c16 0 27.667 1.33301 35 4c16 4.66699 25 15.334 27 32.001v112c0 26.667 14 50.667 42 72c35.333 26.667 87 40.667 155 42h132c22 0 39.167 -5.5 51.5 -16.5s18.5 -24.167 18.5 -39.5s-6.16699 -28.5 -18.5 -39.5s-29.5 -16.5 -51.5 -16.5
c6.66699 0 -9 0.333008 -47 1h-83c-17.333 -0.666992 -31.5 -4.16699 -42.5 -10.5s-16.5 -12.833 -16.5 -19.5l-1 -95c-0.666992 -52.667 -22.667 -89.667 -66 -111c26.667 -13.333 45 -31 55 -53c6.66699 -14.667 10 -35.667 10 -63l2 -141c2.66699 -8 10.5 -16 23.5 -24
s24.5 -12 34.5 -12h131c22 0 39.167 -5.5 51.5 -16.5s18.5 -24.167 18.5 -39.5s-6 -28 -18 -38c-12.667 -12 -30 -18 -52 -18z" />
    <glyph glyph-name="bar" unicode="|" horiz-adv-x="270" 
d="M185 -15c0 -18 -7 -31.833 -21 -41.5s-30.333 -14.5 -49 -14.5s-35 4.83301 -49 14.5s-21 23.5 -21 41.5v640c0 18 7 31.833 21 41.5s30.333 14.5 49 14.5s35 -4.83301 49 -14.5s21 -23.5 21 -41.5v-640z" />
    <glyph glyph-name="braceright" unicode="}" horiz-adv-x="575" 
d="M534 304c0 -37.333 -23.334 -55.999 -70.001 -55.999c-40 0 -60 -10.333 -60 -31v-175c0 -26 -14.667 -49.667 -44 -71c-37.333 -27.333 -89.333 -41.333 -156 -42c-33.333 -0.666992 -77.666 -1 -132.999 -1c-22 0 -39.667 6 -53 18c-11.333 10 -17 22.667 -17 38
s6.16699 28.5 18.5 39.5s29.5 16.5 51.5 16.5h130c17.333 0 32.666 3.33301 45.999 10c11.333 6 17 12 17 18v149c0 52 18.667 89.667 56 113c-28 12 -45.667 30.333 -53 55c-2 8.66699 -3 30.334 -3 65.001v91c-1.33301 8 -8.5 14.5 -21.5 19.5s-26.167 7.5 -39.5 7.5h-132
c-22 0 -39.167 5.5 -51.5 16.5s-18.5 24.167 -18.5 39.5s6.16699 28.5 18.5 39.5s29.5 16.5 51.5 16.5h132c49.333 0 93 -9 131 -27c42 -20 65 -47 69 -81l1 -122c0 -10 2.66699 -17 8 -21c8.66699 -6.66699 26.334 -10.334 53.001 -11.001
c46 -0.666992 69 -19.334 69 -56.001v-58z" />
    <glyph glyph-name="asciitilde" unicode="~" horiz-adv-x="1448" 
d="M63 300h2v48h68v29h-18v90h18v32h-18v38h449v-48c-4.66699 9.33301 -12.667 14 -24 14c-31.333 0 -47 -26.333 -47 -79c0 -52 16.333 -78 49 -78c10 0 20.333 6.66699 31 20v-18h25v189h383v-27h35v27h368v-537h-1321v300zM961 348l0.000976562 96
c0 37.333 -16.333 56 -49 56c-16 0 -26.333 -8.33301 -31 -25c-6.66699 16.667 -16.334 25 -29.001 25c-12 0 -21.333 -8.33301 -28 -25v24h-32v-122h-20v-29h72v29h-20v62c0 16 6.66699 24 20 24c10 0 15 -8 15 -24v-91h52v29h-19v62c0 15.333 6.33301 23 19 23
c10.667 0 16 -7.66699 16 -23v-91h34zM1010 273h-58v-193h33v125h3l9 -125h60v193h-33v-125h-3zM492.001 273v-193h80l12 21v64l-9 14v3l9 15v56l-12 20h-80zM846.001 253v-152l10 -21h69l12 21v152l-11 20h-70zM278.001 273v-193h38v85h12v-85h42v78l-16 21v3l16 21v50
l-12 20h-80zM262.001 300h34v57c4.66699 -8 13 -12 25 -12c31.333 0 47 26 47 78s-16.667 78 -50 78c-10 0 -20.333 -7 -31 -21v19h-25v-199zM486.001 422c0 53.333 -18.667 80 -56 80c-36.667 0 -55 -26.667 -55 -80c0 -52 18.333 -78 55 -78c37.333 0 56 26 56 78z
M1212 214h39v39l-10 20h-67l-12 -20v-68l13 -20l37 -9v-39h-10v28h-40v-44l12 -21h66l11 21v74l-13 22l-36 8v34h10v-25zM262.001 80v71l-26 122h-42l-24 -122v-71h38v37h13v-37h41zM475.001 80v71l-24 122h-42l-24 -122v-71h39v37h12v-37h39zM173.001 300h22
c37.333 4 56 28.333 56 73v126h-34v-93c0 -18 -6.66699 -27 -20 -27s-20 9 -20 27v93h-33v-87c0 -44 15.667 -66 47 -66c10 0 18.667 2.66699 26 8c0 -15.333 -9.66699 -23 -29 -23h-15v-31zM694.001 163h27v34h-27v35h27v41h-66v-193h66v43h-27v40zM805.001 160h24v34h-24
v38h24v41h-64v-193h40v80zM1090 232v-152h39v152h22v41h-83v-41h22zM701.001 499l-15 -0.000976562v-24c-7.33301 18 -18.666 27 -33.999 27c-29.333 0 -44 -14.667 -44 -44c0 -18.667 7.66699 -31 23 -37c-16 -6 -24 -17.333 -24 -34c0.666992 -28.667 16 -43 46 -43
c15.333 0 27.166 4.33301 35.499 13s12.5 22.334 12.5 41.001h-15c-2 -12.667 -10.667 -19 -26 -19c-13.333 0 -20 4.66699 -20 14c0 12.667 6.66699 19 20 19h11v18h-11c-13.333 0 -20 5.66699 -20 17s6.66699 17 20 17c12 0 20.667 -7 26 -21h15v56zM1122 496.999h-16.001
v-22c-8 18 -18.333 27 -31 27c-34 0 -51 -26.667 -51 -80c0 -51.333 17.333 -77 52 -77c24.667 0 40 19.667 46 59h-16c-2 -15.333 -10.667 -23 -26 -23s-23 13.667 -23 41c0 28 7.66699 42 23 42c16.667 0 25.334 -9.33301 26.001 -28h16v61zM155 122.999h-23v150h-39v-193
h62v43zM640 79.999v193h-40v-193h40zM758 376.999l-14.999 -0.000976562v66c0 14 5 21 15 21c4 0 8 -2 12 -6l11 34c-5.33301 4.66699 -11 7.33398 -17 8.00098c-14.667 0 -25.334 -8.33301 -32.001 -25v24h-19v-151h45v29zM966.001 498.998v-32h15v-119h35v151h-50z
M293.001 446.998c4 10.667 11 16 21 16c14.667 0 22 -13 22 -39c0 -29.333 -7.66699 -44 -23 -44c-9.33301 0 -16 5.33301 -20 16v51zM453.001 421.998c0 -27.333 -7.66699 -41 -23 -41c-14 0 -21 13.667 -21 41c0 28 7 42 21 42c15.333 0 23 -14 23 -42zM566.001 397.998
c-4 -9.33301 -10.667 -14 -20 -14c-14.667 0 -22 13 -22 39c0 29.333 7.66699 44 23 44c8.66699 0 15 -5.33301 19 -16v-53zM65.001 376.998v90h19v-90h-19zM885.001 116.998v122h11v-122h-11zM65.001 498.998v38h19v-38h-19zM208.001 144.998v20l6 51h2l5 -51v-20h-13z
M424.001 144.998v20l5 51h3l4 -51v-20h-12zM531.001 164.998h12v-48h-12v48zM531.001 196.998v42h12v-42h-12zM316.001 196.998v42h12v-42h-12z" />
    <glyph glyph-name="exclamdown" unicode="&#xa1;" horiz-adv-x="273" 
d="M142 -111c0 -17.333 -6.83301 -31 -20.5 -41s-30.167 -15 -49.5 -15c-18.667 0 -35 5 -49 15s-21 23.667 -21 41v288c0 18 7 32 21 42s30.333 15 49 15c19.333 0 35.833 -5 49.5 -15s20.5 -24 20.5 -42v-288zM142 296c0 -17.333 -6.83301 -30.833 -20.5 -40.5
s-30.167 -14.5 -49.5 -14.5c-18.667 0 -35 4.83301 -49 14.5s-21 23.167 -21 40.5v59c0 17.333 7 31 21 41s30.333 15 49 15c19.333 0 35.833 -5 49.5 -15s20.5 -23.667 20.5 -41v-59z" />
    <glyph glyph-name="brokenbar" unicode="&#xa6;" horiz-adv-x="157" 
d="M79 711v-371h-41v371h41zM79 150v-371h-41v371h41z" />
    <glyph glyph-name="dieresis" unicode="&#xa8;" horiz-adv-x="347" 
d="M242 669c14.667 0 27.168 -5.33203 37.501 -15.999s15.833 -23.667 16.5 -39c0 -15.333 -5.33301 -28.166 -16 -38.499s-23.334 -15.5 -38.001 -15.5c-15.333 0 -28.333 5.16699 -39 15.5s-16 23.166 -16 38.499s5.33301 28.166 16 38.499s23.667 15.833 39 16.5z
M65.001 669.001c15.333 0 28.1689 -5.33203 38.502 -15.999s15.833 -23.667 16.5 -39c0 -15.333 -5.33301 -28.166 -16 -38.499s-23.334 -15.5 -38.001 -15.5c-15.333 0 -28.333 5.16699 -39 15.5s-16 23.166 -16 38.499s5.16699 28.166 15.5 38.499
s23.166 15.833 38.499 16.5z" />
    <glyph glyph-name="copyright" unicode="&#xa9;" horiz-adv-x="650" 
d="M42 284c0 38.667 7.5 75.334 22.5 110.001s35.333 64.834 61 90.501s55.834 46 90.501 61s71.667 22.5 111 22.5c38.667 0 75.334 -7.5 110.001 -22.5s64.834 -35.333 90.501 -61s46 -55.834 61 -90.501s22.5 -71.334 22.5 -110.001c0 -39.333 -7.5 -76.333 -22.5 -111
s-35.333 -64.834 -61 -90.501s-55.834 -46 -90.501 -61s-71.334 -22.5 -110.001 -22.5c-39.333 0 -76.333 7.5 -111 22.5s-64.834 35.333 -90.501 61s-46 55.834 -61 90.501s-22.5 71.667 -22.5 111zM76 283c0 -35.333 6.66699 -68.333 20 -99s31.166 -57.167 53.499 -79.5
s48.833 -40.166 79.5 -53.499s63.667 -20 99 -20c34.667 0 67.334 6.66699 98.001 20s57.5 31.166 80.5 53.499s41.167 48.833 54.5 79.5s20 63.667 20 99c0 34.667 -6.66699 67.334 -20 98.001s-31.5 57.667 -54.5 81s-49.833 41.666 -80.5 54.999s-63.334 20 -98.001 20
c-35.333 0 -68.333 -6.66699 -99 -20s-57.167 -31.666 -79.5 -54.999s-40.166 -50.333 -53.499 -81s-20 -63.334 -20 -98.001zM387 354c-18 24.667 -39.332 37 -63.999 37c-24 0 -43.167 -9.83301 -57.5 -29.5s-21.5 -46.834 -21.5 -81.501
c0 -33.333 7.66699 -60.166 23 -80.499s34.333 -30.5 57 -30.5c11.333 0 22.666 2.83301 33.999 8.5s21 13.5 29 23.5l51 -35c-26 -42.667 -64.333 -64 -115 -64c-20.667 0 -39.667 4.5 -57 13.5s-32.333 21.5 -45 37.5s-22.667 34.833 -30 56.5s-11 45.167 -11 70.5
c0 24.667 3.33301 48 10 70s16.167 41 28.5 57s27.333 28.5 45 37.5s37.5 13.5 59.5 13.5c52.667 0 91.667 -23 117 -69z" />
    <glyph glyph-name="onequarter" unicode="&#xab;" horiz-adv-x="383" 
d="M97 309l105 -49v-61l-160 79v60l160 83v-64zM249 309l104 -49v-61l-159 79v60l159 83v-64z" />
    <glyph glyph-name="logicalnot" unicode="&#xac;" horiz-adv-x="607" 
d="M14 439h540v-203h-40v163h-500v40z" />
    <glyph glyph-name="registered" unicode="&#xae;" horiz-adv-x="553" 
d="M276 537c-28.667 0 -54.3359 -5.16992 -77.0029 -15.5029s-42 -23.666 -58 -39.999s-28.333 -35.166 -37 -56.499s-13 -42.666 -13 -63.999s4.33301 -42.666 13 -63.999s21 -40.166 37 -56.499s35.333 -29.666 58 -39.999s48.334 -15.5 77.001 -15.5
c26.667 0 52.167 4.5 76.5 13.5s45.333 21.5 63 37.5s31.834 34.833 42.501 56.5s16 44.5 16 68.5c0 21.333 -5 42.666 -15 63.999s-23.667 40.166 -41 56.499s-38.166 29.666 -62.499 39.999s-50.833 15.5 -79.5 15.5zM277.998 144.997c-34 0 -65 6 -93 18
s-52.167 28 -72.5 48s-36.166 42.833 -47.499 68.5s-17 52.834 -17 81.501c0 30 5.66699 58 17 84s27.166 49 47.499 69s44.5 35.833 72.5 47.5s59 17.5 93 17.5c33.333 0 64.333 -5.66699 93 -17s53.334 -26.833 74.001 -46.5s36.834 -42.5 48.501 -68.5
s17.5 -54.667 17.5 -86c0 -28.667 -6 -55.834 -18 -81.501s-28.333 -48.5 -49 -68.5s-45.334 -36 -74.001 -48s-59.334 -18 -92.001 -18zM251.998 427.997v-53h39c16 0 24 8.33301 24 25c0 18.667 -8 28 -24 28h-39zM275.998 326.997h-24v-86h-46v234h84
c22 0 39.5 -6.5 52.5 -19.5s19.5 -31.5 19.5 -55.5c0 -15.333 -3 -28 -9 -38s-15.667 -19.333 -29 -28l42 -93h-50z" />
    <glyph glyph-name="degree" unicode="&#xb0;" horiz-adv-x="400" 
d="M180 693c42.667 0 79 -15 109 -45s45 -66.333 45 -109s-15 -78.834 -45 -108.501s-66.333 -44.5 -109 -44.5s-79 14.833 -109 44.5s-45 65.834 -45 108.501c0 43.333 14.833 79.833 44.5 109.5s66.167 44.5 109.5 44.5zM180 651
c-31.333 0 -57.6689 -10.8311 -79.002 -32.498s-32.333 -47.834 -33 -78.501c0 -31.333 10.833 -57.833 32.5 -79.5s48.167 -32.5 79.5 -32.5c30.667 0 56.834 10.833 78.501 32.5s32.5 48.167 32.5 79.5s-10.667 57.666 -32 78.999s-47.666 32 -78.999 32z" />
    <glyph glyph-name="acute" unicode="&#xb4;" horiz-adv-x="221" 
d="M173 695l-148 -172h-17l53 172h112z" />
    <glyph glyph-name="cedilla" unicode="&#xb8;" horiz-adv-x="205" 
d="M92 8l30 -0.000976562l-25 -40c41.333 -9.33301 62.333 -33.666 63 -72.999c0 -26.667 -11.667 -48.667 -35 -66c-20.667 -16 -45 -24 -73 -24c-12 0 -27.667 1 -47 3v22c11.333 -1.33301 19.333 -2 24 -2c16 0 30 5.33301 42 16s18.333 23.667 19 39
c0 24 -13.333 36.333 -40 37c-4 0 -8.33301 -0.333008 -13 -1z" />
    <glyph glyph-name="onehalf" unicode="&#xbb;" horiz-adv-x="395" 
d="M309 311l-104 48v62l160 -79v-60l-160 -83v63zM158 311l-105 48v62l160 -79v-60l-160 -83v63z" />
    <glyph glyph-name="questiondown" unicode="&#xbf;" 
d="M42 19c0 32.667 15.001 58.333 45.001 77c16 10 58.667 27.333 128 52l28 11v15c0 17.333 7 31 21 41s30.333 15 49 15c19.333 0 35.833 -5 49.5 -15s20.5 -23.667 20.5 -41v-37c0 -31.333 -18.667 -55 -56 -71l-129 -55c-11.333 -4 -17 -7.66699 -17 -11
c1.33301 -9.33301 2 -14.333 2 -15c0 -13.333 15 -24.666 45 -33.999c25.333 -7.33301 51.666 -11 78.999 -11c39.333 0.666992 70.333 5.16699 93 13.5s34 18.5 34 30.5v21c0 18 7.33301 32 22 42c12.667 9.33301 28.667 14 48 14c18.667 0 35 -4.83301 49 -14.5
s21 -23.5 21 -41.5v-34c0 -34 -20 -64.667 -60 -92c-48.667 -32.667 -117 -49.667 -205 -51c-46 -0.666992 -90.333 5.66602 -133 18.999c-44.667 13.333 -79 32 -103 56c-20.667 20.667 -31 41.667 -31 63v53zM243.001 356.999c0 18 7 31.833 21 41.5s30.333 14.5 49 14.5
c19.333 0 35.833 -4.83301 49.5 -14.5s20.5 -23.5 20.5 -41.5v-58c0 -18 -6.83301 -31.833 -20.5 -41.5s-30.167 -14.5 -49.5 -14.5c-18.667 0 -35 4.83301 -49 14.5s-21 23.5 -21 41.5v58z" />
    <glyph glyph-name="Agrave" unicode="&#xc0;" 
d="M321 305l-92 0.000976562c-22 0 -39.167 5.66699 -51.5 17s-18.5 24.333 -18.5 39c0 15.333 6.16699 28.5 18.5 39.5s29.5 16.5 51.5 16.5h92c22 0 39.667 -5.66699 53 -17c11.333 -10.667 17 -23.667 17 -39c0 -14.667 -5.66699 -27.334 -17 -38.001
c-13.333 -12 -31 -18 -53 -18zM543 72.001c0 -18 -6.83301 -32.001 -20.5 -42.001s-29.834 -15 -48.501 -15c-19.333 0 -36 5 -50 15s-21 24 -21 42v379c0 24.667 -41.333 36.334 -124 35.001c-84.667 -0.666992 -127 -11 -127 -31l2 -383c0 -18 -6.83301 -32 -20.5 -42
s-30.167 -15 -49.5 -15c-18.667 0 -35 5 -49 15s-21 24 -21 42l-2 383c0 34 20 64.667 60 92c48.667 32.667 116.667 49.667 204 51c64.667 1.33301 123.334 -11 176.001 -37c56.667 -28 87 -62.667 91 -104v-385zM179 840h112l53 -172h-18z" />
    <glyph glyph-name="Aacute" unicode="&#xc1;" 
d="M321 305l-92 0.000976562c-22 0 -39.167 5.66699 -51.5 17s-18.5 24.333 -18.5 39c0 15.333 6.16699 28.5 18.5 39.5s29.5 16.5 51.5 16.5h92c22 0 39.667 -5.66699 53 -17c11.333 -10.667 17 -23.667 17 -39c0 -14.667 -5.66699 -27.334 -17 -38.001
c-13.333 -12 -31 -18 -53 -18zM543 72.001c0 -18 -6.83301 -32.001 -20.5 -42.001s-29.834 -15 -48.501 -15c-19.333 0 -36 5 -50 15s-21 24 -21 42v379c0 24.667 -41.333 36.334 -124 35.001c-84.667 -0.666992 -127 -11 -127 -31l2 -383c0 -18 -6.83301 -32 -20.5 -42
s-30.167 -15 -49.5 -15c-18.667 0 -35 5 -49 15s-21 24 -21 42l-2 383c0 34 20 64.667 60 92c48.667 32.667 116.667 49.667 204 51c64.667 1.33301 123.334 -11 176.001 -37c56.667 -28 87 -62.667 91 -104v-385zM351 841l-148 -172h-17l53 172h112z" />
    <glyph glyph-name="Acircumflex" unicode="&#xc2;" 
d="M321 305l-92 0.000976562c-22 0 -39.167 5.66699 -51.5 17s-18.5 24.333 -18.5 39c0 15.333 6.16699 28.5 18.5 39.5s29.5 16.5 51.5 16.5h92c22 0 39.667 -5.66699 53 -17c11.333 -10.667 17 -23.667 17 -39c0 -14.667 -5.66699 -27.334 -17 -38.001
c-13.333 -12 -31 -18 -53 -18zM543 72.001c0 -18 -6.83301 -32.001 -20.5 -42.001s-29.834 -15 -48.501 -15c-19.333 0 -36 5 -50 15s-21 24 -21 42v379c0 24.667 -41.333 36.334 -124 35.001c-84.667 -0.666992 -127 -11 -127 -31l2 -383c0 -18 -6.83301 -32 -20.5 -42
s-30.167 -15 -49.5 -15c-18.667 0 -35 5 -49 15s-21 24 -21 42l-2 383c0 34 20 64.667 60 92c48.667 32.667 116.667 49.667 204 51c64.667 1.33301 123.334 -11 176.001 -37c56.667 -28 87 -62.667 91 -104v-385zM239 839h92l95 -166h-16l-136 107l-115 -107h-15z" />
    <glyph glyph-name="Atilde" unicode="&#xc3;" 
d="M321 305l-92 0.000976562c-22 0 -39.167 5.66699 -51.5 17s-18.5 24.333 -18.5 39c0 15.333 6.16699 28.5 18.5 39.5s29.5 16.5 51.5 16.5h92c22 0 39.667 -5.66699 53 -17c11.333 -10.667 17 -23.667 17 -39c0 -14.667 -5.66699 -27.334 -17 -38.001
c-13.333 -12 -31 -18 -53 -18zM543 72.001c0 -18 -6.83301 -32.001 -20.5 -42.001s-29.834 -15 -48.501 -15c-19.333 0 -36 5 -50 15s-21 24 -21 42v379c0 24.667 -41.333 36.334 -124 35.001c-84.667 -0.666992 -127 -11 -127 -31l2 -383c0 -18 -6.83301 -32 -20.5 -42
s-30.167 -15 -49.5 -15c-18.667 0 -35 5 -49 15s-21 24 -21 42l-2 383c0 34 20 64.667 60 92c48.667 32.667 116.667 49.667 204 51c64.667 1.33301 123.334 -11 176.001 -37c56.667 -28 87 -62.667 91 -104v-385zM130 711l-15.999 0.000976562
c2 85.333 33.333 128.333 94 129c24 0 57.667 -14 101 -42c27.333 -18 47.666 -27 60.999 -27c24 0 40 23 48 69h15c0 -56 -16 -94.667 -48 -116c-15.333 -10 -31 -15 -47 -15c-26 0 -58.667 13.333 -98 40c-30 20 -51.333 30 -64 30c-13.333 0 -24 -6 -32 -18
c-3.33301 -4.66699 -8 -21.334 -14 -50.001z" />
    <glyph glyph-name="Adieresis" unicode="&#xc4;" 
d="M321 305l-92 0.000976562c-22 0 -39.167 5.66699 -51.5 17s-18.5 24.333 -18.5 39c0 15.333 6.16699 28.5 18.5 39.5s29.5 16.5 51.5 16.5h92c22 0 39.667 -5.66699 53 -17c11.333 -10.667 17 -23.667 17 -39c0 -14.667 -5.66699 -27.334 -17 -38.001
c-13.333 -12 -31 -18 -53 -18zM543 72.001c0 -18 -6.83301 -32.001 -20.5 -42.001s-29.834 -15 -48.501 -15c-19.333 0 -36 5 -50 15s-21 24 -21 42v379c0 24.667 -41.333 36.334 -124 35.001c-84.667 -0.666992 -127 -11 -127 -31l2 -383c0 -18 -6.83301 -32 -20.5 -42
s-30.167 -15 -49.5 -15c-18.667 0 -35 5 -49 15s-21 24 -21 42l-2 383c0 34 20 64.667 60 92c48.667 32.667 116.667 49.667 204 51c64.667 1.33301 123.334 -11 176.001 -37c56.667 -28 87 -62.667 91 -104v-385zM362 839c14.667 0 27.168 -5.33203 37.501 -15.999
s15.833 -23.667 16.5 -39c0 -15.333 -5.33301 -28.166 -16 -38.499s-23.334 -15.5 -38.001 -15.5c-15.333 0 -28.333 5.16699 -39 15.5s-16 23.166 -16 38.499s5.33301 28.166 16 38.499s23.667 15.833 39 16.5zM185.001 839.001c15.333 0 28.1689 -5.33203 38.502 -15.999
s15.833 -23.667 16.5 -39c0 -15.333 -5.33301 -28.166 -16 -38.499s-23.334 -15.5 -38.001 -15.5c-15.333 0 -28.333 5.16699 -39 15.5s-16 23.166 -16 38.499s5.16699 28.166 15.5 38.499s23.166 15.833 38.499 16.5z" />
    <glyph glyph-name="Aring" unicode="&#xc5;" 
d="M321 305l-92 0.000976562c-22 0 -39.167 5.66699 -51.5 17s-18.5 24.333 -18.5 39c0 15.333 6.16699 28.5 18.5 39.5s29.5 16.5 51.5 16.5h92c22 0 39.667 -5.66699 53 -17c11.333 -10.667 17 -23.667 17 -39c0 -14.667 -5.66699 -27.334 -17 -38.001
c-13.333 -12 -31 -18 -53 -18zM543 72.001c0 -18 -6.83301 -32.001 -20.5 -42.001s-29.834 -15 -48.501 -15c-19.333 0 -36 5 -50 15s-21 24 -21 42v379c0 24.667 -41.333 36.334 -124 35.001c-84.667 -0.666992 -127 -11 -127 -31l2 -383c0 -18 -6.83301 -32 -20.5 -42
s-30.167 -15 -49.5 -15c-18.667 0 -35 5 -49 15s-21 24 -21 42l-2 383c0 34 20 64.667 60 92c48.667 32.667 116.667 49.667 204 51c64.667 1.33301 123.334 -11 176.001 -37c56.667 -28 87 -62.667 91 -104v-385zM263 848c26.667 0 49.1689 -9.16797 67.502 -27.501
s27.833 -40.833 28.5 -67.5c0 -27.333 -9.33301 -50.166 -28 -68.499s-41.334 -27.5 -68.001 -27.5c-26.667 -0.666992 -49.167 8.33301 -67.5 27s-27.833 41.667 -28.5 69c0 26.667 9.16699 49.167 27.5 67.5s41.166 27.5 68.499 27.5zM263.002 813.999
c-17.333 0 -31.833 -6 -43.5 -18s-17.5 -26.333 -17.5 -43c-0.666992 -17.333 5 -31.833 17 -43.5s26.667 -17.5 44 -17.5c16.667 0 31 5.83301 43 17.5s18 26.167 18 43.5c0 16.667 -6 31 -18 43s-26.333 18 -43 18z" />
    <glyph glyph-name="AE" unicode="&#xc6;" horiz-adv-x="1012" 
d="M316 305l-92 0.000976562c-22 0 -39.167 5.66699 -51.5 17s-18.5 24.333 -18.5 39c0 15.333 6.16699 28.5 18.5 39.5s29.5 16.5 51.5 16.5h92c22 0 39.667 -5.66699 53 -17c11.333 -10.667 17 -23.667 17 -39c0 -14.667 -5.66699 -27.334 -17 -38.001
c-13.333 -12 -31 -18 -53 -18zM538 72.001c0 -18 -6.83301 -32.001 -20.5 -42.001s-29.834 -15 -48.501 -15c-19.333 0 -36 5 -50 15s-21 24 -21 42v379c0 24.667 -41.333 36.334 -124 35.001c-84.667 -0.666992 -127 -11 -127 -31l2 -383c0 -18 -6.83301 -32 -20.5 -42
s-30.167 -15 -49.5 -15c-18.667 0 -35 5 -49 15s-21 24 -21 42l-2 383c0 34 20 64.667 60 92c48.667 32.667 116.667 49.667 204 51c64.667 1.33301 123.334 -11 176.001 -37c56.667 -28 87 -62.667 91 -104v-385zM735 306h-130c-22 0 -39.167 5.66699 -51.5 17
s-18.5 24.333 -18.5 39c0 15.333 6.16699 28.5 18.5 39.5s29.5 16.5 51.5 16.5h130c22.667 0 40.167 -5.5 52.5 -16.5s18.5 -24.167 18.5 -39.5c0 -14.667 -6.16699 -27.667 -18.5 -39s-29.833 -17 -52.5 -17zM850 15l-196 0.00195312
c-65.333 0 -123.666 12.667 -174.999 38c-56 27.333 -86 61.666 -90 102.999v294c0 35.333 20 66.333 60 93c49.333 33.333 117.333 50 204 50h197c22 0 39.667 -6 53 -18c11.333 -10.667 17 -23.334 17 -38.001c0 -15.333 -5.66699 -28.333 -17 -39
c-13.333 -11.333 -31 -17 -53 -17l-195 1c-38.667 0 -69.334 -4.33301 -92.001 -13s-34 -19 -34 -31v-267c4 -14 19.667 -25 47 -33c23.333 -7.33301 49.333 -11 78 -11h196c22 0 39.667 -5.66699 53 -17c11.333 -10.667 17 -23.667 17 -39s-5.66699 -28 -17 -38
c-13.333 -12 -31 -18 -53 -18z" />
    <glyph glyph-name="Ccedilla" unicode="&#xc7;" 
d="M543 156c0 -34 -20 -64.6689 -60 -92.002c-49.333 -33.333 -117.666 -50.666 -204.999 -51.999c-64.667 -0.666992 -124 12.5 -178 39.5s-83.333 60.167 -88 99.5v303c0 36 20 67.333 60 94c48 32 116 48.667 204 50c65.333 0.666992 124.666 -12 177.999 -38
c58 -28 87.667 -63 89 -105v-34c0.666992 -18 -5.83301 -31.833 -19.5 -41.5s-30.167 -14.5 -49.5 -14.5s-35.333 4.66699 -48 14c-15.333 10 -23 24 -23 42v16c0 16.667 -14.333 29.334 -43 38.001c-24 7.33301 -51.333 11 -82 11
c-38.667 -0.666992 -69.334 -6 -92.001 -16s-34 -21.667 -34 -35v-259c4.66699 -14 19.834 -26.333 45.501 -37s51.5 -16 77.5 -16c38 0.666992 69.667 6.66699 95 18c22 10 33 21.333 33 34v81c0 18 7 32 21 42s30.333 15 49 15c19.333 0 35.833 -5 49.5 -15
s20.5 -24 20.5 -42v-100zM307 27.998l30 -0.000976562l-25 -40c41.333 -9.33301 62.333 -33.666 63 -72.999c0 -26.667 -11.667 -48.667 -35 -66c-20.667 -16 -45 -24 -73 -24c-12 0 -27.667 1 -47 3v22c11.333 -1.33301 19.333 -2 24 -2c16 0 30 5.33301 42 16
s18.333 23.667 19 39c0 24 -13.333 36.333 -40 37c-4 0 -8.33301 -0.333008 -13 -1z" />
    <glyph glyph-name="Egrave" unicode="&#xc8;" 
d="M344 306h-130c-22 0 -39.167 5.66699 -51.5 17s-18.5 24.333 -18.5 39c0 15.333 6.16699 28.5 18.5 39.5s29.5 16.5 51.5 16.5h130c22.667 0 40.167 -5.5 52.5 -16.5s18.5 -24.167 18.5 -39.5c0 -14.667 -6.16699 -27.667 -18.5 -39s-29.833 -17 -52.5 -17zM459 15
l-196 0.00195312c-65.333 0 -123.666 12.667 -174.999 38c-56 27.333 -86 61.666 -90 102.999v294c0 35.333 20 66.333 60 93c49.333 33.333 117.333 50 204 50h197c22 0 39.667 -6 53 -18c11.333 -10.667 17 -23.334 17 -38.001c0 -15.333 -5.66699 -28.333 -17 -39
c-13.333 -11.333 -31 -17 -53 -17l-195 1c-38.667 0 -69.334 -4.33301 -92.001 -13s-34 -19 -34 -31v-267c4 -14 19.667 -25 47 -33c23.333 -7.33301 49.333 -11 78 -11h196c22 0 39.667 -5.66699 53 -17c11.333 -10.667 17 -23.667 17 -39s-5.66699 -28 -17 -38
c-13.333 -12 -31 -18 -53 -18zM216 837.002h112l53 -172h-18z" />
    <glyph glyph-name="Eacute" unicode="&#xc9;" 
d="M344 306h-130c-22 0 -39.167 5.66699 -51.5 17s-18.5 24.333 -18.5 39c0 15.333 6.16699 28.5 18.5 39.5s29.5 16.5 51.5 16.5h130c22.667 0 40.167 -5.5 52.5 -16.5s18.5 -24.167 18.5 -39.5c0 -14.667 -6.16699 -27.667 -18.5 -39s-29.833 -17 -52.5 -17zM459 15
l-196 0.00195312c-65.333 0 -123.666 12.667 -174.999 38c-56 27.333 -86 61.666 -90 102.999v294c0 35.333 20 66.333 60 93c49.333 33.333 117.333 50 204 50h197c22 0 39.667 -6 53 -18c11.333 -10.667 17 -23.334 17 -38.001c0 -15.333 -5.66699 -28.333 -17 -39
c-13.333 -11.333 -31 -17 -53 -17l-195 1c-38.667 0 -69.334 -4.33301 -92.001 -13s-34 -19 -34 -31v-267c4 -14 19.667 -25 47 -33c23.333 -7.33301 49.333 -11 78 -11h196c22 0 39.667 -5.66699 53 -17c11.333 -10.667 17 -23.667 17 -39s-5.66699 -28 -17 -38
c-13.333 -12 -31 -18 -53 -18zM382 843.002l-148 -172h-17l53 172h112z" />
    <glyph glyph-name="Ecircumflex" unicode="&#xca;" 
d="M344 306h-130c-22 0 -39.167 5.66699 -51.5 17s-18.5 24.333 -18.5 39c0 15.333 6.16699 28.5 18.5 39.5s29.5 16.5 51.5 16.5h130c22.667 0 40.167 -5.5 52.5 -16.5s18.5 -24.167 18.5 -39.5c0 -14.667 -6.16699 -27.667 -18.5 -39s-29.833 -17 -52.5 -17zM459 15
l-196 0.00195312c-65.333 0 -123.666 12.667 -174.999 38c-56 27.333 -86 61.666 -90 102.999v294c0 35.333 20 66.333 60 93c49.333 33.333 117.333 50 204 50h197c22 0 39.667 -6 53 -18c11.333 -10.667 17 -23.334 17 -38.001c0 -15.333 -5.66699 -28.333 -17 -39
c-13.333 -11.333 -31 -17 -53 -17l-195 1c-38.667 0 -69.334 -4.33301 -92.001 -13s-34 -19 -34 -31v-267c4 -14 19.667 -25 47 -33c23.333 -7.33301 49.333 -11 78 -11h196c22 0 39.667 -5.66699 53 -17c11.333 -10.667 17 -23.667 17 -39s-5.66699 -28 -17 -38
c-13.333 -12 -31 -18 -53 -18zM266 842.002h92l95 -166h-16l-136 107l-115 -107h-15z" />
    <glyph glyph-name="Edieresis" unicode="&#xcb;" 
d="M344 306h-130c-22 0 -39.167 5.66699 -51.5 17s-18.5 24.333 -18.5 39c0 15.333 6.16699 28.5 18.5 39.5s29.5 16.5 51.5 16.5h130c22.667 0 40.167 -5.5 52.5 -16.5s18.5 -24.167 18.5 -39.5c0 -14.667 -6.16699 -27.667 -18.5 -39s-29.833 -17 -52.5 -17zM459 15
l-196 0.00195312c-65.333 0 -123.666 12.667 -174.999 38c-56 27.333 -86 61.666 -90 102.999v294c0 35.333 20 66.333 60 93c49.333 33.333 117.333 50 204 50h197c22 0 39.667 -6 53 -18c11.333 -10.667 17 -23.334 17 -38.001c0 -15.333 -5.66699 -28.333 -17 -39
c-13.333 -11.333 -31 -17 -53 -17l-195 1c-38.667 0 -69.334 -4.33301 -92.001 -13s-34 -19 -34 -31v-267c4 -14 19.667 -25 47 -33c23.333 -7.33301 49.333 -11 78 -11h196c22 0 39.667 -5.66699 53 -17c11.333 -10.667 17 -23.667 17 -39s-5.66699 -28 -17 -38
c-13.333 -12 -31 -18 -53 -18zM376 844.002c14.667 0 27.168 -5.33203 37.501 -15.999s15.833 -23.667 16.5 -39c0 -15.333 -5.33301 -28.166 -16 -38.499s-23.334 -15.5 -38.001 -15.5c-15.333 0 -28.333 5.16699 -39 15.5s-16 23.166 -16 38.499s5.33301 28.166 16 38.499
s23.667 15.833 39 16.5zM199.001 844.003c15.333 0 28.1689 -5.33203 38.502 -15.999s15.833 -23.667 16.5 -39c0 -15.333 -5.33301 -28.166 -16 -38.499s-23.334 -15.5 -38.001 -15.5c-15.333 0 -28.333 5.16699 -39 15.5s-16 23.166 -16 38.499
s5.16699 28.166 15.5 38.499s23.166 15.833 38.499 16.5z" />
    <glyph glyph-name="Igrave" unicode="&#xcc;" horiz-adv-x="271" 
d="M158 71c0 -19.333 -7.16797 -34.5 -21.501 -45.5s-30.833 -16.5 -49.5 -16.5c-19.333 0 -35.666 5.33301 -48.999 16s-20 26 -20 46v465c0 18 7 32 21 42s30.333 15 49 15c19.333 0 35.833 -5 49.5 -15s20.5 -24 20.5 -42v-465zM-1.00098 838h112l53 -172h-18z" />
    <glyph glyph-name="Iacute" unicode="&#xcd;" horiz-adv-x="242" 
d="M135 71c0 -19.333 -7.16797 -34.5 -21.501 -45.5s-30.833 -16.5 -49.5 -16.5c-19.333 0 -35.666 5.33301 -48.999 16s-20 26 -20 46v465c0 18 7 32 21 42s30.333 15 49 15c19.333 0 35.833 -5 49.5 -15s20.5 -24 20.5 -42v-465zM162.999 843l-148 -172h-17l53 172h112z
" />
    <glyph glyph-name="Icircumflex" unicode="&#xce;" horiz-adv-x="235" 
d="M114 71c0 -19.333 -7.16797 -34.5 -21.501 -45.5s-30.833 -16.5 -49.5 -16.5c-19.333 0 -35.666 5.33301 -48.999 16s-20 26 -20 46v465c0 18 7 32 21 42s30.333 15 49 15c19.333 0 35.833 -5 49.5 -15s20.5 -24 20.5 -42v-465zM31.999 845h92l95 -166h-16l-136 107
l-115 -107h-15z" />
    <glyph glyph-name="Idieresis" unicode="&#xcf;" horiz-adv-x="250" 
d="M142 71c0 -19.333 -7.16797 -34.5 -21.501 -45.5s-30.833 -16.5 -49.5 -16.5c-19.333 0 -35.666 5.33301 -48.999 16s-20 26 -20 46v465c0 18 7 32 21 42s30.333 15 49 15c19.333 0 35.833 -5 49.5 -15s20.5 -24 20.5 -42v-465zM176.999 845
c14.667 0 27.168 -5.33203 37.501 -15.999s15.833 -23.667 16.5 -39c0 -15.333 -5.33301 -28.166 -16 -38.499s-23.334 -15.5 -38.001 -15.5c-15.333 0 -28.333 5.16699 -39 15.5s-16 23.166 -16 38.499s5.33301 28.166 16 38.499s23.667 15.833 39 16.5zM0 845.001
c15.333 0 28.1689 -5.33203 38.502 -15.999s15.833 -23.667 16.5 -39c0 -15.333 -5.33301 -28.166 -16 -38.499s-23.334 -15.5 -38.001 -15.5c-15.333 0 -28.333 5.16699 -39 15.5s-16 23.166 -16 38.499s5.16699 28.166 15.5 38.499s23.166 15.833 38.499 16.5z" />
    <glyph glyph-name="Eth" unicode="&#xd0;" 
d="M585 158c0 -32.667 -21.332 -63.333 -63.999 -92c-50.667 -34 -117.667 -51 -201 -51h-197c-46.667 0 -70 18.667 -70 56v466c0 37.333 23.333 56 70 56h196c65.333 0 123.666 -12.667 174.999 -38c55.333 -26.667 85.333 -60.667 90 -102zM445.001 171.001v262
c-4 32 -46 48 -126 48h-126v-354h124c37.333 0 68 4.33301 92 13s36 19 36 31zM301.001 240.001h-278c-16 0 -28.333 5.5 -37 16.5s-13 23.833 -13 38.5c0 15.333 4.33301 28.5 13 39.5s21 16.5 37 16.5h278c16 0 28.333 -5.5 37 -16.5s13 -24.167 13 -39.5
c0 -14.667 -4.33301 -27.5 -13 -38.5s-21 -16.5 -37 -16.5z" />
    <glyph glyph-name="Ntilde" unicode="&#xd1;" 
d="M551 71c0 -17.333 -7 -31 -21 -41s-30.333 -15 -49 -15s-35 5 -49 15s-21 23.667 -21 41v466c0 17.333 7 31 21 41s30.333 15 49 15s35 -5 49 -15s21 -23.667 21 -41v-466zM398 302c4.66699 -8.66699 7 -17.334 7 -26.001c0 -15.333 -7.33301 -28.166 -22 -38.499
s-31.667 -15.5 -51 -15.5c-28 0 -48.667 11 -62 33l-126 215v-399c0 -17.333 -7 -31 -21 -41s-30.333 -15 -49 -15c-19.333 0 -35.333 4.66699 -48 14c-14.667 10.667 -22 24.667 -22 42v466c0 37.333 23 56 69 56h113c30 0 51.333 -11 64 -33zM155 719l-15.999 0.000976562
c2 85.333 33.333 128.333 94 129c24 0 57.667 -14 101 -42c27.333 -18 47.666 -27 60.999 -27c24 0 40 23 48 69h15c0 -56 -16 -94.667 -48 -116c-15.333 -10 -31 -15 -47 -15c-26 0 -58.667 13.333 -98 40c-30 20 -51.333 30 -64 30c-13.333 0 -24 -6 -32 -18
c-3.33301 -4.66699 -8 -21.334 -14 -50.001z" />
    <glyph glyph-name="Ograve" unicode="&#xd2;" 
d="M544 156c0 -35.333 -20.333 -66.667 -61 -94c-48.667 -32 -117 -48.667 -205 -50c-65.333 -0.666992 -123.666 11.666 -174.999 36.999c-56 27.333 -86 62.333 -90 105v299c0 37.333 20 69.333 60 96c48 31.333 115.667 47.666 203 48.999
c65.333 0.666992 125.166 -12.666 179.499 -39.999s83.5 -61.666 87.5 -102.999zM404 168.999v267.001c-1.33301 16.667 -16 29.667 -44 39c-24 7.33301 -51.333 11 -82 11c-83.333 -1.33301 -125 -16.666 -125 -45.999v-271c4 -14.667 19.333 -26.334 46 -35.001
c23.333 -7.33301 49 -11 77 -11c39.333 0.666992 70.5 5.16699 93.5 13.5s34.5 19.166 34.5 32.499zM189 839h112l53 -172h-18z" />
    <glyph glyph-name="Oacute" unicode="&#xd3;" 
d="M544 156c0 -35.333 -20.333 -66.667 -61 -94c-48.667 -32 -117 -48.667 -205 -50c-65.333 -0.666992 -123.666 11.666 -174.999 36.999c-56 27.333 -86 62.333 -90 105v299c0 37.333 20 69.333 60 96c48 31.333 115.667 47.666 203 48.999
c65.333 0.666992 125.166 -12.666 179.499 -39.999s83.5 -61.666 87.5 -102.999zM404 168.999v267.001c-1.33301 16.667 -16 29.667 -44 39c-24 7.33301 -51.333 11 -82 11c-83.333 -1.33301 -125 -16.666 -125 -45.999v-271c4 -14.667 19.333 -26.334 46 -35.001
c23.333 -7.33301 49 -11 77 -11c39.333 0.666992 70.5 5.16699 93.5 13.5s34.5 19.166 34.5 32.499zM356 845l-148 -172h-17l53 172h112z" />
    <glyph glyph-name="Ocircumflex" unicode="&#xd4;" 
d="M544 156c0 -35.333 -20.333 -66.667 -61 -94c-48.667 -32 -117 -48.667 -205 -50c-65.333 -0.666992 -123.666 11.666 -174.999 36.999c-56 27.333 -86 62.333 -90 105v299c0 37.333 20 69.333 60 96c48 31.333 115.667 47.666 203 48.999
c65.333 0.666992 125.166 -12.666 179.499 -39.999s83.5 -61.666 87.5 -102.999zM404 168.999v267.001c-1.33301 16.667 -16 29.667 -44 39c-24 7.33301 -51.333 11 -82 11c-83.333 -1.33301 -125 -16.666 -125 -45.999v-271c4 -14.667 19.333 -26.334 46 -35.001
c23.333 -7.33301 49 -11 77 -11c39.333 0.666992 70.5 5.16699 93.5 13.5s34.5 19.166 34.5 32.499zM244 839h92l95 -166h-16l-136 107l-115 -107h-15z" />
    <glyph glyph-name="Otilde" unicode="&#xd5;" 
d="M544 156c0 -35.333 -20.333 -66.667 -61 -94c-48.667 -32 -117 -48.667 -205 -50c-65.333 -0.666992 -123.666 11.666 -174.999 36.999c-56 27.333 -86 62.333 -90 105v299c0 37.333 20 69.333 60 96c48 31.333 115.667 47.666 203 48.999
c65.333 0.666992 125.166 -12.666 179.499 -39.999s83.5 -61.666 87.5 -102.999zM404 168.999v267.001c-1.33301 16.667 -16 29.667 -44 39c-24 7.33301 -51.333 11 -82 11c-83.333 -1.33301 -125 -16.666 -125 -45.999v-271c4 -14.667 19.333 -26.334 46 -35.001
c23.333 -7.33301 49 -11 77 -11c39.333 0.666992 70.5 5.16699 93.5 13.5s34.5 19.166 34.5 32.499zM138 718l-15.999 0.000976562c2 85.333 33.333 128.333 94 129c24 0 57.667 -14 101 -42c27.333 -18 47.666 -27 60.999 -27c24 0 40 23 48 69h15
c0 -56 -16 -94.667 -48 -116c-15.333 -10 -31 -15 -47 -15c-26 0 -58.667 13.333 -98 40c-30 20 -51.333 30 -64 30c-13.333 0 -24 -6 -32 -18c-3.33301 -4.66699 -8 -21.334 -14 -50.001z" />
    <glyph glyph-name="Odieresis" unicode="&#xd6;" 
d="M544 156c0 -35.333 -20.333 -66.667 -61 -94c-48.667 -32 -117 -48.667 -205 -50c-65.333 -0.666992 -123.666 11.666 -174.999 36.999c-56 27.333 -86 62.333 -90 105v299c0 37.333 20 69.333 60 96c48 31.333 115.667 47.666 203 48.999
c65.333 0.666992 125.166 -12.666 179.499 -39.999s83.5 -61.666 87.5 -102.999zM404 168.999v267.001c-1.33301 16.667 -16 29.667 -44 39c-24 7.33301 -51.333 11 -82 11c-83.333 -1.33301 -125 -16.666 -125 -45.999v-271c4 -14.667 19.333 -26.334 46 -35.001
c23.333 -7.33301 49 -11 77 -11c39.333 0.666992 70.5 5.16699 93.5 13.5s34.5 19.166 34.5 32.499zM399 845c14.667 0 27.168 -5.33203 37.501 -15.999s15.833 -23.667 16.5 -39c0 -15.333 -5.33301 -28.166 -16 -38.499s-23.334 -15.5 -38.001 -15.5
c-15.333 0 -28.333 5.16699 -39 15.5s-16 23.166 -16 38.499s5.33301 28.166 16 38.499s23.667 15.833 39 16.5zM222.001 845.001c15.333 0 28.1689 -5.33203 38.502 -15.999s15.833 -23.667 16.5 -39c0 -15.333 -5.33301 -28.166 -16 -38.499s-23.334 -15.5 -38.001 -15.5
c-15.333 0 -28.333 5.16699 -39 15.5s-16 23.166 -16 38.499s5.16699 28.166 15.5 38.499s23.166 15.833 38.499 16.5z" />
    <glyph glyph-name="Oslash" unicode="&#xd8;" 
d="M562 156c0 -35.333 -20.333 -66.667 -61 -94c-48.667 -32 -117 -48.667 -205 -50c-65.333 -0.666992 -123.666 11.666 -174.999 36.999c-56 27.333 -86 62.333 -90 105v299c0 37.333 20 69.333 60 96c48 31.333 115.667 47.666 203 48.999
c65.333 0.666992 125.166 -12.666 179.499 -39.999s83.5 -61.666 87.5 -102.999zM422 168.999v267.001c-1.33301 16.667 -16 29.667 -44 39c-24 7.33301 -51.333 11 -82 11c-83.333 -1.33301 -125 -16.666 -125 -45.999v-271c4 -14.667 19.333 -26.334 46 -35.001
c23.333 -7.33301 49 -11 77 -11c39.333 0.666992 70.5 5.16699 93.5 13.5s34.5 19.166 34.5 32.499zM525 479c0 1.33301 -1.00098 -3 -3.00098 -13c-4 -13.333 -15.667 -28 -35 -44l-315 -269c-3.33301 -2 -6.66602 -4.33301 -9.99902 -7c-18.667 -12 -28 -24 -28 -36v-39
c0 -17.333 -7 -31 -21 -41s-30.333 -15 -49 -15c-19.333 0 -35.333 4.66699 -48 14c-14.667 10.667 -22 24.667 -22 42v59c0 36 26.333 70.333 79 103l312 261c0.666992 0.666992 0.666992 15 0 43c0 17.333 7.33301 31.333 22 42c12.667 9.33301 28.667 14 48 14
c18.667 0 35 -5 49 -15s21 -23.667 21 -41v-58z" />
    <glyph glyph-name="Ugrave" unicode="&#xd9;" 
d="M543 155c0 -35.333 -19.667 -66.3311 -59 -92.998c-48.667 -32.667 -117.334 -49.334 -206.001 -50.001c-65.333 -1.33301 -124.333 11 -177 37c-55.333 27.333 -85 61.666 -89 102.999v384c0 18 7 32 21 42s30.333 15 49 15c19.333 0 35.833 -5 49.5 -15
s20.5 -24 20.5 -42l-1 -367c2.66699 -32 44.334 -47.333 125.001 -46c84.667 0.666992 127 15.667 127 45v368c0 18 7 32 21 42s30.333 15 49 15c19.333 0 35.833 -5 49.5 -15s20.5 -24 20.5 -42v-381zM187 843.002h112l53 -172h-18z" />
    <glyph glyph-name="Uacute" unicode="&#xda;" 
d="M543 155c0 -35.333 -19.667 -66.3311 -59 -92.998c-48.667 -32.667 -117.334 -49.334 -206.001 -50.001c-65.333 -1.33301 -124.333 11 -177 37c-55.333 27.333 -85 61.666 -89 102.999v384c0 18 7 32 21 42s30.333 15 49 15c19.333 0 35.833 -5 49.5 -15
s20.5 -24 20.5 -42l-1 -367c2.66699 -32 44.334 -47.333 125.001 -46c84.667 0.666992 127 15.667 127 45v368c0 18 7 32 21 42s30.333 15 49 15c19.333 0 35.833 -5 49.5 -15s20.5 -24 20.5 -42v-381zM368 840.002l-148 -172h-17l53 172h112z" />
    <glyph glyph-name="Ucircumflex" unicode="&#xdb;" 
d="M543 155c0 -35.333 -19.667 -66.3311 -59 -92.998c-48.667 -32.667 -117.334 -49.334 -206.001 -50.001c-65.333 -1.33301 -124.333 11 -177 37c-55.333 27.333 -85 61.666 -89 102.999v384c0 18 7 32 21 42s30.333 15 49 15c19.333 0 35.833 -5 49.5 -15
s20.5 -24 20.5 -42l-1 -367c2.66699 -32 44.334 -47.333 125.001 -46c84.667 0.666992 127 15.667 127 45v368c0 18 7 32 21 42s30.333 15 49 15c19.333 0 35.833 -5 49.5 -15s20.5 -24 20.5 -42v-381zM244 839.002h92l95 -166h-16l-136 107l-115 -107h-15z" />
    <glyph glyph-name="Udieresis" unicode="&#xdc;" 
d="M543 155c0 -35.333 -19.667 -66.3311 -59 -92.998c-48.667 -32.667 -117.334 -49.334 -206.001 -50.001c-65.333 -1.33301 -124.333 11 -177 37c-55.333 27.333 -85 61.666 -89 102.999v384c0 18 7 32 21 42s30.333 15 49 15c19.333 0 35.833 -5 49.5 -15
s20.5 -24 20.5 -42l-1 -367c2.66699 -32 44.334 -47.333 125.001 -46c84.667 0.666992 127 15.667 127 45v368c0 18 7 32 21 42s30.333 15 49 15c19.333 0 35.833 -5 49.5 -15s20.5 -24 20.5 -42v-381zM373 842.002c14.667 0 27.168 -5.33203 37.501 -15.999
s15.833 -23.667 16.5 -39c0 -15.333 -5.33301 -28.166 -16 -38.499s-23.334 -15.5 -38.001 -15.5c-15.333 0 -28.333 5.16699 -39 15.5s-16 23.166 -16 38.499s5.33301 28.166 16 38.499s23.667 15.833 39 16.5zM196.001 842.003c15.333 0 28.1689 -5.33203 38.502 -15.999
s15.833 -23.667 16.5 -39c0 -15.333 -5.33301 -28.166 -16 -38.499s-23.334 -15.5 -38.001 -15.5c-15.333 0 -28.333 5.16699 -39 15.5s-16 23.166 -16 38.499s5.16699 28.166 15.5 38.499s23.166 15.833 38.499 16.5z" />
    <glyph glyph-name="Yacute" unicode="&#xdd;" 
d="M557 72c0 -18 -6.83301 -31.833 -20.5 -41.5s-30.167 -14.5 -49.5 -14.5c-18.667 0 -35 4.83301 -49 14.5s-21 23.5 -21 41.5v465c0 18 7 31.833 21 41.5s30.333 14.5 49 14.5c19.333 0 35.833 -4.83301 49.5 -14.5s20.5 -23.5 20.5 -41.5v-465zM341 131h-67.001
c-65.333 0 -124.333 13.333 -177 40c-55.333 28 -84.666 61.333 -87.999 100v266c0 18 6.83301 31.833 20.5 41.5s30.167 14.5 49.5 14.5c18.667 0 35 -4.83301 49 -14.5s21 -23.5 21 -41.5v-250c4 -14 19.667 -25 47 -33c23.333 -7.33301 49.333 -11 78 -11h67
c22 0 39.167 -5.5 51.5 -16.5s18.5 -24.167 18.5 -39.5c0 -14.667 -6.16699 -27.667 -18.5 -39s-29.5 -17 -51.5 -17zM382.999 844l-148 -172h-17l53 172h112z" />
    <glyph glyph-name="germandbls" unicode="&#xdf;" 
d="M559 415c0.666992 -32 -17.332 -60.668 -53.999 -86.001c32.667 -24 50.334 -52.333 53.001 -85v-91c0 -35.333 -19.667 -66 -59 -92c-48 -30.667 -116.333 -47 -205 -49c-26.667 -0.666992 -47.667 4.66602 -63 15.999c-13.333 9.33301 -20 21.333 -20 36
c0 15.333 7.5 29 22.5 41s34.833 18 59.5 18c38.667 0.666992 69.334 5 92.001 13s34 18.333 34 31v57c-2 20 -24.333 34.667 -67 44c-14.667 3.33301 -33.334 5 -56.001 5s-40.667 6 -54 18c-12 10 -18 22.667 -18 38c0 36 23 54.667 69 56
c24.667 0.666992 45 2.66699 61 6c43.333 8.66699 65 21 65 37v10c0 16.667 -14.333 29.334 -43 38.001c-23.333 6.66699 -50.666 10 -81.999 10c-38.667 -0.666992 -69.334 -5 -92.001 -13s-34 -18 -34 -30v-374c0 -18 -6.83301 -31.833 -20.5 -41.5
s-29.834 -14.5 -48.501 -14.5c-19.333 0 -36 4.83301 -50 14.5s-21 23.5 -21 41.5v386c0 34.667 20.333 65.667 61 93c49.333 32 117.333 48.667 204 50c65.333 0.666992 124.666 -12 177.999 -38c57.333 -27.333 86.333 -61.666 87 -102.999z" />
    <glyph glyph-name="agrave" unicode="&#xe0;" 
d="M545 57c0 -37.333 -23.334 -55.999 -70.001 -55.999h-196c-65.333 0 -124 12.667 -176 38c-55.333 27.333 -85 61.666 -89 102.999v26c0 35.333 17.333 66 52 92c44.667 32.667 110 49.667 196 51h65h1c22.667 0 40.167 -5.5 52.5 -16.5s18.5 -24.167 18.5 -39.5
s-6 -28 -18 -38c-12.667 -12 -30.334 -18 -53.001 -18h-1c-2 0 -10 0.333008 -24 1h-39c-42.667 -0.666992 -71 -3.33398 -85 -8.00098c-16.667 -6 -25 -17.667 -25 -35v-7c4.66699 -24.667 46.334 -37 125.001 -37h126v188c0 16.667 -14.667 29.334 -44 38.001
c-23.333 6.66699 -50.666 10 -81.999 10h-195c-22.667 0 -40.167 5.66699 -52.5 17s-18.5 24.333 -18.5 39c0 15.333 6.16699 28.5 18.5 39.5s29.833 16.5 52.5 16.5h195c64.667 0 123 -12.667 175 -38c56.667 -27.333 86.667 -61.333 90 -102zM196.999 721.001h112l53 -172
h-18z" />
    <glyph glyph-name="aacute" unicode="&#xe1;" 
d="M545 57c0 -37.333 -23.334 -55.999 -70.001 -55.999h-196c-65.333 0 -124 12.667 -176 38c-55.333 27.333 -85 61.666 -89 102.999v26c0 35.333 17.333 66 52 92c44.667 32.667 110 49.667 196 51h65h1c22.667 0 40.167 -5.5 52.5 -16.5s18.5 -24.167 18.5 -39.5
s-6 -28 -18 -38c-12.667 -12 -30.334 -18 -53.001 -18h-1c-2 0 -10 0.333008 -24 1h-39c-42.667 -0.666992 -71 -3.33398 -85 -8.00098c-16.667 -6 -25 -17.667 -25 -35v-7c4.66699 -24.667 46.334 -37 125.001 -37h126v188c0 16.667 -14.667 29.334 -44 38.001
c-23.333 6.66699 -50.666 10 -81.999 10h-195c-22.667 0 -40.167 5.66699 -52.5 17s-18.5 24.333 -18.5 39c0 15.333 6.16699 28.5 18.5 39.5s29.833 16.5 52.5 16.5h195c64.667 0 123 -12.667 175 -38c56.667 -27.333 86.667 -61.333 90 -102zM401.999 685.001l-148 -172
h-17l53 172h112z" />
    <glyph glyph-name="acircumflex" unicode="&#xe2;" 
d="M545 57c0 -37.333 -23.334 -55.999 -70.001 -55.999h-196c-65.333 0 -124 12.667 -176 38c-55.333 27.333 -85 61.666 -89 102.999v26c0 35.333 17.333 66 52 92c44.667 32.667 110 49.667 196 51h65h1c22.667 0 40.167 -5.5 52.5 -16.5s18.5 -24.167 18.5 -39.5
s-6 -28 -18 -38c-12.667 -12 -30.334 -18 -53.001 -18h-1c-2 0 -10 0.333008 -24 1h-39c-42.667 -0.666992 -71 -3.33398 -85 -8.00098c-16.667 -6 -25 -17.667 -25 -35v-7c4.66699 -24.667 46.334 -37 125.001 -37h126v188c0 16.667 -14.667 29.334 -44 38.001
c-23.333 6.66699 -50.666 10 -81.999 10h-195c-22.667 0 -40.167 5.66699 -52.5 17s-18.5 24.333 -18.5 39c0 15.333 6.16699 28.5 18.5 39.5s29.833 16.5 52.5 16.5h195c64.667 0 123 -12.667 175 -38c56.667 -27.333 86.667 -61.333 90 -102zM250.999 672.001h92l95 -166
h-16l-136 107l-115 -107h-15z" />
    <glyph glyph-name="atilde" unicode="&#xe3;" 
d="M545 57c0 -37.333 -23.334 -55.999 -70.001 -55.999h-196c-65.333 0 -124 12.667 -176 38c-55.333 27.333 -85 61.666 -89 102.999v26c0 35.333 17.333 66 52 92c44.667 32.667 110 49.667 196 51h65h1c22.667 0 40.167 -5.5 52.5 -16.5s18.5 -24.167 18.5 -39.5
s-6 -28 -18 -38c-12.667 -12 -30.334 -18 -53.001 -18h-1c-2 0 -10 0.333008 -24 1h-39c-42.667 -0.666992 -71 -3.33398 -85 -8.00098c-16.667 -6 -25 -17.667 -25 -35v-7c4.66699 -24.667 46.334 -37 125.001 -37h126v188c0 16.667 -14.667 29.334 -44 38.001
c-23.333 6.66699 -50.666 10 -81.999 10h-195c-22.667 0 -40.167 5.66699 -52.5 17s-18.5 24.333 -18.5 39c0 15.333 6.16699 28.5 18.5 39.5s29.833 16.5 52.5 16.5h195c64.667 0 123 -12.667 175 -38c56.667 -27.333 86.667 -61.333 90 -102zM143.999 529.001
l-15.999 0.000976562c2 85.333 33.333 128.333 94 129c24 0 57.667 -14 101 -42c27.333 -18 47.666 -27 60.999 -27c24 0 40 23 48 69h15c0 -56 -16 -94.667 -48 -116c-15.333 -10 -31 -15 -47 -15c-26 0 -58.667 13.333 -98 40c-30 20 -51.333 30 -64 30
c-13.333 0 -24 -6 -32 -18c-3.33301 -4.66699 -8 -21.334 -14 -50.001z" />
    <glyph glyph-name="adieresis" unicode="&#xe4;" 
d="M545 57c0 -37.333 -23.334 -55.999 -70.001 -55.999h-196c-65.333 0 -124 12.667 -176 38c-55.333 27.333 -85 61.666 -89 102.999v26c0 35.333 17.333 66 52 92c44.667 32.667 110 49.667 196 51h65h1c22.667 0 40.167 -5.5 52.5 -16.5s18.5 -24.167 18.5 -39.5
s-6 -28 -18 -38c-12.667 -12 -30.334 -18 -53.001 -18h-1c-2 0 -10 0.333008 -24 1h-39c-42.667 -0.666992 -71 -3.33398 -85 -8.00098c-16.667 -6 -25 -17.667 -25 -35v-7c4.66699 -24.667 46.334 -37 125.001 -37h126v188c0 16.667 -14.667 29.334 -44 38.001
c-23.333 6.66699 -50.666 10 -81.999 10h-195c-22.667 0 -40.167 5.66699 -52.5 17s-18.5 24.333 -18.5 39c0 15.333 6.16699 28.5 18.5 39.5s29.833 16.5 52.5 16.5h195c64.667 0 123 -12.667 175 -38c56.667 -27.333 86.667 -61.333 90 -102zM391.999 630.001
c14.667 0 27.168 -5.33203 37.501 -15.999s15.833 -23.667 16.5 -39c0 -15.333 -5.33301 -28.166 -16 -38.499s-23.334 -15.5 -38.001 -15.5c-15.333 0 -28.333 5.16699 -39 15.5s-16 23.166 -16 38.499s5.33301 28.166 16 38.499s23.667 15.833 39 16.5zM215 630.002
c15.333 0 28.1689 -5.33203 38.502 -15.999s15.833 -23.667 16.5 -39c0 -15.333 -5.33301 -28.166 -16 -38.499s-23.334 -15.5 -38.001 -15.5c-15.333 0 -28.333 5.16699 -39 15.5s-16 23.166 -16 38.499s5.16699 28.166 15.5 38.499s23.166 15.833 38.499 16.5z" />
    <glyph glyph-name="aring" unicode="&#xe5;" 
d="M545 57c0 -37.333 -23.334 -55.999 -70.001 -55.999h-196c-65.333 0 -124 12.667 -176 38c-55.333 27.333 -85 61.666 -89 102.999v26c0 35.333 17.333 66 52 92c44.667 32.667 110 49.667 196 51h65h1c22.667 0 40.167 -5.5 52.5 -16.5s18.5 -24.167 18.5 -39.5
s-6 -28 -18 -38c-12.667 -12 -30.334 -18 -53.001 -18h-1c-2 0 -10 0.333008 -24 1h-39c-42.667 -0.666992 -71 -3.33398 -85 -8.00098c-16.667 -6 -25 -17.667 -25 -35v-7c4.66699 -24.667 46.334 -37 125.001 -37h126v188c0 16.667 -14.667 29.334 -44 38.001
c-23.333 6.66699 -50.666 10 -81.999 10h-195c-22.667 0 -40.167 5.66699 -52.5 17s-18.5 24.333 -18.5 39c0 15.333 6.16699 28.5 18.5 39.5s29.833 16.5 52.5 16.5h195c64.667 0 123 -12.667 175 -38c56.667 -27.333 86.667 -61.333 90 -102zM316.999 681.001
c26.667 0 49.1689 -9.16797 67.502 -27.501s27.833 -40.833 28.5 -67.5c0 -27.333 -9.33301 -50.166 -28 -68.499s-41.334 -27.5 -68.001 -27.5c-26.667 -0.666992 -49.167 8.33301 -67.5 27s-27.833 41.667 -28.5 69c0 26.667 9.16699 49.167 27.5 67.5
s41.166 27.5 68.499 27.5zM317.001 647c-17.333 0 -31.833 -6 -43.5 -18s-17.5 -26.333 -17.5 -43c-0.666992 -17.333 5 -31.833 17 -43.5s26.667 -17.5 44 -17.5c16.667 0 31 5.83301 43 17.5s18 26.167 18 43.5c0 16.667 -6 31 -18 43s-26.333 18 -43 18z" />
    <glyph glyph-name="ae" unicode="&#xe6;" horiz-adv-x="1011" 
d="M556 57c0 -37.333 -23.334 -55.999 -70.001 -55.999h-196c-65.333 0 -124 12.667 -176 38c-55.333 27.333 -85 61.666 -89 102.999v26c0 35.333 17.333 66 52 92c44.667 32.667 110 49.667 196 51h65h1c22.667 0 40.167 -5.5 52.5 -16.5s18.5 -24.167 18.5 -39.5
s-6 -28 -18 -38c-12.667 -12 -30.334 -18 -53.001 -18h-1c-2 0 -10 0.333008 -24 1h-39c-42.667 -0.666992 -71 -3.33398 -85 -8.00098c-16.667 -6 -25 -17.667 -25 -35v-7c4.66699 -24.667 46.334 -37 125.001 -37h126v188c0 16.667 -14.667 29.334 -44 38.001
c-23.333 6.66699 -50.666 10 -81.999 10h-195c-22.667 0 -40.167 5.66699 -52.5 17s-18.5 24.333 -18.5 39c0 15.333 6.16699 28.5 18.5 39.5s29.833 16.5 52.5 16.5h195c64.667 0 123 -12.667 175 -38c56.667 -27.333 86.667 -61.333 90 -102zM951.999 129.001
c0 -36 -19.999 -65.6689 -59.999 -89.002c-47.333 -27.333 -116 -41.333 -206 -42c-64.667 -0.666992 -123.334 12 -176.001 38c-55.333 27.333 -85 60.666 -89 99.999v186c0 36.667 19.667 68.334 59 95.001c48 32 116.333 48.333 205 49
c65.333 0.666992 124.666 -11.666 177.999 -36.999c58 -28 87.333 -63 88 -105l1 -67c0.666992 -37.333 -22.666 -56 -69.999 -56h-245c-22 0 -39.167 5.5 -51.5 16.5s-18.5 24.167 -18.5 39.5s6.16699 28.5 18.5 39.5s29.5 16.5 51.5 16.5h175c0 29.333 -42 43.333 -126 42
c-83.333 -1.33301 -125 -12.333 -125 -33v-180c6.66699 -23.333 47.667 -34.333 123 -33c85.333 0.666992 128 7.33398 128 20.001v6c0 18 7 31.833 21 41.5s30.333 14.5 49 14.5s35 -4.83301 49 -14.5s21 -23.5 21 -41.5v-6z" />
    <glyph glyph-name="ccedilla" unicode="&#xe7;" horiz-adv-x="592" 
d="M566 142c0 -34.667 -20 -65.668 -60 -93.001c-49.333 -33.333 -118 -50.333 -206 -51c-64.667 -0.666992 -123.334 12 -176.001 38c-55.333 27.333 -85 60.666 -89 99.999v186c0 36.667 19.667 68.334 59 95.001c48 32 116 48.333 204 49
c64.667 0.666992 123.334 -11.666 176.001 -36.999c56.667 -28 87 -63 91 -105l1 -9c0 -18 -7.5 -32.333 -22.5 -43s-32.5 -16 -52.5 -16c-18 0 -33.333 4.66699 -46 14s-19 22.333 -19 39v3c0 30 -42 44.333 -126 43c-83.333 -1.33301 -125 -16.333 -125 -45v-155
c4 -14 19.333 -25.333 46 -34c24 -8.66699 49.667 -12.667 77 -12c85.333 0.666992 128 11.667 128 33v22c0 17.333 6.33301 30.5 19 39.5s28 13.5 46 13.5c20 0 37.5 -5.33301 52.5 -16s22.5 -25 22.5 -43v-16zM341 7.99902l30 -0.000976562l-25 -40
c41.333 -9.33301 62.333 -33.666 63 -72.999c0 -26.667 -11.667 -48.667 -35 -66c-20.667 -16 -45 -24 -73 -24c-12 0 -27.667 1 -47 3v22c11.333 -1.33301 19.333 -2 24 -2c16 0 30 5.33301 42 16s18.333 23.667 19 39c0 24 -13.333 36.333 -40 37
c-4 0 -8.33301 -0.333008 -13 -1z" />
    <glyph glyph-name="egrave" unicode="&#xe8;" horiz-adv-x="597" 
d="M562 129c0 -36 -19.999 -65.6689 -59.999 -89.002c-47.333 -27.333 -116 -41.333 -206 -42c-64.667 -0.666992 -123.334 12 -176.001 38c-55.333 27.333 -85 60.666 -89 99.999v186c0 36.667 19.667 68.334 59 95.001c48 32 116.333 48.333 205 49
c65.333 0.666992 124.666 -11.666 177.999 -36.999c58 -28 87.333 -63 88 -105l1 -67c0.666992 -37.333 -22.666 -56 -69.999 -56h-245c-22 0 -39.167 5.5 -51.5 16.5s-18.5 24.167 -18.5 39.5s6.16699 28.5 18.5 39.5s29.5 16.5 51.5 16.5h175c0 29.333 -42 43.333 -126 42
c-83.333 -1.33301 -125 -12.333 -125 -33v-180c6.66699 -23.333 47.667 -34.333 123 -33c85.333 0.666992 128 7.33398 128 20.001v6c0 18 7 31.833 21 41.5s30.333 14.5 49 14.5s35 -4.83301 49 -14.5s21 -23.5 21 -41.5v-6zM163.001 669.998h112l53 -172h-18z" />
    <glyph glyph-name="eacute" unicode="&#xe9;" horiz-adv-x="591" 
d="M562 129c0 -36 -19.999 -65.6689 -59.999 -89.002c-47.333 -27.333 -116 -41.333 -206 -42c-64.667 -0.666992 -123.334 12 -176.001 38c-55.333 27.333 -85 60.666 -89 99.999v186c0 36.667 19.667 68.334 59 95.001c48 32 116.333 48.333 205 49
c65.333 0.666992 124.666 -11.666 177.999 -36.999c58 -28 87.333 -63 88 -105l1 -67c0.666992 -37.333 -22.666 -56 -69.999 -56h-245c-22 0 -39.167 5.5 -51.5 16.5s-18.5 24.167 -18.5 39.5s6.16699 28.5 18.5 39.5s29.5 16.5 51.5 16.5h175c0 29.333 -42 43.333 -126 42
c-83.333 -1.33301 -125 -12.333 -125 -33v-180c6.66699 -23.333 47.667 -34.333 123 -33c85.333 0.666992 128 7.33398 128 20.001v6c0 18 7 31.833 21 41.5s30.333 14.5 49 14.5s35 -4.83301 49 -14.5s21 -23.5 21 -41.5v-6zM419.001 656.998l-148 -172h-17l53 172h112z
" />
    <glyph glyph-name="ecircumflex" unicode="&#xea;" horiz-adv-x="599" 
d="M559 129c0 -36 -19.999 -65.6689 -59.999 -89.002c-47.333 -27.333 -116 -41.333 -206 -42c-64.667 -0.666992 -123.334 12 -176.001 38c-55.333 27.333 -85 60.666 -89 99.999v186c0 36.667 19.667 68.334 59 95.001c48 32 116.333 48.333 205 49
c65.333 0.666992 124.666 -11.666 177.999 -36.999c58 -28 87.333 -63 88 -105l1 -67c0.666992 -37.333 -22.666 -56 -69.999 -56h-245c-22 0 -39.167 5.5 -51.5 16.5s-18.5 24.167 -18.5 39.5s6.16699 28.5 18.5 39.5s29.5 16.5 51.5 16.5h175c0 29.333 -42 43.333 -126 42
c-83.333 -1.33301 -125 -12.333 -125 -33v-180c6.66699 -23.333 47.667 -34.333 123 -33c85.333 0.666992 128 7.33398 128 20.001v6c0 18 7 31.833 21 41.5s30.333 14.5 49 14.5s35 -4.83301 49 -14.5s21 -23.5 21 -41.5v-6zM244.001 644.998h92l95 -166h-16l-136 107
l-115 -107h-15z" />
    <glyph glyph-name="edieresis" unicode="&#xeb;" horiz-adv-x="597" 
d="M565 129c0 -36 -19.999 -65.6689 -59.999 -89.002c-47.333 -27.333 -116 -41.333 -206 -42c-64.667 -0.666992 -123.334 12 -176.001 38c-55.333 27.333 -85 60.666 -89 99.999v186c0 36.667 19.667 68.334 59 95.001c48 32 116.333 48.333 205 49
c65.333 0.666992 124.666 -11.666 177.999 -36.999c58 -28 87.333 -63 88 -105l1 -67c0.666992 -37.333 -22.666 -56 -69.999 -56h-245c-22 0 -39.167 5.5 -51.5 16.5s-18.5 24.167 -18.5 39.5s6.16699 28.5 18.5 39.5s29.5 16.5 51.5 16.5h175c0 29.333 -42 43.333 -126 42
c-83.333 -1.33301 -125 -12.333 -125 -33v-180c6.66699 -23.333 47.667 -34.333 123 -33c85.333 0.666992 128 7.33398 128 20.001v6c0 18 7 31.833 21 41.5s30.333 14.5 49 14.5s35 -4.83301 49 -14.5s21 -23.5 21 -41.5v-6zM381.001 616.998
c14.667 0 27.168 -5.33203 37.501 -15.999s15.833 -23.667 16.5 -39c0 -15.333 -5.33301 -28.166 -16 -38.499s-23.334 -15.5 -38.001 -15.5c-15.333 0 -28.333 5.16699 -39 15.5s-16 23.166 -16 38.499s5.33301 28.166 16 38.499s23.667 15.833 39 16.5zM204.002 616.999
c15.333 0 28.1689 -5.33203 38.502 -15.999s15.833 -23.667 16.5 -39c0 -15.333 -5.33301 -28.166 -16 -38.499s-23.334 -15.5 -38.001 -15.5c-15.333 0 -28.333 5.16699 -39 15.5s-16 23.166 -16 38.499s5.16699 28.166 15.5 38.499s23.166 15.833 38.499 16.5z" />
    <glyph glyph-name="igrave" unicode="&#xec;" horiz-adv-x="250" 
d="M189 69c0 -17.333 -7 -31 -21 -41s-30.333 -15 -49 -15c-19.333 0 -35.833 5 -49.5 15s-20.5 23.667 -20.5 41v282c0 18 6.83301 31.833 20.5 41.5s30.167 14.5 49.5 14.5c18.667 0 35 -4.83301 49 -14.5s21 -23.5 21 -41.5v-282zM24 635h112l53 -172h-18z" />
    <glyph glyph-name="iacute" unicode="&#xed;" horiz-adv-x="237" 
d="M174 69c0 -17.333 -7 -31 -21 -41s-30.333 -15 -49 -15c-19.333 0 -35.833 5 -49.5 15s-20.5 23.667 -20.5 41v282c0 18 6.83301 31.833 20.5 41.5s30.167 14.5 49.5 14.5c18.667 0 35 -4.83301 49 -14.5s21 -23.5 21 -41.5v-282zM203 610l-148 -172h-17l53 172h112z" />
    <glyph glyph-name="icircumflex" unicode="&#xee;" horiz-adv-x="226" 
d="M177 69c0 -17.333 -7 -31 -21 -41s-30.333 -15 -49 -15c-19.333 0 -35.833 5 -49.5 15s-20.5 23.667 -20.5 41v282c0 18 6.83301 31.833 20.5 41.5s30.167 14.5 49.5 14.5c18.667 0 35 -4.83301 49 -14.5s21 -23.5 21 -41.5v-282zM65 606h92l95 -166h-16l-136 107
l-115 -107h-15z" />
    <glyph glyph-name="idieresis" unicode="&#xef;" horiz-adv-x="228" 
d="M181 69c0 -17.333 -7 -31 -21 -41s-30.333 -15 -49 -15c-19.333 0 -35.833 5 -49.5 15s-20.5 23.667 -20.5 41v282c0 18 6.83301 31.833 20.5 41.5s30.167 14.5 49.5 14.5c18.667 0 35 -4.83301 49 -14.5s21 -23.5 21 -41.5v-282zM212 583
c14.667 0 27.168 -5.33203 37.501 -15.999s15.833 -23.667 16.5 -39c0 -15.333 -5.33301 -28.166 -16 -38.499s-23.334 -15.5 -38.001 -15.5c-15.333 0 -28.333 5.16699 -39 15.5s-16 23.166 -16 38.499s5.33301 28.166 16 38.499s23.667 15.833 39 16.5zM35.001 583.001
c15.333 0 28.1689 -5.33203 38.502 -15.999s15.833 -23.667 16.5 -39c0 -15.333 -5.33301 -28.166 -16 -38.499s-23.334 -15.5 -38.001 -15.5c-15.333 0 -28.333 5.16699 -39 15.5s-16 23.166 -16 38.499s5.16699 28.166 15.5 38.499s23.166 15.833 38.499 16.5z" />
    <glyph glyph-name="ntilde" unicode="&#xf1;" horiz-adv-x="612" 
d="M551 57c0 -18 -6.83203 -31.999 -20.499 -41.999s-30.167 -15 -49.5 -15c-18.667 0 -35 5 -49 15s-21 24 -21 42v244c-3.33301 32 -45 48 -125 48h-126v-292c0 -18 -6.83301 -32 -20.5 -42s-30.167 -15 -49.5 -15c-18.667 0 -35 5 -49 15s-21 24 -21 42v349
c0 36.667 23.333 55 70 55h196c65.333 0 123.666 -12.333 174.999 -37c55.333 -26.667 85.333 -61 90 -103v-143.5c0 -81.667 0 -121.834 0 -120.501zM162.001 549.001l-15.999 0.000976562c2 85.333 33.333 128.333 94 129c24 0 57.667 -14 101 -42
c27.333 -18 47.666 -27 60.999 -27c24 0 40 23 48 69h15c0 -56 -16 -94.667 -48 -116c-15.333 -10 -31 -15 -47 -15c-26 0 -58.667 13.333 -98 40c-30 20 -51.333 30 -64 30c-13.333 0 -24 -6 -32 -18c-3.33301 -4.66699 -8 -21.334 -14 -50.001z" />
    <glyph glyph-name="ograve" unicode="&#xf2;" 
d="M544 142c0 -34 -20.333 -64.668 -61 -92.001c-49.333 -34 -117.666 -51.333 -204.999 -52c-64.667 -1.33301 -123.334 11.334 -176.001 38.001c-55.333 27.333 -85 60.666 -89 99.999v186c0 36.667 19.667 68.334 59 95.001c48 32 116.333 48.333 205 49
c65.333 0.666992 124.333 -12 177 -38c55.333 -28 85 -62.667 89 -104zM404 141.999l-0.000976562 176c-2.66699 26 -44.667 38.333 -126 37c-83.333 -1.33301 -125 -12.333 -125 -33v-180c6.66699 -23.333 47.334 -34.333 122.001 -33c86 0.666992 129 11.667 129 33z
M159.999 667.999h112l53 -172h-18z" />
    <glyph glyph-name="oacute" unicode="&#xf3;" 
d="M544 142c0 -34 -20.333 -64.668 -61 -92.001c-49.333 -34 -117.666 -51.333 -204.999 -52c-64.667 -1.33301 -123.334 11.334 -176.001 38.001c-55.333 27.333 -85 60.666 -89 99.999v186c0 36.667 19.667 68.334 59 95.001c48 32 116.333 48.333 205 49
c65.333 0.666992 124.333 -12 177 -38c55.333 -28 85 -62.667 89 -104zM404 141.999l-0.000976562 176c-2.66699 26 -44.667 38.333 -126 37c-83.333 -1.33301 -125 -12.333 -125 -33v-180c6.66699 -23.333 47.334 -34.333 122.001 -33c86 0.666992 129 11.667 129 33z
M392.999 658.999l-148 -172h-17l53 172h112z" />
    <glyph glyph-name="ocircumflex" unicode="&#xf4;" 
d="M544 142c0 -34 -20.333 -64.668 -61 -92.001c-49.333 -34 -117.666 -51.333 -204.999 -52c-64.667 -1.33301 -123.334 11.334 -176.001 38.001c-55.333 27.333 -85 60.666 -89 99.999v186c0 36.667 19.667 68.334 59 95.001c48 32 116.333 48.333 205 49
c65.333 0.666992 124.333 -12 177 -38c55.333 -28 85 -62.667 89 -104zM404 141.999l-0.000976562 176c-2.66699 26 -44.667 38.333 -126 37c-83.333 -1.33301 -125 -12.333 -125 -33v-180c6.66699 -23.333 47.334 -34.333 122.001 -33c86 0.666992 129 11.667 129 33z
M236.999 656.999h92l95 -166h-16l-136 107l-115 -107h-15z" />
    <glyph glyph-name="otilde" unicode="&#xf5;" 
d="M544 142c0 -34 -20.333 -64.668 -61 -92.001c-49.333 -34 -117.666 -51.333 -204.999 -52c-64.667 -1.33301 -123.334 11.334 -176.001 38.001c-55.333 27.333 -85 60.666 -89 99.999v186c0 36.667 19.667 68.334 59 95.001c48 32 116.333 48.333 205 49
c65.333 0.666992 124.333 -12 177 -38c55.333 -28 85 -62.667 89 -104zM404 141.999l-0.000976562 176c-2.66699 26 -44.667 38.333 -126 37c-83.333 -1.33301 -125 -12.333 -125 -33v-180c6.66699 -23.333 47.334 -34.333 122.001 -33c86 0.666992 129 11.667 129 33z
M139.999 509.999l-15.999 0.000976562c2 85.333 33.333 128.333 94 129c24 0 57.667 -14 101 -42c27.333 -18 47.666 -27 60.999 -27c24 0 40 23 48 69h15c0 -56 -16 -94.667 -48 -116c-15.333 -10 -31 -15 -47 -15c-26 0 -58.667 13.333 -98 40c-30 20 -51.333 30 -64 30
c-13.333 0 -24 -6 -32 -18c-3.33301 -4.66699 -8 -21.334 -14 -50.001z" />
    <glyph glyph-name="odieresis" unicode="&#xf6;" 
d="M544 142c0 -34 -20.333 -64.668 -61 -92.001c-49.333 -34 -117.666 -51.333 -204.999 -52c-64.667 -1.33301 -123.334 11.334 -176.001 38.001c-55.333 27.333 -85 60.666 -89 99.999v186c0 36.667 19.667 68.334 59 95.001c48 32 116.333 48.333 205 49
c65.333 0.666992 124.333 -12 177 -38c55.333 -28 85 -62.667 89 -104zM404 141.999l-0.000976562 176c-2.66699 26 -44.667 38.333 -126 37c-83.333 -1.33301 -125 -12.333 -125 -33v-180c6.66699 -23.333 47.334 -34.333 122.001 -33c86 0.666992 129 11.667 129 33z
M366.999 635.999c14.667 0 27.168 -5.33203 37.501 -15.999s15.833 -23.667 16.5 -39c0 -15.333 -5.33301 -28.166 -16 -38.499s-23.334 -15.5 -38.001 -15.5c-15.333 0 -28.333 5.16699 -39 15.5s-16 23.166 -16 38.499s5.33301 28.166 16 38.499s23.667 15.833 39 16.5z
M190 636c15.333 0 28.1689 -5.33203 38.502 -15.999s15.833 -23.667 16.5 -39c0 -15.333 -5.33301 -28.166 -16 -38.499s-23.334 -15.5 -38.001 -15.5c-15.333 0 -28.333 5.16699 -39 15.5s-16 23.166 -16 38.499s5.16699 28.166 15.5 38.499s23.166 15.833 38.499 16.5z
" />
    <glyph glyph-name="oslash" unicode="&#xf8;" 
d="M560 142c0 -34 -20.002 -64.6689 -60.002 -92.002c-49.333 -34 -117.666 -51.333 -204.999 -52c-63.333 -1.33301 -120.666 10.334 -171.999 35.001c-2.66699 -2 -5.66699 -4 -9 -6c-14 -8 -30.333 -12 -49 -12c-19.333 0 -36 4 -50 12s-21 19 -21 33v47
c0 18.667 11.667 37 35 55v160c0 36.667 19.667 68.334 59 95.001c48 32 116.333 48.333 205 49c36 0 69.667 -3.66699 101 -11c3.33301 4 8 7.66699 14 11c14 8 30.667 12 50 12c18.667 0 35 -4 49 -12s21 -19 21 -33v-46c18.667 -18.667 29 -39.667 31 -63z
M419.998 141.998v151l-242 -165c17.333 -14 55 -20.333 113 -19c86 0.666992 129 11.667 129 33zM168.998 321.998v-70l152 103h-26c-84 -1.33301 -126 -12.333 -126 -33z" />
    <glyph glyph-name="ugrave" unicode="&#xf9;" 
d="M543 57c0 -37.333 -23.667 -56 -71 -56h-195c-65.333 0 -124 12.667 -176 38c-56 27.333 -85.667 61.333 -89 102v265c0 18 7.33301 32 22 42c12.667 9.33301 28.667 14 48 14c18.667 0 35 -4.83301 49 -14.5s21 -23.5 21 -41.5l-1 -248c2.66699 -30 44.667 -45 126 -45
h126v293c0 18 7.33301 32 22 42c12.667 9.33301 28.667 14 48 14c18.667 0 35 -4.83301 49 -14.5s21 -23.5 21 -41.5v-349zM169 646h112l53 -172h-18z" />
    <glyph glyph-name="uacute" unicode="&#xfa;" 
d="M543 57c0 -37.333 -23.667 -56 -71 -56h-195c-65.333 0 -124 12.667 -176 38c-56 27.333 -85.667 61.333 -89 102v265c0 18 7.33301 32 22 42c12.667 9.33301 28.667 14 48 14c18.667 0 35 -4.83301 49 -14.5s21 -23.5 21 -41.5l-1 -248c2.66699 -30 44.667 -45 126 -45
h126v293c0 18 7.33301 32 22 42c12.667 9.33301 28.667 14 48 14c18.667 0 35 -4.83301 49 -14.5s21 -23.5 21 -41.5v-349zM390 662l-148 -172h-17l53 172h112z" />
    <glyph glyph-name="ucircumflex" unicode="&#xfb;" 
d="M543 57c0 -37.333 -23.667 -56 -71 -56h-195c-65.333 0 -124 12.667 -176 38c-56 27.333 -85.667 61.333 -89 102v265c0 18 7.33301 32 22 42c12.667 9.33301 28.667 14 48 14c18.667 0 35 -4.83301 49 -14.5s21 -23.5 21 -41.5l-1 -248c2.66699 -30 44.667 -45 126 -45
h126v293c0 18 7.33301 32 22 42c12.667 9.33301 28.667 14 48 14c18.667 0 35 -4.83301 49 -14.5s21 -23.5 21 -41.5v-349zM242 680h92l95 -166h-16l-136 107l-115 -107h-15z" />
    <glyph glyph-name="udieresis" unicode="&#xfc;" 
d="M543 57c0 -37.333 -23.667 -56 -71 -56h-195c-65.333 0 -124 12.667 -176 38c-56 27.333 -85.667 61.333 -89 102v265c0 18 7.33301 32 22 42c12.667 9.33301 28.667 14 48 14c18.667 0 35 -4.83301 49 -14.5s21 -23.5 21 -41.5l-1 -248c2.66699 -30 44.667 -45 126 -45
h126v293c0 18 7.33301 32 22 42c12.667 9.33301 28.667 14 48 14c18.667 0 35 -4.83301 49 -14.5s21 -23.5 21 -41.5v-349zM361 626c14.667 0 27.168 -5.33203 37.501 -15.999s15.833 -23.667 16.5 -39c0 -15.333 -5.33301 -28.166 -16 -38.499s-23.334 -15.5 -38.001 -15.5
c-15.333 0 -28.333 5.16699 -39 15.5s-16 23.166 -16 38.499s5.33301 28.166 16 38.499s23.667 15.833 39 16.5zM184.001 626.001c15.333 0 28.1689 -5.33203 38.502 -15.999s15.833 -23.667 16.5 -39c0 -15.333 -5.33301 -28.166 -16 -38.499s-23.334 -15.5 -38.001 -15.5
c-15.333 0 -28.333 5.16699 -39 15.5s-16 23.166 -16 38.499s5.16699 28.166 15.5 38.499s23.166 15.833 38.499 16.5z" />
    <glyph glyph-name="yacute" unicode="&#xfd;" 
d="M554 -74c0 -17.333 -7 -31 -21 -41s-30.333 -15 -49 -15s-35 5 -49 15s-21 23.667 -21 41v466c0 17.333 7 31 21 41s30.333 15 49 15s35 -5 49 -15s21 -23.667 21 -41v-466zM337 -14h-65.999c-66 0 -125.333 13.333 -178 40c-54.667 28 -84 61.333 -88 100v266
c0 17.333 7 31 21 41s30.333 15 49 15c19.333 0 35.833 -5 49.5 -15s20.5 -23.667 20.5 -41v-251c4 -14 19.667 -25 47 -33c23.333 -6.66699 49.666 -10 78.999 -10h66c22 0 39.667 -5.66699 53 -17c11.333 -10.667 17 -23.667 17 -39s-5.66699 -28 -17 -38
c-13.333 -12 -31 -18 -53 -18zM389.001 668l-148 -172h-17l53 172h112z" />
    <glyph glyph-name="ydieresis" unicode="&#xff;" 
d="M554 -74c0 -17.333 -7 -31 -21 -41s-30.333 -15 -49 -15s-35 5 -49 15s-21 23.667 -21 41v466c0 17.333 7 31 21 41s30.333 15 49 15s35 -5 49 -15s21 -23.667 21 -41v-466zM337 -14h-65.999c-66 0 -125.333 13.333 -178 40c-54.667 28 -84 61.333 -88 100v266
c0 17.333 7 31 21 41s30.333 15 49 15c19.333 0 35.833 -5 49.5 -15s20.5 -23.667 20.5 -41v-251c4 -14 19.667 -25 47 -33c23.333 -6.66699 49.666 -10 78.999 -10h66c22 0 39.667 -5.66699 53 -17c11.333 -10.667 17 -23.667 17 -39s-5.66699 -28 -17 -38
c-13.333 -12 -31 -18 -53 -18zM369.001 614c14.667 0 27.168 -5.33203 37.501 -15.999s15.833 -23.667 16.5 -39c0 -15.333 -5.33301 -28.166 -16 -38.499s-23.334 -15.5 -38.001 -15.5c-15.333 0 -28.333 5.16699 -39 15.5s-16 23.166 -16 38.499s5.33301 28.166 16 38.499
s23.667 15.833 39 16.5zM192.002 614.001c15.333 0 28.1689 -5.33203 38.502 -15.999s15.833 -23.667 16.5 -39c0 -15.333 -5.33301 -28.166 -16 -38.499s-23.334 -15.5 -38.001 -15.5c-15.333 0 -28.333 5.16699 -39 15.5s-16 23.166 -16 38.499
s5.16699 28.166 15.5 38.499s23.166 15.833 38.499 16.5z" />
    <glyph glyph-name="dotlessi" unicode="&#x131;" horiz-adv-x="263" 
d="M182 69c0 -17.333 -7 -31 -21 -41s-30.333 -15 -49 -15c-19.333 0 -35.833 5 -49.5 15s-20.5 23.667 -20.5 41v282c0 18 6.83301 31.833 20.5 41.5s30.167 14.5 49.5 14.5c18.667 0 35 -4.83301 49 -14.5s21 -23.5 21 -41.5v-282z" />
    <glyph glyph-name="OE" unicode="&#x152;" horiz-adv-x="1021" 
d="M546 156c0 -35.333 -20.333 -66.667 -61 -94c-48.667 -32 -117 -48.667 -205 -50c-65.333 -0.666992 -123.666 11.666 -174.999 36.999c-56 27.333 -86 62.333 -90 105v299c0 37.333 20 69.333 60 96c48 31.333 115.667 47.666 203 48.999
c65.333 0.666992 125.166 -12.666 179.499 -39.999s83.5 -61.666 87.5 -102.999zM406 168.999v267.001c-1.33301 16.667 -16 29.667 -44 39c-24 7.33301 -51.333 11 -82 11c-83.333 -1.33301 -125 -16.666 -125 -45.999v-271c4 -14.667 19.333 -26.334 46 -35.001
c23.333 -7.33301 49 -11 77 -11c39.333 0.666992 70.5 5.16699 93.5 13.5s34.5 19.166 34.5 32.499zM736 306h-130c-22 0 -39.167 5.66699 -51.5 17s-18.5 24.333 -18.5 39c0 15.333 6.16699 28.5 18.5 39.5s29.5 16.5 51.5 16.5h130c22.667 0 40.167 -5.5 52.5 -16.5
s18.5 -24.167 18.5 -39.5c0 -14.667 -6.16699 -27.667 -18.5 -39s-29.833 -17 -52.5 -17zM851 15l-196 0.00195312c-65.333 0 -123.666 12.667 -174.999 38c-56 27.333 -86 61.666 -90 102.999v294c0 35.333 20 66.333 60 93c49.333 33.333 117.333 50 204 50h197
c22 0 39.667 -6 53 -18c11.333 -10.667 17 -23.334 17 -38.001c0 -15.333 -5.66699 -28.333 -17 -39c-13.333 -11.333 -31 -17 -53 -17l-195 1c-38.667 0 -69.334 -4.33301 -92.001 -13s-34 -19 -34 -31v-267c4 -14 19.667 -25 47 -33c23.333 -7.33301 49.333 -11 78 -11
h196c22 0 39.667 -5.66699 53 -17c11.333 -10.667 17 -23.667 17 -39s-5.66699 -28 -17 -38c-13.333 -12 -31 -18 -53 -18z" />
    <glyph glyph-name="oe" unicode="&#x153;" horiz-adv-x="1004" 
d="M542 142c0 -34 -20.333 -64.668 -61 -92.001c-49.333 -34 -117.666 -51.333 -204.999 -52c-64.667 -1.33301 -123.334 11.334 -176.001 38.001c-55.333 27.333 -85 60.666 -89 99.999v186c0 36.667 19.667 68.334 59 95.001c48 32 116.333 48.333 205 49
c65.333 0.666992 124.333 -12 177 -38c55.333 -28 85 -62.667 89 -104zM402 141.999l-0.000976562 176c-2.66699 26 -44.667 38.333 -126 37c-83.333 -1.33301 -125 -12.333 -125 -33v-180c6.66699 -23.333 47.334 -34.333 122.001 -33c86 0.666992 129 11.667 129 33z
M920.999 128.999c0 -36 -19.999 -65.6689 -59.999 -89.002c-47.333 -27.333 -116 -41.333 -206 -42c-64.667 -0.666992 -123.334 12 -176.001 38c-55.333 27.333 -85 60.666 -89 99.999v186c0 36.667 19.667 68.334 59 95.001c48 32 116.333 48.333 205 49
c65.333 0.666992 124.666 -11.666 177.999 -36.999c58 -28 87.333 -63 88 -105l1 -67c0.666992 -37.333 -22.666 -56 -69.999 -56h-245c-22 0 -39.167 5.5 -51.5 16.5s-18.5 24.167 -18.5 39.5s6.16699 28.5 18.5 39.5s29.5 16.5 51.5 16.5h175c0 29.333 -42 43.333 -126 42
c-83.333 -1.33301 -125 -12.333 -125 -33v-180c6.66699 -23.333 47.667 -34.333 123 -33c85.333 0.666992 128 7.33398 128 20.001v6c0 18 7 31.833 21 41.5s30.333 14.5 49 14.5s35 -4.83301 49 -14.5s21 -23.5 21 -41.5v-6z" />
    <glyph glyph-name="Scaron" unicode="&#x160;" horiz-adv-x="625" 
d="M336 635h-92l-95 166h15l137 -106l114 106h15zM543 156c0.666992 -34.667 -19.332 -65.6641 -59.999 -92.9971c-48.667 -32.667 -116.667 -49.667 -204 -51c-69.333 -0.666992 -129.333 11.666 -180 36.999c-52.667 26 -81.334 60 -86.001 102v47
c0 17.333 7.33301 31.333 22 42c12.667 9.33301 28.667 14 48 14c18.667 0 35 -5 49 -15s21 -23.667 21 -41v-42c6.66699 -22.667 47.667 -33.667 123 -33c84.667 1.33301 127 12.333 127 33v80c-2.66699 24 -44.334 36 -125.001 36c-67.333 0 -127.333 14.333 -180 43
s-81 62 -85 100v38c0 36.667 21 68.667 63 96c49.333 31.333 116.666 47.666 201.999 48.999c66.667 0.666992 126.334 -12.333 179.001 -39c56 -28 84.333 -62.667 85 -104l1 -34c0.666992 -18 -6 -31.833 -20 -41.5s-30.333 -14.5 -49 -14.5
c-19.333 0 -36 4.83301 -50 14.5s-21 23.5 -21 41.5v28c-2 25.333 -43.333 37.666 -124 36.999c-84 -1.33301 -126 -12.333 -126 -33v-35c6 -22.667 47.667 -34 125 -34c66.667 0 125.334 -12 176.001 -36c54 -26 83.333 -59.667 88 -101z" />
    <glyph glyph-name="scaron" unicode="&#x161;" horiz-adv-x="628" 
d="M319 519h-92l-95 166h15l137 -106l114 106h15zM542 135c3.33301 -34.667 -16.333 -65.0049 -59 -91.0049c-48.667 -30 -117.667 -45.333 -207 -46c-68.667 -0.666992 -127.334 8.33301 -176.001 27c-55.333 22 -85.333 53.667 -90 95v6c0 18.667 7.33301 33 22 43
s31.667 15 51 15c18 0 33.667 -4.5 47 -13.5s20 -21.5 20 -37.5v-4c0 -6.66699 14.333 -12 43 -16c25.333 -3.33301 52.333 -4.66602 81 -3.99902c85.333 0.666992 128 12.334 128 35.001c0 16 -14 26.667 -42 32c-16 2.66699 -44.333 4 -85 4
c-60 0 -114.333 9.33301 -163 28c-68 26 -102 64.667 -102 116v10c0 36 19.667 65.667 59 89c46.667 28 115 42.333 205 43c69.333 0.666992 128.666 -8.66602 177.999 -27.999c55.333 -22.667 85 -54.334 89 -95.001l1 -9c1.33301 -17.333 -4.66699 -30.666 -18 -39.999
s-30 -14 -50 -14c-19.333 0 -36.166 4.33301 -50.499 13s-21.5 20.334 -21.5 35.001v2c0 6 -14.333 11.833 -43 17.5s-56.334 8.16699 -83.001 7.5c-84 -1.33301 -126 -11.666 -126 -30.999c0 -16 17 -26 51 -30c8.66699 -1.33301 33.334 -2 74.001 -2
c80 0 143 -10.667 189 -32c54.667 -25.333 80.334 -64.333 77.001 -117z" />
    <glyph glyph-name="Ydieresis" unicode="&#x178;" horiz-adv-x="587" 
d="M576 72c0 -18 -6.83301 -31.833 -20.5 -41.5s-30.167 -14.5 -49.5 -14.5c-18.667 0 -35 4.83301 -49 14.5s-21 23.5 -21 41.5v465c0 18 7 31.833 21 41.5s30.333 14.5 49 14.5c19.333 0 35.833 -4.83301 49.5 -14.5s20.5 -23.5 20.5 -41.5v-465zM360 131h-67.001
c-65.333 0 -124.333 13.333 -177 40c-55.333 28 -84.666 61.333 -87.999 100v266c0 18 6.83301 31.833 20.5 41.5s30.167 14.5 49.5 14.5c18.667 0 35 -4.83301 49 -14.5s21 -23.5 21 -41.5v-250c4 -14 19.667 -25 47 -33c23.333 -7.33301 49.333 -11 78 -11h67
c22 0 39.167 -5.5 51.5 -16.5s18.5 -24.167 18.5 -39.5c0 -14.667 -6.16699 -27.667 -18.5 -39s-29.5 -17 -51.5 -17zM398.999 726c14.667 0 27.168 -5.33203 37.501 -15.999s15.833 -23.667 16.5 -39c0 -15.333 -5.33301 -28.166 -16 -38.499s-23.334 -15.5 -38.001 -15.5
c-15.333 0 -28.333 5.16699 -39 15.5s-16 23.166 -16 38.499s5.33301 28.166 16 38.499s23.667 15.833 39 16.5zM222 726.001c15.333 0 28.1689 -5.33203 38.502 -15.999s15.833 -23.667 16.5 -39c0 -15.333 -5.33301 -28.166 -16 -38.499s-23.334 -15.5 -38.001 -15.5
c-15.333 0 -28.333 5.16699 -39 15.5s-16 23.166 -16 38.499s5.16699 28.166 15.5 38.499s23.166 15.833 38.499 16.5z" />
    <glyph glyph-name="circumflex" unicode="&#x2c6;" horiz-adv-x="340" 
d="M104 693h92l95 -166h-16l-136 107l-115 -107h-15z" />
    <glyph glyph-name="ring" unicode="&#x2da;" horiz-adv-x="306" 
d="M133 712c26.667 0 49.1689 -9.16797 67.502 -27.501s27.833 -40.833 28.5 -67.5c0 -27.333 -9.33301 -50.166 -28 -68.499s-41.334 -27.5 -68.001 -27.5c-26.667 -0.666992 -49.167 8.33301 -67.5 27s-27.833 41.667 -28.5 69c0 26.667 9.16699 49.167 27.5 67.5
s41.166 27.5 68.499 27.5zM133.002 677.999c-17.333 0 -31.833 -6 -43.5 -18s-17.5 -26.333 -17.5 -43c-0.666992 -17.333 5 -31.833 17 -43.5s26.667 -17.5 44 -17.5c16.667 0 31 5.83301 43 17.5s18 26.167 18 43.5c0 16.667 -6 31 -18 43s-26.333 18 -43 18z" />
    <glyph glyph-name="tilde" unicode="&#x2dc;" horiz-adv-x="349" 
d="M11 549l-15.999 0.000976562c2 85.333 33.333 128.333 94 129c24 0 57.667 -14 101 -42c27.333 -18 47.666 -27 60.999 -27c24 0 40 23 48 69h15c0 -56 -16 -94.667 -48 -116c-15.333 -10 -31 -15 -47 -15c-26 0 -58.667 13.333 -98 40c-30 20 -51.333 30 -64 30
c-13.333 0 -24 -6 -32 -18c-3.33301 -4.66699 -8 -21.334 -14 -50.001z" />
    <glyph glyph-name="quoteleft" unicode="&#x2018;" horiz-adv-x="164" 
d="M22 555c-2.66699 12 -0.166016 21.5 7.50098 28.5s18.167 10.5 31.5 10.5s25.666 -3.5 36.999 -10.5s18.333 -16.5 21 -28.5l20 -97c2.66699 -12.667 0 -22.5 -8 -29.5s-18.667 -10.5 -32 -10.5s-25.5 3.5 -36.5 10.5s-17.833 16.833 -20.5 29.5z" />
    <glyph glyph-name="quoteright" unicode="&#x2019;" horiz-adv-x="164" 
d="M120 458c-2.66699 -12.667 -9.49902 -22.5 -20.499 -29.5s-23.167 -10.5 -36.5 -10.5s-24 3.5 -32 10.5s-10.667 16.833 -8 29.5l20 97c2.66699 12 9.66699 21.5 21 28.5s23.666 10.5 36.999 10.5s23.833 -3.5 31.5 -10.5s10.167 -16.5 7.5 -28.5z" />
    <glyph glyph-name="quotesinglbase" unicode="&#x201a;" horiz-adv-x="164" 
d="M120 0c-2.66699 -12.667 -9.49902 -22.5 -20.499 -29.5s-23.167 -10.5 -36.5 -10.5s-24 3.5 -32 10.5s-10.667 16.833 -8 29.5l20 97c2.66699 12 9.66699 21.5 21 28.5s23.666 10.5 36.999 10.5s23.833 -3.5 31.5 -10.5s10.167 -16.5 7.5 -28.5z" />
    <glyph glyph-name="quotedblleft" unicode="&#x201c;" horiz-adv-x="285" 
d="M148 555c-2.66699 12 -0.166016 21.5 7.50098 28.5s18.167 10.5 31.5 10.5s25.666 -3.5 36.999 -10.5s18.333 -16.5 21 -28.5l20 -97c2.66699 -12.667 0 -22.5 -8 -29.5s-18.667 -10.5 -32 -10.5s-25.5 3.5 -36.5 10.5s-17.833 16.833 -20.5 29.5zM18.001 555
c-2.66699 12 -0.166016 21.5 7.50098 28.5s18.167 10.5 31.5 10.5s25.666 -3.5 36.999 -10.5s18.333 -16.5 21 -28.5l20 -97c2.66699 -12.667 0 -22.5 -8 -29.5s-18.667 -10.5 -32 -10.5s-25.5 3.5 -36.5 10.5s-17.833 16.833 -20.5 29.5z" />
    <glyph glyph-name="quotedblright" unicode="&#x201d;" horiz-adv-x="285" 
d="M246 458c-2.66699 -12.667 -9.49902 -22.5 -20.499 -29.5s-23.167 -10.5 -36.5 -10.5s-24 3.5 -32 10.5s-10.667 16.833 -8 29.5l20 97c2.66699 12 9.66699 21.5 21 28.5s23.666 10.5 36.999 10.5s23.833 -3.5 31.5 -10.5s10.167 -16.5 7.5 -28.5zM116.001 458
c-2.66699 -12.667 -9.49902 -22.5 -20.499 -29.5s-23.167 -10.5 -36.5 -10.5s-24 3.5 -32 10.5s-10.667 16.833 -8 29.5l20 97c2.66699 12 9.66699 21.5 21 28.5s23.666 10.5 36.999 10.5s23.833 -3.5 31.5 -10.5s10.167 -16.5 7.5 -28.5z" />
    <glyph glyph-name="quotedblbase" unicode="&#x201e;" horiz-adv-x="285" 
d="M246 0c-2.66699 -12.667 -9.49902 -22.5 -20.499 -29.5s-23.167 -10.5 -36.5 -10.5s-24 3.5 -32 10.5s-10.667 16.833 -8 29.5l20 97c2.66699 12 9.66699 21.5 21 28.5s23.666 10.5 36.999 10.5s23.833 -3.5 31.5 -10.5s10.167 -16.5 7.5 -28.5zM116.001 0
c-2.66699 -12.667 -9.49902 -22.5 -20.499 -29.5s-23.167 -10.5 -36.5 -10.5s-24 3.5 -32 10.5s-10.667 16.833 -8 29.5l20 97c2.66699 12 9.66699 21.5 21 28.5s23.666 10.5 36.999 10.5s23.833 -3.5 31.5 -10.5s10.167 -16.5 7.5 -28.5z" />
    <glyph glyph-name="bullet" unicode="&#x2022;" horiz-adv-x="474" 
d="M215 538c24.667 0 49.167 -5.33301 73.5 -16s45.833 -25.667 64.5 -45s33.834 -42.333 45.501 -69s17.5 -56 17.5 -88c0 -33.333 -5.16699 -64.5 -15.5 -93.5s-24.5 -54.167 -42.5 -75.5s-39.5 -38.166 -64.5 -50.499s-51.833 -18.5 -80.5 -18.5
c-24.667 0 -48.834 5.66699 -72.501 17s-44.667 26.666 -63 45.999s-33.166 42 -44.499 68s-17 53.667 -17 83v13c0 30.667 4.83301 60 14.5 88s23.167 52.333 40.5 73s38.166 37.167 62.499 49.5s51.5 18.5 81.5 18.5z" />
    <glyph glyph-name="ellipsis" unicode="&#x2026;" horiz-adv-x="1906" 
d="M475 20c0 -17.333 -6.83301 -31 -20.5 -41s-30.167 -15 -49.5 -15c-18.667 0 -35 5 -49 15s-21 23.667 -21 41v59c0 17.333 7 30.833 21 40.5s30.333 14.5 49 14.5c19.333 0 35.833 -4.83301 49.5 -14.5s20.5 -23.167 20.5 -40.5v-59zM1003 20
c0 -17.333 -6.83301 -31 -20.5 -41s-30.167 -15 -49.5 -15c-18.667 0 -35 5 -49 15s-21 23.667 -21 41v59c0 17.333 7 30.833 21 40.5s30.333 14.5 49 14.5c19.333 0 35.833 -4.83301 49.5 -14.5s20.5 -23.167 20.5 -40.5v-59zM1531 20c0 -17.333 -6.83301 -31 -20.5 -41
s-30.167 -15 -49.5 -15c-18.667 0 -35 5 -49 15s-21 23.667 -21 41v59c0 17.333 7 30.833 21 40.5s30.333 14.5 49 14.5c19.333 0 35.833 -4.83301 49.5 -14.5s20.5 -23.167 20.5 -40.5v-59z" />
    <glyph glyph-name="guilsinglleft" unicode="&#x2039;" horiz-adv-x="236" 
d="M97 309l105 -49v-61l-160 79v60l160 83v-64z" />
    <glyph glyph-name="guillemotright" unicode="&#x203a;" horiz-adv-x="236" 
d="M146 311l-104 48v62l160 -79v-60l-160 -83v63z" />
    <glyph glyph-name="Euro" unicode="&#x20ac;" horiz-adv-x="616" 
d="M386 328l-180.999 -0.00195312v-58h128c15.333 0 27.166 -3.83301 35.499 -11.5s12.5 -16.167 12.5 -25.5c0 -10.667 -4.16699 -19.667 -12.5 -27s-20.166 -11 -35.499 -11h-128v-19c2.66699 -7.33301 8.16699 -14.166 16.5 -20.499s18.333 -12 30 -17
s24.334 -8.83301 38.001 -11.5s26.5 -4 38.5 -4c18.667 0 36 1.66699 52 5s30.333 7.66602 43 12.999c8.66699 4 16.334 9.16699 23.001 15.5s12.667 12.333 18 18s10.666 10.667 15.999 15s11.666 6.5 18.999 6.5c4 0 9.83301 -2 17.5 -6s15.334 -9.33301 23.001 -16
s14.334 -14.667 20.001 -24s8.5 -19 8.5 -29c0 -18 -6.83301 -33.833 -20.5 -47.5s-32 -25 -55 -34s-49.167 -15.833 -78.5 -20.5s-59.333 -7 -90 -7c-31.333 0 -61.833 3.5 -91.5 10.5s-56.5 16.833 -80.5 29.5s-43.833 27.5 -59.5 44.5s-24.834 35.167 -27.501 54.5v44
c-11.333 1.33301 -20.5 5.5 -27.5 12.5s-10.5 15.5 -10.5 25.5c0 8.66699 3.5 16.5 10.5 23.5s16.167 11.167 27.5 12.5v59c-11.333 1.33301 -20.5 5.5 -27.5 12.5s-10.5 15.167 -10.5 24.5s3.5 17.333 10.5 24s16.167 10.667 27.5 12v53c0 21.333 6.83301 40.833 20.5 58.5
s33 32.834 58 45.501s55 22.5 90 29.5s73.833 10.5 116.5 10.5c14.667 0 32 -0.833008 52 -2.5s38.667 -5 56 -10s32.166 -12.167 44.499 -21.5s18.5 -21.333 18.5 -36c0 -21.333 -5.5 -37 -16.5 -47s-24.5 -15 -40.5 -15c-15.333 0 -34.333 3.33301 -57 10s-48 10 -76 10
c-38.667 0 -69.334 -5.16699 -92.001 -15.5s-34 -22.166 -34 -35.499v-33h181c15.333 0 27.166 -3.66699 35.499 -11s12.5 -16 12.5 -26s-4.16699 -18.667 -12.5 -26s-20.166 -11 -35.499 -11z" />
    <glyph glyph-name="ordmasculine" unicode="&#x2122;" horiz-adv-x="574" 
d="M177 496v-229h-60v229h-73v55h204v-55h-71zM459 424l-62 -158l-67 164v-162h-57v284h69l54 -146l54 146h66v-284h-57v156z" />
  </font>
</defs>
</svg>
